<?xml version="1.0" encoding="iso-8859-1"?>
<!-- Generator: Adobe Illustrator 19.0.0, SVG Export Plug-In . SVG Version: 6.00 Build 0)  -->
<svg version="1.1" id="Layer_1" xmlns="http://www.w3.org/2000/svg" xmlns:xlink="http://www.w3.org/1999/xlink" x="0px" y="0px"
	 viewBox="0 0 485 485" style="enable-background:new 0 0 485 485;" xml:space="preserve">
<g>
	<g id="XMLID_39_">
		<g>
			<rect x="222.5" y="167.5" style="fill:#E7ECED;" width="40" height="50"/>
			<polygon style="fill:#AFB6BB;" points="282.5,97.5 282.5,167.5 262.5,167.5 222.5,167.5 202.5,167.5 202.5,97.5 			"/>
			<polygon style="fill:#AFB6BB;" points="167.5,297.5 167.5,267.5 317.5,267.5 317.5,347.5 167.5,347.5 			"/>
			<polygon style="fill:#7F868A;" points="402.5,347.5 402.5,387.5 82.5,387.5 82.5,347.5 167.5,347.5 317.5,347.5 			"/>
			<polygon style="fill:#AFB6BB;" points="477.5,387.5 477.5,477.5 7.5,477.5 7.5,387.5 37.5,387.5 82.5,387.5 402.5,387.5 
				447.5,387.5 			"/>
			<polygon style="fill:#AFB6BB;" points="477.5,7.5 477.5,97.5 447.5,97.5 402.5,97.5 312.5,97.5 312.5,47.5 172.5,47.5 
				172.5,97.5 82.5,97.5 37.5,97.5 7.5,97.5 7.5,7.5 			"/>
			<polygon style="fill:#E7ECED;" points="447.5,97.5 447.5,387.5 402.5,387.5 402.5,347.5 317.5,347.5 317.5,267.5 167.5,267.5 
				167.5,347.5 82.5,347.5 82.5,387.5 37.5,387.5 37.5,97.5 202.5,97.5 202.5,167.5 222.5,167.5 222.5,217.5 262.5,217.5 
				262.5,167.5 282.5,167.5 282.5,97.5 			"/>
			<polygon style="fill:#E7ECED;" points="312.5,47.5 312.5,97.5 282.5,97.5 202.5,97.5 172.5,97.5 172.5,47.5 			"/>
		</g>
		<g>
			<path d="M485,105V0H0v105h30v275H0v105h485V380h-30V105H485z M15,90V15h455v75H320V40H165v50H15z M395,355v25H90v-25H395z
				 M175,305h62.5v-15H175v-15h135v65H175V305z M325,340v-80H160v80H75v40H45V105h30v212.5h15V105h105v70h20v50h55v-50h20v-70h105
				v212.5h15V105h30v275h-30v-40H325z M180,90V55h125v35H180z M210,160v-55h65v55H210z M255,175v35h-25v-35H255z M470,395v75H15v-75
				H470z"/>
			<rect x="397.5" y="45" width="50" height="15"/>
			<rect x="37.5" y="45" width="50" height="15"/>
			<rect x="107.5" y="45" width="20" height="15"/>
			<rect x="357.5" y="45" width="20" height="15"/>
			<rect x="187.5" y="420" width="110" height="15"/>
			<rect x="257.5" y="290" width="20" height="15"/>
		</g>
	</g>
</g>
<g>
</g>
<g>
</g>
<g>
</g>
<g>
</g>
<g>
</g>
<g>
</g>
<g>
</g>
<g>
</g>
<g>
</g>
<g>
</g>
<g>
</g>
<g>
</g>
<g>
</g>
<g>
</g>
<g>
</g>
</svg>
