<?xml version="1.0" encoding="iso-8859-1"?>
<!-- Generator: Adobe Illustrator 19.0.0, SVG Export Plug-In . SVG Version: 6.00 Build 0)  -->
<svg version="1.1" id="Capa_1" xmlns="http://www.w3.org/2000/svg" xmlns:xlink="http://www.w3.org/1999/xlink" x="0px" y="0px"
	 viewBox="0 0 480 480" style="enable-background:new 0 0 480 480;" xml:space="preserve">
<g>
	
		<linearGradient id="SVGID_1_" gradientUnits="userSpaceOnUse" x1="-48.875" y1="562.245" x2="-48.875" y2="624.74" gradientTransform="matrix(8 0 0 -8 455 4941)">
		<stop  offset="0" style="stop-color:#006DF0"/>
		<stop  offset="1" style="stop-color:#00E7F0"/>
	</linearGradient>
	<path style="fill:url(#SVGID_1_);" d="M120,0H8C3.582,0,0,3.582,0,8v344c0,4.418,3.582,8,8,8h24v104H0v16h128v-16H96V360h24
		c4.418,0,8-3.582,8-8V8C128,3.582,124.418,0,120,0z M80,464H48V360h32V464z M112,344H16V16h96V344z"/>
	
		<linearGradient id="SVGID_2_" gradientUnits="userSpaceOnUse" x1="-48.875" y1="562.245" x2="-48.875" y2="624.74" gradientTransform="matrix(8 0 0 -8 455 4941)">
		<stop  offset="0" style="stop-color:#006DF0"/>
		<stop  offset="1" style="stop-color:#00E7F0"/>
	</linearGradient>
	<path style="fill:url(#SVGID_2_);" d="M64,96c17.673,0,32-14.327,32-32S81.673,32,64,32S32,46.327,32,64S46.327,96,64,96z M64,48
		c8.837,0,16,7.163,16,16s-7.163,16-16,16s-16-7.163-16-16S55.163,48,64,48z"/>
	
		<linearGradient id="SVGID_3_" gradientUnits="userSpaceOnUse" x1="-48.875" y1="562.245" x2="-48.875" y2="624.74" gradientTransform="matrix(8 0 0 -8 455 4941)">
		<stop  offset="0" style="stop-color:#006DF0"/>
		<stop  offset="1" style="stop-color:#00E7F0"/>
	</linearGradient>
	<path style="fill:url(#SVGID_3_);" d="M56,56h16v16H56V56z"/>
	
		<linearGradient id="SVGID_4_" gradientUnits="userSpaceOnUse" x1="-48.875" y1="562.245" x2="-48.875" y2="624.74" gradientTransform="matrix(8 0 0 -8 455 4941)">
		<stop  offset="0" style="stop-color:#006DF0"/>
		<stop  offset="1" style="stop-color:#00E7F0"/>
	</linearGradient>
	<path style="fill:url(#SVGID_4_);" d="M64,176c17.673,0,32-14.327,32-32s-14.327-32-32-32s-32,14.327-32,32S46.327,176,64,176z
		 M64,128c8.837,0,16,7.163,16,16s-7.163,16-16,16s-16-7.163-16-16S55.163,128,64,128z"/>
	
		<linearGradient id="SVGID_5_" gradientUnits="userSpaceOnUse" x1="-48.875" y1="562.245" x2="-48.875" y2="624.74" gradientTransform="matrix(8 0 0 -8 455 4941)">
		<stop  offset="0" style="stop-color:#006DF0"/>
		<stop  offset="1" style="stop-color:#00E7F0"/>
	</linearGradient>
	<path style="fill:url(#SVGID_5_);" d="M56,136h16v16H56V136z"/>
	
		<linearGradient id="SVGID_6_" gradientUnits="userSpaceOnUse" x1="-48.875" y1="562.245" x2="-48.875" y2="624.74" gradientTransform="matrix(8 0 0 -8 455 4941)">
		<stop  offset="0" style="stop-color:#006DF0"/>
		<stop  offset="1" style="stop-color:#00E7F0"/>
	</linearGradient>
	<path style="fill:url(#SVGID_6_);" d="M64,256c17.673,0,32-14.327,32-32s-14.327-32-32-32s-32,14.327-32,32S46.327,256,64,256z
		 M64,208c8.837,0,16,7.163,16,16s-7.163,16-16,16s-16-7.163-16-16S55.163,208,64,208z"/>
	
		<linearGradient id="SVGID_7_" gradientUnits="userSpaceOnUse" x1="-48.875" y1="562.245" x2="-48.875" y2="624.74" gradientTransform="matrix(8 0 0 -8 455 4941)">
		<stop  offset="0" style="stop-color:#006DF0"/>
		<stop  offset="1" style="stop-color:#00E7F0"/>
	</linearGradient>
	<path style="fill:url(#SVGID_7_);" d="M56,216h16v16H56V216z"/>
	
		<linearGradient id="SVGID_8_" gradientUnits="userSpaceOnUse" x1="-48.875" y1="562.245" x2="-48.875" y2="624.74" gradientTransform="matrix(8 0 0 -8 455 4941)">
		<stop  offset="0" style="stop-color:#006DF0"/>
		<stop  offset="1" style="stop-color:#00E7F0"/>
	</linearGradient>
	<path style="fill:url(#SVGID_8_);" d="M64,336c17.673,0,32-14.327,32-32s-14.327-32-32-32s-32,14.327-32,32S46.327,336,64,336z
		 M64,288c8.837,0,16,7.163,16,16s-7.163,16-16,16s-16-7.163-16-16S55.163,288,64,288z"/>
	
		<linearGradient id="SVGID_9_" gradientUnits="userSpaceOnUse" x1="-48.875" y1="562.245" x2="-48.875" y2="624.74" gradientTransform="matrix(8 0 0 -8 455 4941)">
		<stop  offset="0" style="stop-color:#006DF0"/>
		<stop  offset="1" style="stop-color:#00E7F0"/>
	</linearGradient>
	<path style="fill:url(#SVGID_9_);" d="M56,296h16v16H56V296z"/>
</g>
<g>
	
		<linearGradient id="SVGID_10_" gradientUnits="userSpaceOnUse" x1="-4.875" y1="562.245" x2="-4.875" y2="624.74" gradientTransform="matrix(8 0 0 -8 455 4941)">
		<stop  offset="0" style="stop-color:#006DF0"/>
		<stop  offset="1" style="stop-color:#00E7F0"/>
	</linearGradient>
	<path style="fill:url(#SVGID_10_);" d="M472,360c4.418,0,8-3.582,8-8V8c0-4.418-3.582-8-8-8H360c-4.418,0-8,3.582-8,8v344
		c0,4.418,3.582,8,8,8h24v104h-32v16h128v-16h-32V360H472z M368,16h96v328h-96V16z M432,464h-32V360h32V464z"/>
	
		<linearGradient id="SVGID_11_" gradientUnits="userSpaceOnUse" x1="-4.875" y1="562.245" x2="-4.875" y2="624.74" gradientTransform="matrix(8 0 0 -8 455 4941)">
		<stop  offset="0" style="stop-color:#006DF0"/>
		<stop  offset="1" style="stop-color:#00E7F0"/>
	</linearGradient>
	<path style="fill:url(#SVGID_11_);" d="M416,96c17.673,0,32-14.327,32-32s-14.327-32-32-32s-32,14.327-32,32S398.327,96,416,96z
		 M416,48c8.837,0,16,7.163,16,16s-7.163,16-16,16s-16-7.163-16-16S407.163,48,416,48z"/>
	
		<linearGradient id="SVGID_12_" gradientUnits="userSpaceOnUse" x1="-4.875" y1="562.245" x2="-4.875" y2="624.74" gradientTransform="matrix(8 0 0 -8 455 4941)">
		<stop  offset="0" style="stop-color:#006DF0"/>
		<stop  offset="1" style="stop-color:#00E7F0"/>
	</linearGradient>
	<path style="fill:url(#SVGID_12_);" d="M408,56h16v16h-16V56z"/>
	
		<linearGradient id="SVGID_13_" gradientUnits="userSpaceOnUse" x1="-4.875" y1="562.245" x2="-4.875" y2="624.74" gradientTransform="matrix(8 0 0 -8 455 4941)">
		<stop  offset="0" style="stop-color:#006DF0"/>
		<stop  offset="1" style="stop-color:#00E7F0"/>
	</linearGradient>
	<path style="fill:url(#SVGID_13_);" d="M416,176c17.673,0,32-14.327,32-32s-14.327-32-32-32s-32,14.327-32,32S398.327,176,416,176z
		 M416,128c8.837,0,16,7.163,16,16s-7.163,16-16,16s-16-7.163-16-16S407.163,128,416,128z"/>
	
		<linearGradient id="SVGID_14_" gradientUnits="userSpaceOnUse" x1="-4.875" y1="562.245" x2="-4.875" y2="624.74" gradientTransform="matrix(8 0 0 -8 455 4941)">
		<stop  offset="0" style="stop-color:#006DF0"/>
		<stop  offset="1" style="stop-color:#00E7F0"/>
	</linearGradient>
	<path style="fill:url(#SVGID_14_);" d="M408,136h16v16h-16V136z"/>
	
		<linearGradient id="SVGID_15_" gradientUnits="userSpaceOnUse" x1="-4.875" y1="562.245" x2="-4.875" y2="624.74" gradientTransform="matrix(8 0 0 -8 455 4941)">
		<stop  offset="0" style="stop-color:#006DF0"/>
		<stop  offset="1" style="stop-color:#00E7F0"/>
	</linearGradient>
	<path style="fill:url(#SVGID_15_);" d="M416,256c17.673,0,32-14.327,32-32s-14.327-32-32-32s-32,14.327-32,32S398.327,256,416,256z
		 M416,208c8.837,0,16,7.163,16,16s-7.163,16-16,16s-16-7.163-16-16S407.163,208,416,208z"/>
	
		<linearGradient id="SVGID_16_" gradientUnits="userSpaceOnUse" x1="-4.875" y1="562.245" x2="-4.875" y2="624.74" gradientTransform="matrix(8 0 0 -8 455 4941)">
		<stop  offset="0" style="stop-color:#006DF0"/>
		<stop  offset="1" style="stop-color:#00E7F0"/>
	</linearGradient>
	<path style="fill:url(#SVGID_16_);" d="M408,216h16v16h-16V216z"/>
	
		<linearGradient id="SVGID_17_" gradientUnits="userSpaceOnUse" x1="-4.875" y1="562.245" x2="-4.875" y2="624.74" gradientTransform="matrix(8 0 0 -8 455 4941)">
		<stop  offset="0" style="stop-color:#006DF0"/>
		<stop  offset="1" style="stop-color:#00E7F0"/>
	</linearGradient>
	<path style="fill:url(#SVGID_17_);" d="M416,336c17.673,0,32-14.327,32-32s-14.327-32-32-32s-32,14.327-32,32S398.327,336,416,336z
		 M416,288c8.837,0,16,7.163,16,16s-7.163,16-16,16s-16-7.163-16-16S407.163,288,416,288z"/>
	
		<linearGradient id="SVGID_18_" gradientUnits="userSpaceOnUse" x1="-4.875" y1="562.245" x2="-4.875" y2="624.74" gradientTransform="matrix(8 0 0 -8 455 4941)">
		<stop  offset="0" style="stop-color:#006DF0"/>
		<stop  offset="1" style="stop-color:#00E7F0"/>
	</linearGradient>
	<path style="fill:url(#SVGID_18_);" d="M408,296h16v16h-16V296z"/>
	
		<linearGradient id="SVGID_19_" gradientUnits="userSpaceOnUse" x1="-26.875" y1="562.245" x2="-26.875" y2="624.74" gradientTransform="matrix(8 0 0 -8 455 4941)">
		<stop  offset="0" style="stop-color:#006DF0"/>
		<stop  offset="1" style="stop-color:#00E7F0"/>
	</linearGradient>
	<path style="fill:url(#SVGID_19_);" d="M336,352h-16V200c0-4.418-3.582-8-8-8H168c-4.418,0-8,3.582-8,8v152h-16
		c-4.418,0-8,3.582-8,8v112c0,4.418,3.582,8,8,8h192c4.418,0,8-3.582,8-8V360C344,355.582,340.418,352,336,352z M176,208h128v144
		H176V208z M328,464H152v-96h176V464z"/>
	
		<linearGradient id="SVGID_20_" gradientUnits="userSpaceOnUse" x1="-26.875" y1="562.245" x2="-26.875" y2="624.74" gradientTransform="matrix(8 0 0 -8 455 4941)">
		<stop  offset="0" style="stop-color:#006DF0"/>
		<stop  offset="1" style="stop-color:#00E7F0"/>
	</linearGradient>
	<path style="fill:url(#SVGID_20_);" d="M160,456h160v-80H160V456z M176,392h128v48H176V392z"/>
	
		<linearGradient id="SVGID_21_" gradientUnits="userSpaceOnUse" x1="-26.875" y1="562.245" x2="-26.875" y2="624.74" gradientTransform="matrix(8 0 0 -8 455 4941)">
		<stop  offset="0" style="stop-color:#006DF0"/>
		<stop  offset="1" style="stop-color:#00E7F0"/>
	</linearGradient>
	<path style="fill:url(#SVGID_21_);" d="M240,224c-30.928,0-56,25.072-56,56s25.072,56,56,56s56-25.072,56-56
		C295.965,249.087,270.913,224.035,240,224z M240,320c-22.091,0-40-17.909-40-40s17.909-40,40-40s40,17.909,40,40
		C279.974,302.08,262.08,319.974,240,320z"/>
	
		<linearGradient id="SVGID_22_" gradientUnits="userSpaceOnUse" x1="-26.875" y1="562.245" x2="-26.875" y2="624.74" gradientTransform="matrix(8 0 0 -8 455 4941)">
		<stop  offset="0" style="stop-color:#006DF0"/>
		<stop  offset="1" style="stop-color:#00E7F0"/>
	</linearGradient>
	<path style="fill:url(#SVGID_22_);" d="M240,256c-13.255,0-24,10.745-24,24s10.745,24,24,24c13.255,0,24-10.745,24-24
		S253.255,256,240,256z M240,288c-4.418,0-8-3.582-8-8s3.582-8,8-8s8,3.582,8,8S244.418,288,240,288z"/>
	
		<linearGradient id="SVGID_23_" gradientUnits="userSpaceOnUse" x1="-32.875" y1="562.245" x2="-32.875" y2="624.74" gradientTransform="matrix(8 0 0 -8 455 4941)">
		<stop  offset="0" style="stop-color:#006DF0"/>
		<stop  offset="1" style="stop-color:#00E7F0"/>
	</linearGradient>
	<path style="fill:url(#SVGID_23_);" d="M184,216h16v16h-16V216z"/>
	
		<linearGradient id="SVGID_24_" gradientUnits="userSpaceOnUse" x1="-32.875" y1="562.245" x2="-32.875" y2="624.74" gradientTransform="matrix(8 0 0 -8 455 4941)">
		<stop  offset="0" style="stop-color:#006DF0"/>
		<stop  offset="1" style="stop-color:#00E7F0"/>
	</linearGradient>
	<path style="fill:url(#SVGID_24_);" d="M184,328h16v16h-16V328z"/>
	
		<linearGradient id="SVGID_25_" gradientUnits="userSpaceOnUse" x1="-20.875" y1="562.245" x2="-20.875" y2="624.74" gradientTransform="matrix(8 0 0 -8 455 4941)">
		<stop  offset="0" style="stop-color:#006DF0"/>
		<stop  offset="1" style="stop-color:#00E7F0"/>
	</linearGradient>
	<path style="fill:url(#SVGID_25_);" d="M280,328h16v16h-16V328z"/>
	
		<linearGradient id="SVGID_26_" gradientUnits="userSpaceOnUse" x1="-20.875" y1="562.245" x2="-20.875" y2="624.74" gradientTransform="matrix(8 0 0 -8 455 4941)">
		<stop  offset="0" style="stop-color:#006DF0"/>
		<stop  offset="1" style="stop-color:#00E7F0"/>
	</linearGradient>
	<path style="fill:url(#SVGID_26_);" d="M280,216h16v16h-16V216z"/>
	
		<linearGradient id="SVGID_27_" gradientUnits="userSpaceOnUse" x1="-30.875" y1="562.245" x2="-30.875" y2="624.74" gradientTransform="matrix(8 0 0 -8 455 4941)">
		<stop  offset="0" style="stop-color:#006DF0"/>
		<stop  offset="1" style="stop-color:#00E7F0"/>
	</linearGradient>
	<path style="fill:url(#SVGID_27_);" d="M192,408h32v16h-32V408z"/>
	
		<linearGradient id="SVGID_28_" gradientUnits="userSpaceOnUse" x1="-22.875" y1="562.245" x2="-22.875" y2="624.74" gradientTransform="matrix(8 0 0 -8 455 4941)">
		<stop  offset="0" style="stop-color:#006DF0"/>
		<stop  offset="1" style="stop-color:#00E7F0"/>
	</linearGradient>
	<path style="fill:url(#SVGID_28_);" d="M256,408h32v16h-32V408z"/>
</g>
<g>
</g>
<g>
</g>
<g>
</g>
<g>
</g>
<g>
</g>
<g>
</g>
<g>
</g>
<g>
</g>
<g>
</g>
<g>
</g>
<g>
</g>
<g>
</g>
<g>
</g>
<g>
</g>
<g>
</g>
</svg>
