<?xml version="1.0" encoding="iso-8859-1"?>
<!-- Generator: Adobe Illustrator 19.0.0, SVG Export Plug-In . SVG Version: 6.00 Build 0)  -->
<svg version="1.1" id="Layer_1" xmlns="http://www.w3.org/2000/svg" xmlns:xlink="http://www.w3.org/1999/xlink" x="0px" y="0px"
	 viewBox="0 0 512 512" style="enable-background:new 0 0 512 512;" xml:space="preserve">
<circle style="fill:#FF8E31;" cx="256" cy="256" r="256"/>
<path style="fill:#ED7425;" d="M351.444,135.749l-3.246-3.241c-0.044,0-0.044,0-0.044-0.044c-1.856-1.577-3.799-2.967-5.878-4.168
	l-7.311-4.214c-8.376-4.81-18.652-6.474-28.739-3.743c-10.092,2.683-18.143,9.257-23.002,17.631l-1.326,2.33l-0.015-0.015
	l-13.834-13.834l-0.136-0.138c-0.082-0.079-0.161-0.164-0.246-0.243l-0.133-0.133c-0.205-0.182-0.479-0.284-0.709-0.443
	c-0.274-0.164-0.527-0.374-0.822-0.494c-0.625-0.256-1.285-0.407-1.987-0.407h-16.054c-2.964,0-5.322,2.404-5.322,5.373v0.742
	c0,0.66,0.148,1.277,0.371,1.861c0.077,0.21,0.182,0.389,0.282,0.584c0.1,0.187,0.156,0.394,0.274,0.561l0.323,0.333
	c0.21,0.271,0.435,0.507,0.694,0.719l0.366,0.387c0.049,0.044,0.092,0.044,0.092,0.044l8.66,8.655v7.493
	c-3.105,0.049-6.167,0.269-9.208,0.55l-21.386-21.371c-0.028-0.038-0.072-0.074-0.108-0.108c-1.362-1.395-2.824-2.688-4.403-3.866
	c-0.287-0.212-0.584-0.407-0.87-0.612c-0.87-0.607-1.761-1.18-2.691-1.725c-0.351-0.207-0.709-0.404-1.075-0.607
	c-0.96-0.52-1.953-0.983-2.964-1.418c-0.33-0.143-0.645-0.302-0.983-0.435c-1.37-0.54-2.767-1.029-4.214-1.411
	c-10.135-2.732-20.36-1.068-28.782,3.743l-7.273,4.214c-8.374,4.859-14.948,12.908-17.628,22.994
	c-2.732,10.14-1.065,20.367,3.743,28.746l2.132,3.656l8.284,8.284l0.003,0.003c-18.45,21.01-29.668,48.548-29.668,78.715
	c0,37.673,17.449,71.222,44.705,93.112l-19.018,23.744l5.412,5.458l117.312,117.307c115.325-13.02,207.419-102.623,224.205-216.763
	L351.444,135.749z"/>
<g>
	<polygon style="fill:#5D6D7E;" points="167.718,392.988 162.304,387.551 183.956,360.512 194.765,371.336 	"/>
	<polygon style="fill:#5D6D7E;" points="344.271,392.988 349.704,387.551 328.051,360.512 317.228,371.336 	"/>
</g>
<path style="fill:#34495E;" d="M354.015,183.695l-72.886-42.092l2.097-3.638c4.849-8.399,12.895-14.94,22.994-17.649
	c10.099-2.708,20.352-1.065,28.751,3.786l7.283,4.196c8.399,4.854,14.938,12.908,17.656,22.999
	c2.703,10.109,1.052,20.36-3.791,28.746L354.015,183.695z"/>
<path style="fill:#5E7D9B;" d="M293.425,142.083c-0.778,0-1.556-0.253-2.204-0.788c-1.51-1.211-1.748-3.425-0.533-4.936
	c4.339-5.366,10.179-9.16,16.891-10.952c8.323-2.237,17.321-1.044,24.758,3.249c1.684,0.973,2.26,3.126,1.293,4.803
	c-0.97,1.687-3.121,2.25-4.797,1.285c-5.857-3.372-12.895-4.301-19.425-2.55c-5.276,1.408-9.864,4.375-13.24,8.576
	C295.478,141.642,294.454,142.083,293.425,142.083z"/>
<rect x="311.828" y="162.133" transform="matrix(0.8664 0.4994 -0.4994 0.8664 125.0561 -135.458)" style="fill:#5D6D7E;" width="7.652" height="7.652"/>
<path style="fill:#34495E;" d="M230.879,141.601l-72.883,42.092l-2.112-3.651c-4.846-8.387-6.497-18.637-3.779-28.746
	c2.703-10.092,9.244-18.148,17.638-22.999l7.288-4.196c8.407-4.851,18.647-6.5,28.759-3.791c10.092,2.714,18.14,9.257,22.994,17.654
	L230.879,141.601z"/>
<path style="fill:#5E7D9B;" d="M161.51,175.037c-1.405,0-2.739-0.858-3.277-2.24c-2.486-6.454-2.849-13.414-1.044-20.127
	c2.258-8.417,7.649-15.444,15.191-19.804c1.672-0.975,3.827-0.389,4.797,1.285c0.968,1.674,0.392,3.825-1.28,4.803
	c-5.921,3.412-10.156,8.934-11.932,15.542c-1.405,5.271-1.126,10.721,0.819,15.77c0.699,1.81-0.197,3.832-2.012,4.531
	C162.36,174.958,161.933,175.037,161.51,175.037z"/>
<g>
	
		<rect x="192.503" y="162.153" transform="matrix(0.8662 -0.4998 0.4998 0.8662 -56.6747 120.3344)" style="fill:#5D6D7E;" width="7.647" height="7.652"/>
	<rect x="253.696" y="136.038" style="fill:#5D6D7E;" width="4.6" height="15.301"/>
</g>
<g>
	<path style="fill:#34495E;" d="M242.614,130.691c0,2.949,2.409,5.353,5.358,5.353h16.069c2.941,0,5.35-2.401,5.35-5.353v-0.755
		c0-2.959-2.406-5.366-5.35-5.366h-16.069c-2.949,0-5.358,2.404-5.358,5.366V130.691z"/>
	<circle style="fill:#34495E;" cx="256" cy="270.694" r="119.373"/>
</g>
<path style="fill:#FFFFFF;" d="M359.368,270.684c0,57.078-46.277,103.368-103.368,103.368c-57.083,0-103.365-46.29-103.365-103.368
	c0-57.085,46.282-103.35,103.365-103.35C313.091,167.334,359.368,213.601,359.368,270.684z"/>
<path style="fill:#0684BA;" d="M256,167.334c-38.641,0-72.31,21.215-90.04,52.636l89.935,50.56l86.595-56.417
	C324.032,185.943,292.206,167.334,256,167.334z"/>
<g>
	<rect x="253.107" y="177.613" style="fill:#283A4D;" width="5.786" height="19.837"/>
	<rect x="162.918" y="267.802" style="fill:#283A4D;" width="19.85" height="5.773"/>
	<rect x="253.107" y="343.91" style="fill:#283A4D;" width="5.786" height="19.848"/>
	<rect x="329.242" y="267.802" style="fill:#283A4D;" width="19.84" height="5.773"/>
	<path style="fill:#283A4D;" d="M303.665,235.679l-49.469,32.22c-1.539,1.024-1.966,3.075-0.968,4.593
		c0.998,1.539,3.054,1.974,4.58,0.963l49.477-32.223L303.665,235.679z"/>
	<path style="fill:#283A4D;" d="M257.615,267.812l-32.883-18.542l-3.244,5.773l32.888,18.529c1.6,0.893,3.602,0.33,4.495-1.249
		C259.779,270.712,259.21,268.705,257.615,267.812z"/>
</g>
<g>
	<polygon style="fill:#FF8E31;" points="239.25,343.782 260.347,258.542 257.812,257.923 236.721,343.165 	"/>
	<path style="fill:#FF8E31;" d="M262.94,270.684c0,3.835-3.105,6.948-6.94,6.948c-3.835,0-6.938-3.113-6.938-6.948
		c0-3.819,3.103-6.945,6.938-6.945C259.835,263.739,262.94,266.865,262.94,270.684z"/>
</g>
<g>
	<polygon style="fill:#283A4D;" points="271.78,186.906 269.842,186.56 271.204,178.826 273.129,179.18 	"/>
	
		<rect x="285.521" y="182.972" transform="matrix(-0.9399 -0.3415 0.3415 -0.9399 491.9648 460.377)" style="fill:#283A4D;" width="1.966" height="7.829"/>
	<polygon style="fill:#283A4D;" points="299.479,197.34 297.795,196.352 301.701,189.571 303.386,190.559 	"/>
	<polygon style="fill:#283A4D;" points="311.552,206.003 310.065,204.736 315.085,198.756 316.582,199.992 	"/>
	
		<rect x="323.354" y="209.438" transform="matrix(-0.6409 -0.7676 0.7676 -0.6409 368.4345 599.0515)" style="fill:#283A4D;" width="1.961" height="7.823"/>
	
		<rect x="332.259" y="222.178" transform="matrix(-0.5027 -0.8645 0.8645 -0.5027 305.3016 627.8353)" style="fill:#283A4D;" width="1.969" height="7.844"/>
	
		<rect x="338.816" y="236.294" transform="matrix(-0.3432 -0.9393 0.9393 -0.3432 230.8025 641.7952)" style="fill:#283A4D;" width="1.966" height="7.811"/>
	<polygon style="fill:#283A4D;" points="340.137,256.837 339.799,254.92 347.512,253.548 347.848,255.478 	"/>
	<polygon style="fill:#283A4D;" points="339.799,286.467 340.145,284.516 347.848,285.891 347.512,287.823 	"/>
	
		<rect x="338.833" y="297.291" transform="matrix(0.3456 -0.9384 0.9384 0.3456 -60.2685 515.9791)" style="fill:#283A4D;" width="1.953" height="7.818"/>
	
		<rect x="332.265" y="311.388" transform="matrix(0.5043 -0.8635 0.8635 0.5043 -107.0837 444.0565)" style="fill:#283A4D;" width="1.963" height="7.828"/>
	<polygon style="fill:#283A4D;" points="320.684,326.226 321.94,324.736 327.946,329.764 326.674,331.274 	"/>
	
		<rect x="312.367" y="335.056" transform="matrix(0.7672 -0.6414 0.6414 0.7672 -144.4713 279.8885)" style="fill:#283A4D;" width="1.948" height="7.826"/>
	<polygon style="fill:#283A4D;" points="297.795,345.014 299.479,344.028 303.393,350.812 301.701,351.811 	"/>
	<polygon style="fill:#283A4D;" points="284.247,351.135 286.08,350.454 288.763,357.821 286.915,358.51 	"/>
	<polygon style="fill:#283A4D;" points="269.85,354.803 271.78,354.493 273.129,362.196 271.204,362.527 	"/>
	<polygon style="fill:#283A4D;" points="240.241,354.493 242.158,354.836 240.809,362.547 238.871,362.189 	"/>
	<polygon style="fill:#283A4D;" points="225.928,350.467 227.768,351.135 225.083,358.51 223.237,357.821 	"/>
	<polygon style="fill:#283A4D;" points="212.526,344.028 214.221,345.016 210.307,351.811 208.607,350.812 	"/>
	
		<rect x="197.715" y="335.091" transform="matrix(0.7639 0.6453 -0.6453 0.7639 265.6713 -48.184)" style="fill:#283A4D;" width="1.948" height="7.826"/>
	<polygon style="fill:#283A4D;" points="190.067,324.744 191.316,326.244 185.326,331.274 184.061,329.759 	"/>
	<polygon style="fill:#283A4D;" points="181.681,312.466 182.643,314.166 175.875,318.093 174.897,316.385 	"/>
	<polygon style="fill:#283A4D;" points="175.549,298.926 176.21,300.764 168.863,303.442 168.197,301.601 	"/>
	
		<rect x="167.191" y="282.264" transform="matrix(0.177 0.9842 -0.9842 0.177 420.0643 70.0057)" style="fill:#283A4D;" width="1.963" height="7.826"/>
	<polygon style="fill:#283A4D;" points="172.209,254.92 171.86,256.837 164.152,255.478 164.511,253.548 	"/>
	<polygon style="fill:#283A4D;" points="176.21,240.604 175.549,242.445 168.189,239.772 168.876,237.926 	"/>
	<polygon style="fill:#283A4D;" points="182.643,227.208 181.668,228.91 174.881,224.983 175.875,223.273 	"/>
	<polygon style="fill:#283A4D;" points="191.316,215.127 190.06,216.612 184.054,211.599 185.334,210.099 	"/>
	<polygon style="fill:#283A4D;" points="201.943,204.736 200.453,206.003 195.412,199.992 196.915,198.756 	"/>
	<polygon style="fill:#283A4D;" points="214.221,196.352 212.526,197.327 208.602,190.559 210.314,189.571 	"/>
	<polygon style="fill:#283A4D;" points="227.753,190.221 225.92,190.881 223.237,183.542 225.091,182.874 	"/>
	<polygon style="fill:#283A4D;" points="242.158,186.56 240.233,186.862 238.871,179.18 240.809,178.826 	"/>
</g>
<path style="fill:#0578AB;" d="M340.736,211.507c-1.789-2.586-3.709-5.094-5.76-7.475c-0.691-0.819-1.382-1.613-2.074-2.381
	c-1.382-1.562-2.842-3.098-4.352-4.557c-1.485-1.459-3.021-2.893-4.608-4.275c-0.768-0.691-1.587-1.382-2.406-2.022
	c-0.794-0.666-1.613-1.331-2.458-1.971c-0.586-0.461-1.178-0.922-1.789-1.357c-0.486-0.358-0.975-0.717-1.459-1.05
	c-5.814-4.147-12.083-7.706-18.739-10.573c-0.87-0.384-1.715-0.742-2.611-1.101c-2.534-1.024-5.12-1.946-7.734-2.739
	c-0.768-0.256-1.536-0.486-2.301-0.691c-6.605-1.894-13.494-3.149-20.582-3.661c-0.668-0.051-1.334-0.102-1.974-0.154
	c-0.87-0.026-1.715-0.077-2.586-0.102c-1.101-0.026-2.202-0.051-3.302-0.051c-1.408,0-2.79,0.026-4.173,0.077
	c-0.998,0.051-1.997,0.102-2.995,0.179c-1.126,0.077-2.278,0.154-3.405,0.282c-0.41,0.051-0.845,0.077-1.254,0.128
	c-0.717,0.077-1.434,0.179-2.15,0.282c-2.688,0.358-5.35,0.819-7.962,1.382c-0.717,0.154-1.434,0.333-2.15,0.486
	c-1.28,0.307-2.534,0.64-3.789,0.998c-0.947,0.256-1.894,0.538-2.842,0.845c-0.973,0.282-1.946,0.614-2.918,0.947
	c-0.563,0.179-1.126,0.384-1.69,0.589c-0.87,0.307-1.715,0.64-2.56,0.973c-0.973,0.384-1.946,0.768-2.918,1.203
	c-0.589,0.23-1.152,0.486-1.715,0.768c-0.768,0.333-1.51,0.666-2.227,1.024c-0.077,0.026-0.128,0.051-0.179,0.077
	c-1.459,0.717-2.918,1.459-4.326,2.227c-0.666,0.358-1.331,0.742-1.997,1.126c-2.253,1.28-4.454,2.637-6.579,4.096
	c-0.666,0.435-1.331,0.896-1.997,1.382c-0.538,0.358-1.024,0.717-1.536,1.101c-1.766,1.306-3.507,2.688-5.197,4.122
	c-4.301,3.61-8.294,7.552-11.904,11.802c-4.378,5.12-8.243,10.65-11.571,16.538l4.326,2.432
	c16.896-29.901,48.998-50.125,85.709-50.125c34.381,0,64.691,17.741,82.33,44.544l4.173-2.714
	C341.939,213.222,341.35,212.352,340.736,211.507z"/>
<path style="fill:#E5E9EC;" d="M359.373,270.694c0,57.062-46.285,103.347-103.373,103.347s-103.373-46.285-103.373-103.347
	c0-25.677,9.37-49.178,24.909-67.251c-4.378,5.12-8.243,10.65-11.571,16.538l4.326,2.432c-8.064,14.285-12.672,30.746-12.672,48.282
	c0,54.244,44.134,98.381,98.381,98.381s98.406-44.134,98.406-98.381c0-19.891-5.916-38.374-16.077-53.862l4.173-2.714
	C353.178,230.374,359.373,249.805,359.373,270.694z"/>
<g>
</g>
<g>
</g>
<g>
</g>
<g>
</g>
<g>
</g>
<g>
</g>
<g>
</g>
<g>
</g>
<g>
</g>
<g>
</g>
<g>
</g>
<g>
</g>
<g>
</g>
<g>
</g>
<g>
</g>
</svg>
