<?xml version="1.0" encoding="iso-8859-1"?>
<!-- Generator: Adobe Illustrator 19.0.0, SVG Export Plug-In . SVG Version: 6.00 Build 0)  -->
<svg version="1.1" id="Capa_1" xmlns="http://www.w3.org/2000/svg" xmlns:xlink="http://www.w3.org/1999/xlink" x="0px" y="0px"
	 viewBox="0 0 512 512" style="enable-background:new 0 0 512 512;" xml:space="preserve">
<path style="fill:#303C42;" d="M128,0C67.188,0,21.333,22.927,21.333,53.333v405.333C21.333,489.073,67.188,512,128,512
	s106.667-22.927,106.667-53.333V53.333C234.667,22.927,188.813,0,128,0z"/>
<g>
	<path style="fill:#5E6367;" d="M128,490.667c-52.094,0-85.333-18.948-85.333-32v-10.217c19.122,12.777,49.473,20.884,85.333,20.884
		s66.211-8.107,85.333-20.884v10.217C213.333,471.719,180.094,490.667,128,490.667z"/>
	<path style="fill:#5E6367;" d="M128,448c-52.094,0-85.333-18.948-85.333-32V128.449c19.122,12.777,49.473,20.884,85.333,20.884
		s66.211-8.107,85.333-20.884V416C213.333,429.052,180.094,448,128,448z"/>
</g>
<radialGradient id="SVGID_1_" cx="-45.0361" cy="643.8594" r="10.06" gradientTransform="matrix(21.3333 0 0 -21.3333 996.3334 13791.667)" gradientUnits="userSpaceOnUse">
	<stop  offset="0" style="stop-color:#65C5B4"/>
	<stop  offset="0.235" style="stop-color:#62C4B5"/>
	<stop  offset="0.427" style="stop-color:#58C1B9"/>
	<stop  offset="0.604" style="stop-color:#47BCBE"/>
	<stop  offset="0.771" style="stop-color:#2FB6C6"/>
	<stop  offset="0.931" style="stop-color:#10ADD0"/>
	<stop  offset="1" style="stop-color:#00A8D5"/>
</radialGradient>
<path style="fill:url(#SVGID_1_);" d="M128,128c-52.094,0-85.333-18.948-85.333-32V85.783C61.789,98.56,92.139,106.667,128,106.667
	s66.211-8.107,85.333-20.884V96C213.333,109.052,180.094,128,128,128z"/>
<path style="fill:#5E6367;" d="M128,85.333c-52.094,0-85.333-18.948-85.333-32s33.24-32,85.333-32s85.333,18.948,85.333,32
	S180.094,85.333,128,85.333z"/>
<path style="opacity:0.2;fill:#FFFFFF;enable-background:new    ;" d="M64,64c0-13.052,33.24-32,85.333-32
	c22.096,0,40.518,3.5,54.733,8.422C190.88,30.477,164.146,21.333,128,21.333c-52.094,0-85.333,18.948-85.333,32
	c0,7.516,11.303,16.896,30.6,23.578C67.449,72.523,64,67.996,64,64z"/>
<g>
	<path style="fill:#303C42;" d="M96,42.667H85.333c-5.896,0-10.667,4.771-10.667,10.667S79.438,64,85.333,64H96
		c5.896,0,10.667-4.771,10.667-10.667S101.896,42.667,96,42.667z"/>
	<path style="fill:#303C42;" d="M170.667,42.667H160c-5.896,0-10.667,4.771-10.667,10.667S154.104,64,160,64h10.667
		c5.896,0,10.667-4.771,10.667-10.667S176.563,42.667,170.667,42.667z"/>
	<path style="fill:#303C42;" d="M384,320c-60.813,0-106.667,22.927-106.667,53.333v85.333C277.333,489.073,323.188,512,384,512
		s106.667-22.927,106.667-53.333v-85.333C490.667,342.927,444.813,320,384,320z"/>
</g>
<path style="fill:#5E6367;" d="M384,341.333c52.094,0,85.333,18.948,85.333,32s-33.24,32-85.333,32s-85.333-18.948-85.333-32
	S331.906,341.333,384,341.333z"/>
<path style="opacity:0.2;fill:#FFFFFF;enable-background:new    ;" d="M320,384c0-13.052,33.24-32,85.333-32
	c22.096,0,40.518,3.5,54.733,8.422c-13.186-9.945-39.921-19.089-76.066-19.089c-52.094,0-85.333,18.948-85.333,32
	c0,7.516,11.303,16.896,30.6,23.578C323.449,392.523,320,387.996,320,384z"/>
<path style="fill:#5E6367;" d="M384,490.667c-52.094,0-85.333-18.948-85.333-32v-10.217c19.122,12.777,49.473,20.884,85.333,20.884
	s66.211-8.107,85.333-20.884v10.217C469.333,471.719,436.094,490.667,384,490.667z"/>
<radialGradient id="SVGID_2_" cx="-30.9531" cy="628.2764" r="5.567" gradientTransform="matrix(21.3333 0 0 -21.3333 996.3334 13791.667)" gradientUnits="userSpaceOnUse">
	<stop  offset="0.407" style="stop-color:#65C5B4"/>
	<stop  offset="1" style="stop-color:#00A8D5"/>
</radialGradient>
<path style="fill:url(#SVGID_2_);" d="M384,448c-52.094,0-85.333-18.948-85.333-32v-10.217
	c19.122,12.777,49.473,20.884,85.333,20.884s66.211-8.107,85.333-20.884V416C469.333,429.052,436.094,448,384,448z"/>
<g>
	<path style="fill:#303C42;" d="M341.333,384H352c5.896,0,10.667-4.771,10.667-10.667s-4.771-10.667-10.667-10.667h-10.667
		c-5.896,0-10.667,4.771-10.667,10.667S335.438,384,341.333,384z"/>
	<path style="fill:#303C42;" d="M416,384h10.667c5.896,0,10.667-4.771,10.667-10.667s-4.771-10.667-10.667-10.667H416
		c-5.896,0-10.667,4.771-10.667,10.667S410.104,384,416,384z"/>
</g>
<linearGradient id="SVGID_3_" gradientUnits="userSpaceOnUse" x1="-48.5693" y1="638.1523" x2="-22.9801" y2="626.2203" gradientTransform="matrix(21.3333 0 0 -21.3333 996.3334 13791.667)">
	<stop  offset="0" style="stop-color:#FFFFFF;stop-opacity:0.2"/>
	<stop  offset="1" style="stop-color:#FFFFFF;stop-opacity:0"/>
</linearGradient>
<path style="fill:url(#SVGID_3_);" d="M128,0C67.188,0,21.333,22.927,21.333,53.333v405.333C21.333,489.073,67.188,512,128,512
	s106.667-22.927,106.667-53.333V53.333C234.667,22.927,188.813,0,128,0z M384,320c-60.813,0-106.667,22.927-106.667,53.333v85.333
	C277.333,489.073,323.188,512,384,512s106.667-22.927,106.667-53.333v-85.333C490.667,342.927,444.813,320,384,320z"/>
<g>
</g>
<g>
</g>
<g>
</g>
<g>
</g>
<g>
</g>
<g>
</g>
<g>
</g>
<g>
</g>
<g>
</g>
<g>
</g>
<g>
</g>
<g>
</g>
<g>
</g>
<g>
</g>
<g>
</g>
</svg>
