<?xml version="1.0" encoding="iso-8859-1"?>
<!-- Generator: Adobe Illustrator 19.0.0, SVG Export Plug-In . SVG Version: 6.00 Build 0)  -->
<svg version="1.1" id="Capa_1" xmlns="http://www.w3.org/2000/svg" xmlns:xlink="http://www.w3.org/1999/xlink" x="0px" y="0px"
	 viewBox="0 0 511.998 511.998" style="enable-background:new 0 0 511.998 511.998;" xml:space="preserve">
<path style="fill:#34495E;" d="M503.916,397.66c0,16.188-13.122,29.311-29.309,29.311H37.393c-16.188,0-29.309-13.124-29.309-29.311
	V114.336c0-16.188,13.122-29.31,29.309-29.31h437.212c16.188,0,29.309,13.123,29.309,29.31v283.325L503.916,397.66L503.916,397.66z"
	/>
<g>
	<path style="fill:#202121;" d="M357.609,237.605c-0.1,0-0.202,0.005-0.303,0.015c-6.753,0.636-21.574,2.688-28.871,8.745
		c-9.624,7.988-13.516,34.82,7.368,34.82c3.258,0,6.101-0.331,8.591-0.885c9.618-2.136,16.403-10.776,16.403-20.631v-18.87
		C360.796,239.021,359.35,237.605,357.609,237.605z M344.628,259.668c0,2.327-1.574,4.365-3.741,4.847
		c-1.227,0.273-2.596,0.434-4.088,0.484c0.125-2.132,1.025-5.095,2.065-6.276c0.857-0.656,2.803-1.555,5.765-2.437L344.628,259.668
		L344.628,259.668z"/>
	<path style="fill:#202121;" d="M461.827,307.017c-3.571-5.519-10.879-12.102-25.396-12.103c-4.937,0-10.155,0.776-15.107,1.919
		c5.155-7.572,5.17-17.801-0.449-25.419c-0.988-1.336-2.224-3.048-3.684-5.109c-1.27-1.799-1.637-3.109-1.731-3.545v-64.319
		c0-4.266-0.882-19.26-12.235-33.056c-8.576-10.42-25.634-22.841-58.206-22.841c-21.533,0-40,7.075-53.404,20.457
		c-11.099,11.082-16.08,23.842-18.062,30.462c-1.616,5.396-0.835,11.236,2.142,16.02c2.878,4.624,7.546,7.845,12.875,8.907
		c-15.31,13.304-23.201,33.106-23.201,51.121c0,14.105,6.364,28.498,17.46,39.491c11.879,11.77,27.785,18.251,44.785,18.251
		c17.045,0,29.671-6.222,38.294-12.865c1.416,1.388,2.972,2.808,4.657,4.249c3.952,3.392,9.025,5.271,14.265,5.271
		c1.405,0,2.792-0.134,4.148-0.391c0.031,0.433,0.063,0.866,0.125,1.297c-17.05,5.008-36.438,7.733-55.625,7.733
		c-19.922,0-45.159-9.942-71.061-27.996l-0.185-0.128c-5.052-3.526-10.249-5.317-15.437-5.317c-9.622,0-16.121,6.058-18.763,11.246
		c-1.76,3.47-6.011,15.249,6.687,30.852c5.406,6.652,18.361,17.357,35.104,26.262c14.992,7.973,38.703,17.479,66.525,17.479
		c40.2,0,58.785-8.526,77.286-18.827c1.096-0.611,2.184-1.242,3.262-1.888c1.531,1.703,3.378,3.181,5.527,4.345
		c2.633,1.426,5.632,2.181,8.673,2.181c14.863,0,25.789-17.965,28.782-23.471C468.008,332.334,468.718,317.659,461.827,307.017z
		 M430.883,324.775c0.653,0.083,1.151,0.368,1.45,0.928c0.011,0.022,0.016,0.046,0.027,0.068c-0.028-0.026-0.052-0.057-0.081-0.083
		C431.848,325.307,431.383,325.01,430.883,324.775z M384.831,307.738c-1.337,0-2.672-0.459-3.754-1.387
		c-2.339-2.001-5.223-4.674-7.383-7.352c-2.018-2.495-3.58-4.76-4.674-6.471c-0.468-0.725-1.23-1.091-1.994-1.091
		c-0.71,0-1.422,0.316-1.898,0.953c-4.426,5.974-16.358,18.694-37.515,18.694c-27.649,0-46.077-22.325-46.077-41.572
		c0-19.254,12.287-43.835,38.911-49.362c13.562-2.815,23.667-3.507,30.322-3.507c2.513,0,4.535,0.099,6.063,0.219
		c0.088,0.008,0.176,0.011,0.262,0.011c1.809,0,3.286-1.471,3.286-3.308v-14.914c0,0-0.612-12.9-16.39-12.907
		c-12.526,0-20.537,13.584-23.295,19.162c-0.595,1.209-1.823,1.946-3.138,1.946c-0.194,0-0.39-0.017-0.587-0.05l-25.134-4.247
		c-2.082-0.349-3.4-2.428-2.794-4.453c3.164-10.568,15.501-39.388,55.977-39.388c49.561,0,54.273,31.949,54.273,39.728v64.721
		c0,0-0.208,5.527,4.709,12.493c1.576,2.223,2.852,3.99,3.862,5.357c1.739,2.358,1.448,5.636-0.676,7.661l-18.329,17.461
		C387.733,307.197,386.282,307.738,384.831,307.738z M336.349,368.773c-45.527,0-81.93-28.968-89.089-37.778
		c-7.169-8.81-4.819-13.31-4.819-13.31s1.23-2.413,4.355-2.413c1.563,0,3.6,0.604,6.194,2.413
		c7.78,5.421,44.239,31.027,80.49,31.027c30.749,0,53.834-6.207,65.246-9.941c3.074,1.755,7.214,3.082,12.731,3.082
		c0.824,0,1.678-0.029,2.557-0.087c-0.772,1.867-1.456,3.976-1.812,6.314c-2.058,1.356-4.208,2.671-6.43,3.908
		C389.59,360.997,373.82,368.773,336.349,368.773z M431.098,354.584c-0.15,0-0.289-0.02-0.427-0.047
		c2.422-1.989,4.7-4.023,6.743-6.073c3.491-3.503,6.191-6.903,8.025-10.106c5.384-9.407,3.043-16.725,1.168-20.248
		c-1.509-2.827-3.655-5.104-6.223-6.729c3.405,0.541,6.224,1.88,7.871,4.424C456.733,328.897,437.815,354.584,431.098,354.584z"/>
</g>
<g style="opacity:0.15;">
	<path style="fill:#202121;" d="M28.922,397.66V114.336c0-16.188,13.124-29.31,29.311-29.31h-20.84
		C21.206,85.024,8.084,98.148,8.084,114.335v283.324c0,16.188,13.122,29.311,29.309,29.311h20.84
		C42.047,426.971,28.922,413.847,28.922,397.66z"/>
</g>
<g>
	<path style="fill:#202121;" d="M474.607,435.056H37.393C16.775,435.056,0,418.28,0,397.66V114.336
		c0-20.62,16.775-37.394,37.393-37.394h437.212c20.619,0,37.393,16.775,37.393,37.394v10.979c0,4.466-3.62,8.084-8.084,8.084
		c-4.466,0-8.084-3.618-8.084-8.084v-10.979c0-11.704-9.522-21.226-21.225-21.226H37.393c-11.703-0.001-21.225,9.521-21.225,21.225
		v283.324c0,11.705,9.522,21.227,21.225,21.227h437.212c11.703,0,21.225-9.522,21.225-21.227V151.543
		c0-4.466,3.618-8.084,8.084-8.084c4.465,0,8.084,3.618,8.084,8.084V397.66C512,418.28,495.226,435.056,474.607,435.056z"/>
	<path style="fill:#202121;" d="M208.908,180.729H61.771c-4.466,0-8.084-3.618-8.084-8.084s3.618-8.084,8.084-8.084h147.137
		c4.466,0,8.084,3.618,8.084,8.084C216.992,177.109,213.372,180.729,208.908,180.729z"/>
	<path style="fill:#202121;" d="M208.908,214.442H61.771c-4.466,0-8.084-3.618-8.084-8.084s3.618-8.084,8.084-8.084h147.137
		c4.466,0,8.084,3.618,8.084,8.084C216.992,210.823,213.372,214.442,208.908,214.442z"/>
</g>
<path style="fill:#EB7C0A;" d="M242.441,317.685c0,0-2.351,4.5,4.819,13.31c7.16,8.81,43.562,37.778,89.089,37.778
	c37.471,0,53.242-7.776,69.422-16.784c16.178-9.014,28.811-22.057,26.563-26.286c-2.255-4.225-15.226,6.499-28.623,11.349
	c-8.374,3.032-33.981,11.66-70.231,11.66s-72.709-25.607-80.49-31.027C245.207,312.253,242.441,317.685,242.441,317.685z"/>
<path style="fill:#E7E8E3;" d="M356.834,216.86c-5.576-0.439-17.702-0.591-36.385,3.289c-26.623,5.527-38.911,30.108-38.911,49.362
	c0,19.247,18.428,41.572,46.077,41.572c21.157,0,33.088-12.72,37.515-18.694c0.988-1.322,2.99-1.261,3.891,0.138
	c1.094,1.711,2.656,3.975,4.674,6.471c2.159,2.679,5.043,5.352,7.383,7.352c2.258,1.938,5.62,1.826,7.782-0.218l18.329-17.461
	c2.123-2.024,2.414-5.303,0.676-7.661c-1.011-1.367-2.286-3.133-3.862-5.357c-4.918-6.965-4.709-12.493-4.709-12.493v-64.721
	c0-7.78-4.713-39.728-54.273-39.728c-40.476,0-52.814,28.821-55.977,39.388c-0.607,2.024,0.711,4.104,2.794,4.453l25.134,4.248
	c1.524,0.257,3.042-0.508,3.725-1.896c2.758-5.579,10.769-19.162,23.295-19.162c15.778,0.006,16.39,12.907,16.39,12.907v14.914
	C360.382,215.487,358.759,217.01,356.834,216.86z M360.796,240.797v18.871c0,9.855-6.785,18.493-16.403,20.631
	c-2.489,0.555-5.331,0.885-8.591,0.885c-20.884,0-16.993-26.832-7.368-34.82c7.298-6.057,22.119-8.109,28.871-8.745
	C359.179,237.443,360.796,238.919,360.796,240.797z"/>
<path style="fill:#EB7C0A;" d="M430.127,354.356c5.579,3.022,27.059-24.757,18.128-38.552c-7.427-11.475-38.557,1.38-40.86,2.914
	c-2.305,1.54-2.305,3.378-2.305,3.378s-0.609,4.612,9.522,3.378c10.14-1.226,14.596-2.499,17.667,0.215
	c3.07,2.708,1.996,8.238,0,14.535C430.284,346.518,425.353,351.77,430.127,354.356z"/>
<g>
</g>
<g>
</g>
<g>
</g>
<g>
</g>
<g>
</g>
<g>
</g>
<g>
</g>
<g>
</g>
<g>
</g>
<g>
</g>
<g>
</g>
<g>
</g>
<g>
</g>
<g>
</g>
<g>
</g>
</svg>
