<svg id="Layer_5" enable-background="new 0 0 64 64" height="512" viewBox="0 0 64 64" width="512" xmlns="http://www.w3.org/2000/svg" xmlns:xlink="http://www.w3.org/1999/xlink"><linearGradient id="SVGID_1_" gradientUnits="userSpaceOnUse" x1="32" x2="32" y1="63" y2="1"><stop offset="0" stop-color="#9f2fff"/><stop offset="1" stop-color="#0bb1d3"/></linearGradient><path d="m58 1h-20c-2.757 0-5 2.243-5 5v16c0 2.757 2.243 5 5 5h7v16.056c0 .455-.105.91-.305 1.318l-.839-4.192c-.6-3.002-3.258-5.182-6.321-5.182-1.398 0-2.535 1.138-2.535 2.535 0 .502.147.988.426 1.406l1.029 1.544c.381.571.627 1.233.712 1.914l.708 5.671c.108.862.44 1.685.961 2.379l2.164 2.884v1.667h-2v8h24v-8h-2v-1.764l1.472-2.944c.345-.69.528-1.464.528-2.236v-12.056c0-1.654-1.346-3-3-3-.395 0-.77.081-1.116.22-.345-1.275-1.501-2.22-2.884-2.22-.395 0-.77.081-1.116.22-.345-1.275-1.501-2.22-2.884-2.22-.352 0-.686.072-1 .184v-2.184h7c2.757 0 5-2.243 5-5v-16c0-2.757-2.243-5-5-5zm-12.177 14.237.94.94c.53.531 1.236.823 1.987.823h.132c1.07 0 2.033-.595 2.512-1.553.138-.276.416-.447.724-.447h.132c.216 0 .419.084.572.237l1.764 1.763c.263.263.414.628.414 1s-.151.737-.414 1l-1.392 1.392c-.613.613-1.621.777-2.396.389l-.086-.043c-.478-1.023-1.51-1.738-2.712-1.738-.114 0-.222.021-.332.034-2.88-1.944-5.128-4.645-6.5-7.848-.111-.259-.168-.535-.168-.912 0-.546.222-1.082.608-1.468l1.392-1.392c.526-.526 1.474-.526 2 0l1.763 1.763c.153.153.237.356.237.573v.132c0 .309-.171.586-.447.724-.958.479-1.553 1.442-1.553 2.512v.132c0 .751.292 1.457.823 1.987zm15.177 45.763h-20v-4h20zm-9-30c.551 0 1 .449 1 1v2 6h2v-6c0-.552.449-1 1-1s1 .448 1 1v2 4h2v-4c0-.552.449-1 1-1s1 .448 1 1v12.056c0 .463-.109.928-.317 1.342l-1.683 3.366v2.236h-16v-2.333l-2.563-3.417c-.312-.417-.512-.911-.577-1.428l-.708-5.671c-.124-.988-.481-1.948-1.033-2.775l-1.029-1.544c-.059-.088-.09-.19-.09-.297 0-.295.24-.535.535-.535 2.112 0 3.946 1.503 4.36 3.574l1.285 6.426h2.438l.854-1.708c.345-.69.528-1.464.528-2.236v-21.056c0-.551.449-1 1-1s1 .449 1 1v10 8h2v-8c0-.551.449-1 1-1zm9-9c0 1.654-1.346 3-3 3h-7v-2.085c.24.044.482.085.726.085 1.073 0 2.123-.435 2.882-1.194l1.392-1.392c.645-.645 1-1.502 1-2.414s-.355-1.77-1-2.414l-1.763-1.763c-.53-.531-1.236-.823-1.987-.823h-.132c-1.07 0-2.033.595-2.512 1.553-.138.276-.416.447-.724.447h-.132c-.216 0-.419-.084-.572-.237l-.94-.94c-.154-.153-.238-.356-.238-.573v-.132c0-.309.171-.586.447-.724.958-.479 1.553-1.442 1.553-2.512v-.132c0-.75-.292-1.456-.823-1.986l-1.763-1.764c-1.289-1.29-3.539-1.29-4.828 0l-1.392 1.392c-.759.759-1.194 1.809-1.194 2.977 0 .555.111 1.095.33 1.605 1.388 3.238 3.576 6.02 6.371 8.122-.431.52-.701 1.178-.701 1.904v3h-7c-1.654 0-3-1.346-3-3v-16c0-1.654 1.346-3 3-3h20c1.654 0 3 1.346 3 3zm-55 37h20c2.757 0 5-2.243 5-5v-16c0-2.757-2.243-5-5-5h-20c-2.757 0-5 2.243-5 5v16c0 2.757 2.243 5 5 5zm-3-21c0-1.654 1.346-3 3-3h20c1.654 0 3 1.346 3 3v16c0 1.654-1.346 3-3 3h-20c-1.654 0-3-1.346-3-3zm3-11h20c2.757 0 5-2.243 5-5v-16c0-2.757-2.243-5-5-5h-20c-2.757 0-5 2.243-5 5v16c0 2.757 2.243 5 5 5zm-3-21c0-1.654 1.346-3 3-3h20c1.654 0 3 1.346 3 3v16c0 1.654-1.346 3-3 3h-20c-1.654 0-3-1.346-3-3zm13 17v-2c-3.309 0-6-2.691-6-6v-2c0-3.309 2.691-6 6-6s6 2.691 6 6v5c0 .551-.449 1-1 1s-1-.449-1-1v-3-1-1c0-2.206-1.794-4-4-4s-4 1.794-4 4v2c0 2.206 1.794 4 4 4 .749 0 1.442-.22 2.042-.58.207 1.455 1.448 2.58 2.958 2.58 1.654 0 3-1.346 3-3v-5c0-4.411-3.589-8-8-8s-8 3.589-8 8v2c0 4.411 3.589 8 8 8zm0-6c-1.103 0-2-.897-2-2v-2c0-1.103.897-2 2-2s2 .897 2 2v1 1c0 1.103-.897 2-2 2zm11 22h-22v14h22zm-8.293 6.879c-1.446 1.445-3.968 1.445-5.414 0l-4.879-4.879h15.172zm-7.538.704-4.169 3.336v-7.505zm1.497 1.365c.971.681 2.123 1.052 3.334 1.052s2.363-.371 3.334-1.052l3.815 3.052h-14.298zm8.164-1.364 4.17-4.17v7.505z" fill="url(#SVGID_1_)"/></svg>