<svg height="512pt" viewBox="-28 0 512 512" width="512pt" xmlns="http://www.w3.org/2000/svg"><path d="m383.316406 0-82.492187 474.085938-6.601563 37.914062h-271.628906c-14.023438 0-24.65625-12.644531-22.253906-26.460938l84.5-485.539062zm0 0" fill="#ffc14f"/><path d="m383.316406 0-82.492187 474.085938h-216.054688c-14.023437 0-24.65625-12.644532-22.253906-26.460938l77.898437-447.625zm0 0" fill="#ffcd71"/><path d="m434.027344 511.265625-81.804688.433594-58 .300781 89.09375-512 26.851563 178.710938 46.082031 306.609374c2.042969 13.609376-8.457031 25.871094-22.222656 25.945313zm0 0" fill="#f29500"/><path d="m434.027344 511.265625-81.804688.433594 57.945313-332.988281 46.082031 306.609374c2.042969 13.609376-8.457031 25.871094-22.222656 25.945313zm0 0" fill="#ffa90b"/><path d="m185.90625 169.722656-12.210938 4.859375c-3.816406 1.667969-7.363281 1.816407-10.015624 1.34375-10.992188-1.960937-16.476563-15.0625-14.382813-26.8125 1.421875-7.960937 6.183594-14.933593 14.574219-18.128906l55.445312-21.402344c3.367188-1.351562 7.296875-1.433593 11.464844-.691406 12.128906 2.164063 24.867188 11.867187 22.839844 23.238281l-42.996094 241.070313c-2.164062 12.132812-18.027344 15.558593-32.808594 12.921875-14.785156-2.636719-28.484375-11.335938-26.320312-23.46875zm0 0" fill="#5a5f64"/></svg>