<svg height="511pt" viewBox="-32 1 511 511.99975" width="511pt" xmlns="http://www.w3.org/2000/svg"><path d="m160.097656 126.398438h-64.265625c-8.285156 0-15-6.714844-15-15v-18.828126c0-33.308593 12.972657-64.625 36.527344-88.175781 5.855469-5.859375 15.351563-5.859375 21.210937 0 5.859376 5.855469 5.859376 15.351563 0 21.210938-17.886718 17.890625-27.738281 41.671875-27.738281 66.964843v3.828126h49.265625c8.285156 0 15 6.71875 15 15 0 8.285156-6.714844 15-15 15zm0 0" fill="#393238"/><g fill="#272027"><path d="m352.898438 126.398438h-64.265626c-8.285156 0-15-6.714844-15-15 0-8.28125 6.714844-15 15-15h49.265626v-3.828126c0-25.292968-9.851563-49.074218-27.738282-66.964843-5.859375-5.855469-5.859375-15.355469 0-21.210938 5.855469-5.859375 15.355469-5.859375 21.210938 0 23.558594 23.550781 36.527344 54.867188 36.527344 88.175781v18.828126c0 8.285156-6.714844 15-15 15zm0 0"/><path d="m401.097656 481.875c-3.835937 0-7.675781-1.464844-10.605468-4.394531l-48.199219-48.199219c-2.8125-2.8125-4.394531-6.628906-4.394531-10.605469v-83.410156h-113.53125c-8.285157 0-15-6.714844-15-15 0-8.28125 6.714843-15 15-15h128.53125c8.285156 0 15 6.71875 15 15v92.195313l43.808593 43.808593c9.492188 9.488281 2.621094 25.605469-10.609375 25.605469zm0 0"/><path d="m224.378906 335.269531c-5 0-9.886718-2.5-12.734375-7.054687-4.390625-7.023438-2.253906-16.277344 4.769531-20.667969l128.535157-80.335937c5.921875-3.699219 13.617187-2.824219 18.558593 2.113281l43.804688 43.808593h25.921875c8.28125 0 15 6.714844 15 15 0 8.285157-6.71875 15-15 15h-32.132813c-3.980468 0-7.796874-1.578124-10.609374-4.394531l-39.761719-39.761719-118.414063 74.007813c-2.472656 1.546875-5.222656 2.285156-7.9375 2.285156zm0 0"/></g><path d="m37.027344 477.480469c-5.859375-5.855469-5.859375-15.355469 0-21.210938l43.804687-43.808593v-92.195313c0-8.285156 6.71875-15 15-15h128.535157c8.28125 0 15 6.714844 15 15s-6.71875 15-15 15h-113.535157v83.40625c0 3.980469-1.578125 7.796875-4.394531 10.609375l-48.199219 48.199219c-5.859375 5.859375-15.355469 5.855469-21.210937 0zm0 0" fill="#393238"/><path d="m224.351562 335.269531c-2.714843 0-5.464843-.738281-7.9375-2.285156l-118.414062-74.007813-39.761719 39.761719c-2.8125 2.816407-6.628906 4.394531-10.605469 4.394531h-32.132812c-8.285156 0-15-6.714843-15-15 0-8.28125 6.714844-15 15-15h25.917969l43.808593-43.804687c4.9375-4.941406 12.636719-5.816406 18.558594-2.113281l128.53125 80.332031c7.023438 4.390625 9.160156 13.644531 4.769532 20.667969-2.84375 4.554687-7.734376 7.054687-12.734376 7.054687zm0 0" fill="#393238"/><path d="m244.019531 248.253906c-4.597656-6.894531-2.734375-16.207031 4.160157-20.800781l96.398437-64.269531c2.464844-1.640625 5.359375-2.519532 8.320313-2.519532h48.199218c8.285156 0 15 6.714844 15 15 0 8.285157-6.714844 15-15 15h-43.65625l-92.621094 61.746094c-9.003906 6.007813-17.800781.34375-20.800781-4.15625zm0 0" fill="#272027"/><path d="m183.910156 252.414062-92.621094-61.746093h-43.65625c-8.285156 0-15-6.71875-15-15 0-8.285157 6.714844-15 15-15h48.199219c2.960938 0 5.855469.875 8.320313 2.519531l96.398437 64.265625c6.894531 4.59375 8.757813 13.910156 4.160157 20.800781-3.289063 4.933594-12.207032 9.886719-20.800782 4.160156zm0 0" fill="#393238"/><path d="m224.367188 321.332031c-25.992188 0-47.136719-21.144531-47.136719-47.132812v-52.21875c0-25.988281 21.144531-47.132813 47.136719-47.132813 25.988281 0 47.132812 21.144532 47.132812 47.132813v52.21875c0 25.988281-21.144531 47.132812-47.132812 47.132812zm0 0" fill="#4b4449"/><path d="m263.804688 196.207031c-8.417969-12.847656-22.949219-21.359375-39.4375-21.359375v146.480469c25.988281 0 47.128906-21.140625 47.128906-47.128906v-52.21875c0-9.511719-2.832032-18.359375-7.691406-25.773438zm0 0" fill="#393238"/><path d="m224.367188 512c-2.953126 0-5.902344-.871094-8.453126-2.605469l-31.664062-21.585937c-24.515625-16.722656-39.148438-44.414063-39.148438-74.082032v-13.125c0-43.78125 35.414063-79.269531 79.265626-79.269531 43.78125 0 79.265624 35.417969 79.265624 79.269531v13.125c0 29.667969-14.632812 57.359376-39.144531 74.078126l-31.671875 21.589843c-2.550781 1.734375-5.5 2.605469-8.449218 2.605469zm0 0" fill="#595155"/><path d="m224.367188 321.328125v190.671875c2.949218 0 5.898437-.871094 8.449218-2.609375l31.667969-21.582031c24.511719-16.71875 39.152344-44.417969 39.152344-74.078125v-13.128907c0-43.851562-35.492188-79.273437-79.269531-79.273437zm0 0" fill="#4b4449"/><path d="m224.367188 206.734375c-43.691407 0-79.269532-35.53125-79.269532-79.253906v-3.164063c0-12.769531 6.101563-24.980468 16.320313-32.660156l53.949219-40.457031c5.332031-4 12.667968-4 18 0l54.207031 40.65625c10.054687 7.542969 16.058593 19.546875 16.058593 32.117187v3.492188c0 43.707031-35.558593 79.269531-79.265624 79.269531zm0 0" fill="#595155"/><path d="m287.574219 91.859375-54.207031-40.660156c-2.660157-2-5.832032-3-9-3v158.53125c14.347656 0 27.820312-3.832031 39.4375-10.519531 23.78125-13.703126 39.832031-39.382813 39.832031-68.742188v-3.5c0-12.570312-6.011719-24.570312-16.0625-32.109375zm0 0" fill="#4b4449"/></svg>