<?xml version="1.0" encoding="iso-8859-1"?>
<!-- Generator: Adobe Illustrator 19.0.0, SVG Export Plug-In . SVG Version: 6.00 Build 0)  -->
<svg version="1.1" id="Layer_1" xmlns="http://www.w3.org/2000/svg" xmlns:xlink="http://www.w3.org/1999/xlink" x="0px" y="0px"
	 viewBox="0 0 512 512" style="enable-background:new 0 0 512 512;" xml:space="preserve">
<path style="fill:#FF9164;" d="M0,251.586l6.455-25.822c1.553-6.209,4.762-11.878,9.288-16.404l40.448-50.474
	c6.701-8.363,16.838-13.229,27.554-13.229h199.323c8.021,0,15.609,3.635,20.636,9.886l48.848,60.734L0,251.586z"/>
<path style="fill:#AFF078;" d="M283.07,145.657H83.746c-10.717,0-20.854,4.867-27.555,13.231l-40.444,50.476
	c-4.524,4.524-7.733,10.192-9.285,16.399l-6.457,25.824l132.415,70.62h370.755v-67.793c0-12.972-9.355-24.065-22.161-26.13
	c-44.694-7.208-128.46-12.006-128.46-12.006l-48.845-60.734C298.681,149.292,291.091,145.657,283.07,145.657z"/>
<g>
	<path style="fill:#96E178;" d="M283.072,145.657H83.828c-10.764,0-20.939,4.909-27.638,13.334l-38.53,48.459l281.927,8.827h52.965
		l-48.844-60.734C298.681,149.292,291.092,145.657,283.072,145.657z"/>
	<path style="fill:#96E178;" d="M503.173,263.587c0-7.843-5.122-14.711-12.642-16.94c-17.615-5.223-56.915-12.716-137.425-12.716
		H8.831c-4.875,0-8.827,3.951-8.827,8.827L0,295.724l167.728,17.655h335.445V263.587z"/>
</g>
<path style="fill:#8CCD73;" d="M503.173,304.551H89.244l-78.5-17.443c-4.715-1.035-9.474,1.935-10.535,6.702
	c-1.052,4.759,1.949,9.474,6.707,10.53l79.447,17.655c0.629,0.142,1.267,0.211,1.913,0.211h414.894c4.879,0,8.828-3.953,8.828-8.827
	C511.999,308.504,508.052,304.551,503.173,304.551z"/>
<circle style="fill:#EDEDEE;" cx="83.862" cy="317.79" r="40.46"/>
<path style="fill:#504B5A;" d="M83.867,366.344c-26.773,0-48.551-21.779-48.551-48.551s21.779-48.551,48.551-48.551
	s48.551,21.779,48.551,48.551C132.418,344.566,110.64,366.344,83.867,366.344z M83.867,286.896
	c-17.039,0-30.896,13.857-30.896,30.896s13.857,30.896,30.896,30.896s30.896-13.857,30.896-30.896S100.906,286.896,83.867,286.896z"
	/>
<circle style="fill:#DCDBDE;" cx="83.862" cy="317.79" r="17.655"/>
<g>
	<path style="fill:#8CCD73;" d="M344.278,286.896H150.073c-4.875,0-8.827-3.953-8.827-8.827l0,0c0-4.875,3.952-8.827,8.827-8.827
		h194.205c4.875,0,8.827,3.952,8.827,8.827l0,0C353.105,282.945,349.153,286.896,344.278,286.896z"/>
	<path style="fill:#8CCD73;" d="M503.173,286.896h-17.655c-4.875,0-8.827-3.953-8.827-8.827l0,0c0-4.875,3.953-8.827,8.827-8.827
		h17.655c4.875,0,8.827,3.952,8.827,8.827l0,0C512,282.945,508.048,286.896,503.173,286.896z"/>
</g>
<path style="fill:#FF6464;" d="M6.461,225.763l-2.044,8.169h22.065c4.875,0,8.827-3.952,8.827-8.827s-3.953-8.827-8.827-8.827
	H10.421C8.665,219.225,7.302,222.404,6.461,225.763z"/>
<circle style="fill:#EDEDEE;" cx="410.479" cy="317.79" r="40.46"/>
<path style="fill:#504B5A;" d="M410.484,366.344c-26.773,0-48.551-21.779-48.551-48.551s21.779-48.551,48.551-48.551
	s48.551,21.779,48.551,48.551C459.035,344.566,437.257,366.344,410.484,366.344z M410.484,286.896
	c-17.039,0-30.896,13.857-30.896,30.896s13.857,30.896,30.896,30.896s30.896-13.857,30.896-30.896S427.523,286.896,410.484,286.896z
	"/>
<circle style="fill:#DCDBDE;" cx="410.479" cy="317.79" r="17.655"/>
<path style="fill:#625D6B;" d="M302.767,209.5l-37.023-48.126c-3.342-4.344-8.512-6.89-13.994-6.89H123.966
	c-7.746,0-14.587,5.049-16.87,12.451l-9.428,30.569c-2.879,5.759,1.176,12.563,7.61,12.77l194.31,6.002h0.007
	C303.097,216.276,305.01,212.192,302.767,209.5z"/>
<path style="fill:#EDEDEE;" d="M503.173,254.413c0-4.184-1.065-8.114-2.817-11.654h-14.84c-4.875,0-8.827,3.952-8.827,8.827
	s3.953,8.827,8.827,8.827h17.657V254.413z"/>
<polygon style="fill:#504B5A;" points="185.383,212.75 203.038,213.295 199.21,154.484 181.555,154.484 "/>
<g>
	<path style="fill:#625D6B;" d="M302.992,154.653c-0.124-0.06-0.228-0.109-0.352-0.169h-14.146c-4.232,0-6.614,4.865-4.02,8.208
		l38.234,49.254c2.121,2.732,5.385,4.33,8.843,4.33h21.001L302.992,154.653z"/>
	<path style="fill:#625D6B;" d="M89.1,163.04c1.93-3.95-0.946-8.556-5.342-8.556H60.692c-1.593,1.391-3.162,2.824-4.502,4.506
		l-38.53,48.459l37.586,1.177c6.942,0.217,13.366-3.656,16.416-9.896L89.1,163.04z"/>
</g>
<g>
</g>
<g>
</g>
<g>
</g>
<g>
</g>
<g>
</g>
<g>
</g>
<g>
</g>
<g>
</g>
<g>
</g>
<g>
</g>
<g>
</g>
<g>
</g>
<g>
</g>
<g>
</g>
<g>
</g>
</svg>
