<svg height="480pt" viewBox="-48 0 480 480.31688" width="480pt" xmlns="http://www.w3.org/2000/svg"><path d="m264.175781 376.003906c0 96-61.921875 104-120 104-58.082031 0-120-8-120-104 0-86.960937 50.398438-216 120-216 69.597657 0 120 129.039063 120 216zm0 0" fill="#1a1a1a"/><path d="m96.175781 71.714844c-21.113281 9.652344-40.136719 23.335937-56 40.289062v-104zm0 0" fill="#333"/><path d="m248.175781 8.003906v101.277344c-15.957031-16.5625-34.976562-29.875-56-39.199219zm0 0" fill="#333"/><path d="m102.175781 66.722656-56-64c-2.199219-2.492187-5.710937-3.367187-8.824219-2.195312-3.109374 1.175781-5.171874 4.152344-5.175781 7.476562v111.839844c-.015625 3.753906 2.578125 7.011719 6.238281 7.839844.582032.09375 1.171876.144531 1.761719.160156 3.078125-.007812 5.875-1.78125 7.199219-4.5625 10.730469-20.761719 29.214844-36.453125 51.441406-43.679688 1.097656-.410156 2.105469-1.035156 2.957032-1.839843l.082031-.078125c2.988281-2.996094 3.128906-7.796875.320312-10.960938zm-54 27.199219v-64.640625l34.640625 39.601562c-13.070312 6.003907-24.839844 14.511719-34.640625 25.039063zm0 0"/><path d="m250.976562.484375c-3.117187-1.128906-6.605468-.242187-8.800781 2.238281l-56 64c-2.765625 3.222656-2.589843 8.027344.398438 11.039063.855469.804687 1.863281 1.429687 2.960937 1.839843 22.226563 7.226563 40.710938 22.917969 51.441406 43.679688 1.320313 2.78125 4.121094 4.554688 7.199219 4.5625.589844-.015625 1.175781-.066406 1.757813-.160156 3.664062-.828125 6.257812-4.085938 6.242187-7.839844v-111.839844c-.003906-3.34375-2.074219-6.335937-5.199219-7.519531zm-10.800781 93.4375c-9.800781-10.527344-21.570312-19.035156-34.640625-25.039063l34.640625-39.601562zm0 0"/><path d="m264.175781 155.84375c0 59.597656-53.839843 108.160156-120 108.160156-66.160156 0-120-48.5625-120-108.160156 0-57.839844 50.480469-99.839844 120-99.839844s120 42 120 99.839844zm0 0"/><path d="m112.175781 456.003906c.390625 8.285156-4.253906 15.992188-11.761719 19.519532-10.167968 3.871093-21.070312 5.429687-31.917968 4.558593-1.921875 0-18.640625-.078125-18.640625-.078125-19.519531.160156-34.960938.238282-43.679688-8.5625-4.058593-4.089844-6.2304685-9.683594-6-15.4375 0-14.722656 11.199219-28.242187 29.121094-35.121094 3.007813-1.207031 6.113281-2.167968 9.277344-2.878906 14.792969-3.375 30.246093-2.375 44.480469 2.878906 17.921874 6.878907 29.121093 20.398438 29.121093 35.121094zm0 0"/><path d="m200.175781 376.003906h64v56h-64zm0 0"/><path d="m24.175781 376.003906h64v56h-64zm0 0"/><path d="m288.175781 456.003906c.230469 5.753906-1.941406 11.347656-6 15.4375-8.71875 8.800782-24.160156 8.640625-43.679687 8.5625 0 0-16.722656.078125-18.640625.078125-10.847657.871094-21.75-.6875-31.921875-4.558593-7.507813-3.527344-12.148438-11.234376-11.757813-19.519532 0-14.722656 11.199219-28.242187 29.121094-35.121094 14.25-5.316406 29.753906-6.292968 44.558594-2.800781 3.1875.683594 6.320312 1.621094 9.359375 2.800781 17.761718 6.878907 28.960937 20.398438 28.960937 35.121094zm0 0"/><path d="m272.175781 416.003906h-16v-16h16c17.671875 0 32-14.328125 32-32v-96c0-22.09375 17.90625-40 40-40 22.089844 0 40 17.90625 40 40v24h-16v-24c0-13.257812-10.746093-24-24-24-13.253906 0-24 10.742188-24 24v96c-.027343 26.496094-21.5 47.972656-48 48zm0 0"/><path d="m174.574219 182.402344-24 16c-4 2.132812-8.800781 2.132812-12.800781 0l-24-16c-1.839844-1.199219-2.078126-2.839844-.71875-4.199219 2.019531-1.589844 4.558593-2.371094 7.121093-2.199219h48c2.5625-.171875 5.097657.609375 7.121094 2.199219 1.359375 1.359375 1.117187 3-.722656 4.199219zm0 0" fill="#333"/><g fill="#b3b3b3"><path d="m.175781 184.003906h80v16h-80zm0 0"/><path d="m12.929688 240.699219 71.996093-32.015625 6.5 14.621094-71.992187 32.011718zm0 0"/><path d="m208.175781 184.003906h80v16h-80zm0 0"/><path d="m196.929688 223.316406 6.5-14.621094 72 32-6.496094 14.621094zm0 0"/></g><path d="m136.175781 136.003906s-17.914062 24-40 24c-22.089843 0-40-24-40-24s17.910157-24 40-24c22.085938 0 40 24 40 24zm0 0" fill="#ffcc5c"/><path d="m232.175781 136.003906s-17.914062 24-40 24c-22.089843 0-40-24-40-24s17.910157-24 40-24c22.085938 0 40 24 40 24zm0 0" fill="#ffcc5c"/><path d="m192.175781 112.003906c4.914063 7.066406 7.691407 15.398438 8 24-.308593 8.601563-3.085937 16.933594-8 24-4.914062-7.066406-7.691406-15.398437-8-24 .308594-8.601562 3.085938-16.933594 8-24zm0 0"/><path d="m96.175781 112.003906c4.914063 7.066406 7.691407 15.398438 8 24-.308593 8.601563-3.085937 16.933594-8 24-4.914062-7.066406-7.691406-15.398437-8-24 .308594-8.601562 3.085938-16.933594 8-24zm0 0"/></svg>