<svg height="512pt" viewBox="-82 0 512 512" width="512pt" xmlns="http://www.w3.org/2000/svg"><path d="m27.445312 22.707031h289.21875v464.59375h-289.21875zm0 0" fill="#766e6e"/><path d="m251.535156 19.324219v400.410156c0 11.609375-9.40625 21.015625-21.011718 21.015625h-203.078126v43.167969h289.21875v-464.59375zm0 0" fill="#5b5555"/><g fill="#b9acac"><path d="m319.875 49.402344h-291.429688c-11.578124 0-20.960937-9.382813-20.960937-20.957032 0-11.574218 9.382813-20.960937 20.960937-20.960937h291.429688c11.574219 0 20.960938 9.386719 20.960938 20.960937 0 11.574219-9.386719 20.957032-20.960938 20.957032zm0 0"/><path d="m319.875 504.515625h-291.429688c-11.578124 0-20.960937-9.382813-20.960937-20.960937 0-11.574219 9.382813-20.957032 20.960937-20.957032h291.429688c11.574219 0 20.960938 9.382813 20.960938 20.957032 0 11.578124-9.386719 20.960937-20.960938 20.960937zm0 0"/><path d="m319.875 385.746094h-291.429688c-11.578124 0-20.960937-9.382813-20.960937-20.957032 0-11.574218 9.382813-20.960937 20.960937-20.960937h291.429688c11.574219 0 20.960938 9.386719 20.960938 20.960937 0 11.574219-9.386719 20.957032-20.960938 20.957032zm0 0"/><path d="m319.875 163.179688h-291.429688c-11.578124 0-20.960937-9.382813-20.960937-20.957032 0-11.574218 9.382813-20.960937 20.960937-20.960937h291.429688c11.574219 0 20.960938 9.386719 20.960938 20.960937 0 11.574219-9.386719 20.957032-20.960938 20.957032zm0 0"/></g><path d="m319.875 7.484375h-30.855469c0 11.574219-9.382812 20.960937-20.960937 20.960937h-260.574219c0 11.574219 9.382813 20.957032 20.960937 20.957032h291.429688c11.574219 0 20.960938-9.382813 20.960938-20.957032 0-11.578124-9.386719-20.960937-20.960938-20.960937zm0 0" fill="#9e9797"/><path d="m319.875 462.597656h-30.855469c0 11.574219-9.382812 20.957032-20.960937 20.957032h-260.574219c0 11.574218 9.382813 20.960937 20.960937 20.960937h291.429688c11.574219 0 20.960938-9.386719 20.960938-20.960937 0-11.574219-9.386719-20.957032-20.960938-20.957032zm0 0" fill="#9e9797"/><path d="m319.875 343.828125h-30.855469c0 11.574219-9.382812 20.957031-20.960937 20.957031h-260.574219c0 11.578125 9.382813 20.960938 20.960937 20.960938h291.429688c11.574219 0 20.960938-9.382813 20.960938-20.960938 0-11.574218-9.386719-20.957031-20.960938-20.957031zm0 0" fill="#9e9797"/><path d="m319.875 121.261719h-30.855469c0 11.578125-9.382812 20.960937-20.960937 20.960937h-260.574219c0 11.574219 9.382813 20.957032 20.960937 20.957032h291.429688c11.574219 0 20.960938-9.382813 20.960938-20.957032 0-11.574218-9.386719-20.960937-20.960938-20.960937zm0 0" fill="#9e9797"/><path d="m241.03125 253.671875c0 39.136719-31.726562 70.859375-70.863281 70.859375s-70.863281-31.722656-70.863281-70.859375 31.726562-70.863281 70.863281-70.863281 70.863281 31.726562 70.863281 70.863281zm0 0" fill="#ffd500"/><path d="m198.640625 269.285156c0 15.726563-12.746094 28.472656-28.472656 28.472656-15.726563 0-28.472657-12.746093-28.472657-28.472656 0-12.871094 19.078126-47.945312 26-60.25 1.085938-1.929687 3.859376-1.929687 4.945313 0 6.921875 12.304688 26 47.378906 26 60.25zm0 0" fill="#766e6e"/><path d="m172.640625 209.035156c-1.085937-1.929687-3.859375-1.929687-4.945313 0-.566406 1.007813-1.222656 2.183594-1.933593 3.46875 7.71875 15.015625 16.246093 33.539063 16.246093 42.144532 0 15.722656-12.746093 28.472656-28.472656 28.472656-3.152344 0-6.183594-.519532-9.019531-1.46875 4.601563 9.53125 14.359375 16.105468 25.652344 16.105468 15.726562 0 28.472656-12.746093 28.472656-28.472656 0-12.871094-19.078125-47.945312-26-60.25zm0 0" fill="#5b5555"/><path d="m170.167969 182.808594c-3.566407 0-7.066407.269531-10.492188.777344 34.160157 5.070312 60.371094 34.515624 60.371094 70.085937s-26.210937 65.011719-60.371094 70.082031c3.425781.507813 6.925781.777344 10.492188.777344 39.136719 0 70.863281-31.726562 70.863281-70.859375-.003906-39.136719-31.726562-70.863281-70.863281-70.863281zm0 0" fill="#fbc700"/><path d="m348.320312 142.222656c0-14.230468-10.503906-26.054687-24.167968-28.121094v-57.535156c13.660156-2.070312 24.167968-13.890625 24.167968-28.121094 0-15.683593-12.761718-28.445312-28.445312-28.445312h-291.429688c-15.683593 0-28.445312 12.761719-28.445312 28.445312 0 12.730469 8.40625 23.53125 19.960938 27.152344v59.472656c-11.554688 3.617188-19.960938 14.421876-19.960938 27.152344 0 12.730469 8.40625 23.535156 19.960938 27.152344v168.261719c-11.554688 3.617187-19.960938 14.421875-19.960938 27.152343 0 12.730469 8.40625 23.53125 19.960938 27.152344v64.460938c-11.554688 3.617187-19.960938 14.421875-19.960938 27.152344 0 15.683593 12.761719 28.445312 28.445312 28.445312h225.226563c4.132813 0 7.484375-3.351562 7.484375-7.484375s-3.351562-7.484375-7.484375-7.484375h-225.226563c-7.429687 0-13.476562-6.046875-13.476562-13.476562 0-7.429688 6.046875-13.472657 13.476562-13.472657h291.429688c7.429688 0 13.472656 6.042969 13.472656 13.472657 0 7.429687-6.042968 13.476562-13.472656 13.476562h-34.933594c-4.132812 0-7.484375 3.351562-7.484375 7.484375s3.351563 7.484375 7.484375 7.484375h34.933594c15.683594 0 28.445312-12.761719 28.445312-28.445312 0-14.230469-10.507812-26.050782-24.167968-28.121094v-62.523438c13.660156-2.070312 24.167968-13.890625 24.167968-28.121094 0-14.230468-10.507812-26.054687-24.167968-28.125v-166.320312c13.660156-2.070312 24.167968-13.890625 24.167968-28.121094zm-313.386718 194.121094v-165.675781h274.25v165.675781zm-19.960938-307.898438c0-7.429687 6.042969-13.476562 13.472656-13.476562h291.429688c7.429688 0 13.476562 6.046875 13.476562 13.476562 0 7.429688-6.046874 13.472657-13.476562 13.472657h-291.429688c-7.429687 0-13.472656-6.042969-13.472656-13.472657zm0 113.777344c0-7.429687 6.042969-13.476562 13.472656-13.476562h35.597657c4.132812 0 7.484375-3.347656 7.484375-7.484375 0-4.132813-3.351563-7.484375-7.484375-7.484375h-29.109375v-56.886719h274.25v56.886719h-214.535156c-4.132813 0-7.484376 3.351562-7.484376 7.484375 0 4.136719 3.351563 7.484375 7.484376 7.484375h225.226562c7.429688 0 13.472656 6.046875 13.472656 13.476562 0 7.429688-6.042968 13.472656-13.472656 13.472656h-291.429688c-7.429687 0-13.472656-6.042968-13.472656-13.472656zm294.207032 251.007813v61.878906h-274.246094v-61.878906zm24.167968-28.441407c0 7.429688-6.042968 13.472657-13.472656 13.472657h-291.429688c-7.429687 0-13.476562-6.042969-13.476562-13.472657 0-7.429687 6.046875-13.476562 13.476562-13.476562h291.429688c7.429688 0 13.472656 6.046875 13.472656 13.476562zm0 0"/><path d="m245.484375 232.03125c-1.136719-3.976562-5.289063-6.273438-9.257813-5.132812-3.972656 1.140624-6.273437 5.285156-5.132812 9.257812 1.625 5.664062 2.449219 11.558594 2.449219 17.515625 0 34.945313-28.429688 63.375-63.375 63.375-34.945313 0-63.378907-28.429687-63.378907-63.375s28.433594-63.375 63.378907-63.375c18.527343 0 36.078125 8.074219 48.144531 22.160156 2.691406 3.140625 7.417969 3.507813 10.554688.8125 3.140624-2.6875 3.503906-7.414062.816406-10.554687-14.917969-17.40625-36.609375-27.390625-59.515625-27.390625-43.203125 0-78.347657 35.144531-78.347657 78.347656 0 43.199219 35.144532 78.347656 78.347657 78.347656 43.199219 0 78.347656-35.148437 78.347656-78.347656 0-7.351563-1.019531-14.632813-3.03125-21.640625zm0 0"/><path d="m170.167969 200.101562c-3.722657 0-7.171875 2.015626-8.996094 5.261719-12.300781 21.859375-26.960937 50.691407-26.960937 63.921875 0 19.828125 16.128906 35.957032 35.957031 35.957032s35.960937-16.128907 35.960937-35.957032c0-13.230468-14.664062-42.0625-26.964844-63.917968-1.824218-3.25-5.273437-5.265626-8.996093-5.265626zm20.988281 69.183594c0 11.574219-9.414062 20.988282-20.988281 20.988282s-20.988281-9.414063-20.988281-20.988282c0-6.664062 8.105468-25.59375 20.988281-49.261718 12.882812 23.667968 20.988281 42.597656 20.988281 49.261718zm0 0"/></svg>