<?xml version="1.0" encoding="iso-8859-1"?>
<!-- Generator: Adobe Illustrator 19.0.0, SVG Export Plug-In . SVG Version: 6.00 Build 0)  -->
<svg version="1.1" id="Capa_1" xmlns="http://www.w3.org/2000/svg" xmlns:xlink="http://www.w3.org/1999/xlink" x="0px" y="0px"
	 viewBox="0 0 511.999 511.999" style="enable-background:new 0 0 511.999 511.999;" xml:space="preserve">
<linearGradient id="SVGID_1_" gradientUnits="userSpaceOnUse" x1="256.5966" y1="513.1121" x2="256.5966" y2="1.3391" gradientTransform="matrix(0.998 0 0 -0.998 -0.0957 512.7228)">
	<stop  offset="0" style="stop-color:#2AF598"/>
	<stop  offset="1" style="stop-color:#009EFD"/>
</linearGradient>
<path style="fill:url(#SVGID_1_);" d="M478.879,90.311c-21.018-22.68-48.594-35.73-77.147-38.947
	c-12.563-29.789-42.063-50.752-76.369-50.752c-33.059,0-62.927,19.688-76.09,50.159c-0.301,0.698-0.551,1.404-0.768,2.115
	c-6.075-0.906-12.24-1.372-18.456-1.372c-68.515,0-124.257,55.742-124.257,124.257c0,10.899,1.401,21.628,4.177,32.033L0,325.463
	v95.206h117.77V374.88h44.912v-45.91h29.753l26.893-29.402c3.562,0.305,7.144,0.459,10.722,0.459
	c29.191,0,57.159-10.158,79.453-28.723c3.824,3.105,7.815,5.986,11.98,8.611l-0.116,160.744l60.877,70.727l86.561-80.219
	l-31.124-33.584l33.308-30.868l-31.206-33.673l25.452-23.589l-0.114-37.033c1.819-1.591,3.523-3.185,5.203-4.758
	c0.614-0.574,1.238-1.158,1.878-1.753c24.343-22.561,38.446-53.251,39.706-86.416C513.169,146.328,501.439,114.655,478.879,90.311z
	 M325.363,40.535c12.476,0,23.721,5.355,31.569,13.881c-17.407,4.424-34.065,12.683-48.643,24.821
	c-3.295-2.673-6.724-5.179-10.266-7.497c-3.702-2.423-7.516-4.632-11.423-6.632C293.751,50.126,308.79,40.535,325.363,40.535z
	 M215.111,258.789l-10.82-1.932l-29.444,32.191H122.76v45.91H77.848v45.788H39.922v-39.531l115.718-123.812l-4.43-11.636
	c-3.646-9.574-5.494-19.667-5.494-29.998c0-46.503,37.833-84.335,84.335-84.335c16.465,0,32.41,4.741,46.112,13.708
	c2.015,1.318,3.961,2.747,5.861,4.236c-6.273,10.105-11.032,21.053-14.16,32.555c-3.459-4.95-9.095-8.292-15.595-8.538
	c-11.016-0.418-20.286,8.172-20.704,19.188c-0.419,11.016,8.172,20.286,19.188,20.705c4.822,0.184,9.309-1.359,12.866-4.076
	c-0.013,0.279-0.031,0.558-0.042,0.837c-0.973,25.596,5.798,50.299,19.306,71.433c-14.946,12.034-33.485,18.622-52.83,18.622
	C225.028,260.105,220.001,259.662,215.111,258.789z M472.014,177.977c-0.856,22.511-10.427,43.34-26.949,58.653
	c-0.69,0.64-1.362,1.269-2.023,1.887c-3.393,3.177-5.847,5.471-8.697,7.302l-9.211,5.913l0.124,40.339l-41.894,38.825l31.206,33.672
	l-33.308,30.868l31.124,33.584l-26.904,24.932l-24.184-28.097l0.122-169.989l-11.116-5.501c-9.182-4.544-17.398-10.69-24.42-18.268
	c-15.312-16.523-23.273-38.019-22.417-60.529s10.427-43.34,26.949-58.653c10.848-10.052,23.849-16.91,37.863-20.211v56.618
	c0,0.273,0.03,0.54,0.041,0.811c-0.009,0.153-0.035,0.301-0.041,0.455c-0.419,11.016,8.172,20.286,19.188,20.705
	c11.016,0.419,20.286-8.172,20.705-19.188c0.023-0.601,0.008-1.195-0.022-1.784c0.017-0.333,0.051-0.663,0.051-1V92.944
	c15.775,3.91,30.092,12.305,41.396,24.503C464.909,133.97,472.871,155.466,472.014,177.977z"/>
<g>
</g>
<g>
</g>
<g>
</g>
<g>
</g>
<g>
</g>
<g>
</g>
<g>
</g>
<g>
</g>
<g>
</g>
<g>
</g>
<g>
</g>
<g>
</g>
<g>
</g>
<g>
</g>
<g>
</g>
</svg>
