<?xml version="1.0" encoding="iso-8859-1"?>
<!-- Generator: Adobe Illustrator 21.0.0, SVG Export Plug-In . SVG Version: 6.00 Build 0)  -->
<svg xmlns="http://www.w3.org/2000/svg" xmlns:xlink="http://www.w3.org/1999/xlink" version="1.1" id="Capa_1" x="0px" y="0px" viewBox="0 0 510.67 510.67" style="enable-background:new 0 0 510.67 510.67;" xml:space="preserve" width="512" height="512">
<g>
	<path style="fill:#A58260;" d="M440.211,192.857H70.459c-18.156,0-32.928,14.771-32.928,32.928v91.492c0,4.143,3.357,7.5,7.5,7.5   h420.607c4.143,0,7.5-3.357,7.5-7.5v-91.492C473.139,207.629,458.367,192.857,440.211,192.857z"/>
	<path style="fill:#8C6B50;" d="M440.211,192.857h-35.155c18.156,0,32.928,14.771,32.928,32.928v91.492c0,4.143-3.357,7.5-7.5,7.5   h35.156c4.143,0,7.5-3.357,7.5-7.5v-91.492C473.139,207.629,458.367,192.857,440.211,192.857z"/>
	<path style="fill:#FFDF65;" d="M197.835,259.888h-78.926c-18.036,0-32.709,14.673-32.709,32.709v24.681c0,4.143,3.357,7.5,7.5,7.5   h129.343c4.143,0,7.5-3.357,7.5-7.5v-24.681C230.543,274.561,215.87,259.888,197.835,259.888z"/>
	<path style="fill:#FFDF65;" d="M391.761,259.888h-78.926c-18.035,0-32.708,14.673-32.708,32.709v24.681c0,4.143,3.357,7.5,7.5,7.5   H416.97c4.143,0,7.5-3.357,7.5-7.5v-24.681C424.47,274.561,409.797,259.888,391.761,259.888z"/>
	<path style="fill:#FFCD2C;" d="M197.835,259.888h-33.604c18.035,0,32.708,14.673,32.708,32.709v24.681c0,4.143-3.357,7.5-7.5,7.5   h33.604c4.143,0,7.5-3.357,7.5-7.5v-24.681C230.543,274.561,215.87,259.888,197.835,259.888z"/>
	<path style="fill:#FFCD2C;" d="M391.761,259.888h-33.604c18.036,0,32.709,14.673,32.709,32.709v24.681c0,4.143-3.357,7.5-7.5,7.5   h33.604c4.143,0,7.5-3.357,7.5-7.5v-24.681C424.47,274.561,409.797,259.888,391.761,259.888z"/>
	<path style="fill:#6E563D;" d="M503.17,364.038H7.5c-4.142,0-7.5,3.357-7.5,7.5v93.191c0,4.143,3.358,7.5,7.5,7.5h495.67   c4.142,0,7.5-3.357,7.5-7.5v-93.191C510.67,367.396,507.313,364.038,503.17,364.038z"/>
	<path style="fill:#604B35;" d="M503.17,364.038h-27.001v7.5v93.191c0,4.143-3.357,7.5-7.5,7.5h34.501c4.142,0,7.5-3.357,7.5-7.5   v-93.191C510.67,367.396,507.313,364.038,503.17,364.038z"/>
	<path style="fill:#FFBB64;" d="M468.482,309.777H42.188C18.926,309.777,0,328.703,0,351.966v19.572c0,4.143,3.358,7.5,7.5,7.5   h495.67c4.142,0,7.5-3.357,7.5-7.5v-19.572C510.67,328.703,491.744,309.777,468.482,309.777z"/>
	<path style="fill:#FFAD47;" d="M468.482,309.777h-34.501c23.263,0,42.189,18.926,42.189,42.189v19.572v7.5h27.001   c4.142,0,7.5-3.357,7.5-7.5v-19.572C510.67,328.703,491.744,309.777,468.482,309.777z"/>
	<path style="fill:#8CC7EC;" d="M235.581,168.693h-40.166c-2.975,0-5.667-1.758-6.865-4.48c-1.197-2.723-0.673-5.895,1.336-8.088   l28.647-31.255h-19.344c-4.143,0-7.5-3.357-7.5-7.5c0-4.143,3.357-7.5,7.5-7.5h36.392c2.975,0,5.667,1.758,6.865,4.479   c1.197,2.723,0.673,5.896-1.336,8.088l-28.647,31.255h23.118c4.143,0,7.5,3.357,7.5,7.5   C243.081,165.336,239.724,168.693,235.581,168.693z"/>
	<path style="fill:#8CC7EC;" d="M347.267,124.06h-64.725c-2.975,0-5.667-1.758-6.865-4.479c-1.197-2.723-0.674-5.896,1.336-8.088   l53.206-58.052h-43.888c-4.143,0-7.5-3.357-7.5-7.5c0-4.143,3.357-7.5,7.5-7.5h60.936c2.975,0,5.667,1.758,6.865,4.479   c1.197,2.723,0.674,5.896-1.336,8.088L299.59,109.06h47.677c4.143,0,7.5,3.357,7.5,7.5S351.409,124.06,347.267,124.06z"/>
</g>















</svg>
