<svg id="Layer_35" enable-background="new 0 0 64 64" height="512" viewBox="0 0 64 64" width="512" xmlns="http://www.w3.org/2000/svg" xmlns:xlink="http://www.w3.org/1999/xlink"><linearGradient id="SVGID_1_" gradientUnits="userSpaceOnUse" x1="32" x2="32" y1="63" y2="1"><stop offset="0" stop-color="#9f2fff"/><stop offset="1" stop-color="#0bb1d3"/></linearGradient><path d="m40 45v-21c0-2.324-1.594-4.282-3.745-4.841l3.159-3.159-1-1 6-6h15.586v-8h-16.343c-1.336 0-2.592.521-3.536 1.465l-7.121 7.121-1-1-10.414 10.414h-2.586c-2.757 0-5 2.243-5 5v1.153l-2.601.433c-1.9.317-3.604 1.419-4.673 3.022l-.261.392h-5.465v18h5.586c1.316 1.29 3.054 2 4.899 2h2.515v14h10v-7c0-1.654 1.346-3 3-3h5c4.411 0 8-3.589 8-8zm1.535-41.121c.567-.567 1.32-.879 2.122-.879h14.343v4h-13.586c-.526 0-1.042.214-1.414.586l-6 6-2.586-2.586zm-33.586 41.656-.535-.535h-4.414v-14h4.535l.855-1.282c.764-1.146 1.98-1.933 3.338-2.159l2.272-.379v.835c0 1.337.521 2.594 1.467 3.538.944.943 2.198 1.462 3.532 1.462h.007l9.995-.013h.002c.266 0 .516.104.704.292s.293.44.293.707c0 .551-.448.999-.999.999h-7.001-3v2h3c.552 0 1 .448 1 1s-.448 1-1 1h-3v2h3c.552 0 1 .448 1 1s-.448 1-1 1h-3v2h3c.552 0 1 .448 1 1s-.448 1-1 1h-3-7.515c-1.336 0-2.591-.521-3.536-1.465zm16.271-1.535c.48-.532.78-1.229.78-2s-.301-1.468-.78-2c.48-.532.78-1.229.78-2 0-.352-.072-.686-.184-1h4.185c1.653 0 2.999-1.346 2.999-2.999 0-.348-.069-.683-.182-1.001h1.182c.552 0 1 .448 1 1v10c0 1.654-1.346 3-3 3h-6.184c.112-.314.184-.648.184-1 0-.771-.301-1.468-.78-2zm-2.22 12v5h-6v-12h3 3 9c2.757 0 5-2.243 5-5v-10c0-1.654-1.346-3-3-3h-4v.003c-.001 0-.001 0-.002 0l-9.994.013c-.002 0-.003 0-.005 0-.8 0-1.553-.312-2.119-.877-.568-.568-.88-1.322-.88-2.123v-4.016c0-1.654 1.346-3 3-3h3.414l9.586-9.586 4.586 4.586-2.586 2.586v2.414h1c1.654 0 3 1.346 3 3v21c0 3.309-2.691 6-6 6h-5c-2.757 0-5 2.243-5 5zm37-44.235-3.578 7.155c-.276.553-.422 1.171-.422 1.788v.292c0 2.206 1.794 4 4 4s4-1.794 4-4v-.292c0-.617-.146-1.235-.422-1.789zm2 9.235c0 1.103-.897 2-2 2s-2-.897-2-2v-.292c0-.309.073-.618.211-.895l1.789-3.578 1.789 3.577c.138.278.211.587.211.896zm-2 6.765-3.578 7.155c-.276.553-.422 1.171-.422 1.788v.292c0 2.206 1.794 4 4 4s4-1.794 4-4v-.292c0-.617-.146-1.235-.422-1.789zm2 9.235c0 1.103-.897 2-2 2s-2-.897-2-2v-.292c0-.309.073-.618.211-.895l1.789-3.578 1.789 3.577c.138.278.211.587.211.896zm-1 12h-15c-1.654 0-3 1.346-3 3s1.346 3 3 3h1c.552 0 1 .448 1 1s-.448 1-1 1h-15c-1.654 0-3 1.346-3 3s1.346 3 3 3h27c1.654 0 3-1.346 3-3s-1.346-3-3-3h-4c-.552 0-1-.448-1-1s.448-1 1-1h6c1.654 0 3-1.346 3-3s-1.346-3-3-3zm0 4h-6c-1.654 0-3 1.346-3 3s1.346 3 3 3h4c.552 0 1 .448 1 1s-.448 1-1 1h-27c-.552 0-1-.448-1-1s.448-1 1-1h15c1.654 0 3-1.346 3-3s-1.346-3-3-3h-1c-.552 0-1-.448-1-1s.448-1 1-1h15c.552 0 1 .448 1 1s-.448 1-1 1zm-42-26h2v2h-2zm0-4h2v2h-2zm15 0h-8c-1.654 0-3 1.346-3 3s1.346 3 3 3h8c1.654 0 3-1.346 3-3s-1.346-3-3-3zm0 4h-8c-.552 0-1-.448-1-1s.448-1 1-1h8c.552 0 1 .448 1 1s-.448 1-1 1z" fill="url(#SVGID_1_)"/></svg>