<svg id="Filled_outline" height="512" viewBox="0 0 64 64" width="512" xmlns="http://www.w3.org/2000/svg" data-name="Filled outline"><path d="m20 3h4a2 2 0 0 1 2 2v2a0 0 0 0 1 0 0h-8a0 0 0 0 1 0 0v-2a2 2 0 0 1 2-2z" fill="#ccb164"/><path d="m53 59a2 2 0 0 1 -2 2h-38a2 2 0 0 1 -2-2v-50a2 2 0 0 1 2-2h38a2 2 0 0 1 2 2z" fill="#e6c871"/><g fill="#ffde7e"><rect height="4" rx="2" width="48" x="8" y="17"/><rect height="4" rx="2" width="48" x="8" y="32"/><rect height="4" rx="2" width="48" x="8" y="47"/></g><path d="m57 34a3.00328 3.00328 0 0 0 -3-3v-9a3 3 0 0 0 0-6v-7a3.00328 3.00328 0 0 0 -3-3h-24v-1a3.00328 3.00328 0 0 0 -3-3h-4a3.00328 3.00328 0 0 0 -3 3v1h-4a3.00328 3.00328 0 0 0 -3 3v7a3 3 0 0 0 0 6v9a3 3 0 0 0 0 6v9a3 3 0 0 0 0 6v7a3.00328 3.00328 0 0 0 3 3h38a3.00328 3.00328 0 0 0 3-3v-7a3 3 0 0 0 0-6v-9a3.00328 3.00328 0 0 0 3-3zm-38-29a1.001 1.001 0 0 1 1-1h4a1.001 1.001 0 0 1 1 1v1h-6zm-7 4a1.001 1.001 0 0 1 1-1h38a1.001 1.001 0 0 1 1 1v7h-40zm-3 10a1.001 1.001 0 0 1 1-1h44a1 1 0 0 1 0 2h-44a1.001 1.001 0 0 1 -1-1zm3 3h40v9h-40zm-3 12a1.001 1.001 0 0 1 1-1h44a1 1 0 0 1 0 2h-44a1.001 1.001 0 0 1 -1-1zm43 25a1.001 1.001 0 0 1 -1 1h-38a1.001 1.001 0 0 1 -1-1v-7h40zm3-10a1.001 1.001 0 0 1 -1 1h-44a1 1 0 0 1 0-2h44a1.001 1.001 0 0 1 1 1zm-3-3h-40v-9h40z"/></svg>