<svg height="512pt" viewBox="-60 0 512 512" width="512pt" xmlns="http://www.w3.org/2000/svg"><path d="m377.230469 261.078125h-362.230469c-8.285156 0-15 6.714844-15 15v131.769531c0 29.832032 21.8125 57 61.421875 76.496094 36.230469 17.835938 84.0625 27.65625 134.691406 27.65625 50.632813 0 98.464844-9.820312 134.695313-27.65625 39.605468-19.496094 61.421875-46.664062 61.421875-76.496094v-131.769531c0-8.285156-6.714844-15-15-15zm0 0" fill="#515260"/><path d="m377.230469 261.078125h-181.117188v250.921875c50.632813 0 98.464844-9.820312 134.695313-27.65625 39.605468-19.496094 61.421875-46.664062 61.421875-76.496094v-131.769531c0-8.285156-6.714844-15-15-15zm0 0" fill="#3a3a47"/><path d="m113.703125 416.425781c-12.6875-3.390625-24.4375-7.558593-34.933594-12.382812-7.53125-3.464844-16.433593-.164063-19.894531 7.363281-3.460938 7.523438-.167969 16.433594 7.359375 19.894531 12.035156 5.535157 25.398437 10.28125 39.726563 14.109375 1.296874.347656 2.597656.511719 3.878906.511719 6.628906 0 12.691406-4.425781 14.480468-11.132813 2.140626-8.003906-2.613281-16.226562-10.617187-18.363281zm0 0" fill="#80ffd0"/><path d="m330.804688 199.578125c-36.226563-17.832031-84.0625-27.65625-134.691407-27.65625-50.625 0-98.460937 9.820313-134.6875 27.65625-39.609375 19.496094-61.425781 46.664063-61.425781 76.5 0 29.832031 21.8125 57 61.425781 76.5 36.226563 17.832031 84.0625 27.652344 134.6875 27.652344 50.628907 0 98.464844-9.820313 134.691407-27.652344 39.609374-19.5 61.425781-46.667969 61.425781-76.5 0-29.835937-21.816407-57.003906-61.425781-76.5zm0 0" fill="#9a9bab"/><g fill="#80ffd0"><path d="m196.113281 43.507812c-19.984375 0-38.773437 7.785157-52.910156 21.917969-5.855469 5.859375-5.855469 15.355469 0 21.214844 5.859375 5.855469 15.355469 5.855469 21.214844 0 8.464843-8.46875 19.722656-13.128906 31.695312-13.128906 11.976563 0 23.230469 4.660156 31.699219 13.128906 2.929688 2.925781 6.765625 4.390625 10.605469 4.390625 3.839843 0 7.679687-1.464844 10.605469-4.390625 5.859374-5.859375 5.859374-15.355469 0-21.214844-14.128907-14.132812-32.921876-21.917969-52.910157-21.917969zm0 0"/><path d="m273.878906 32.160156c-42.878906-42.878906-112.648437-42.878906-155.527344 0-5.859374 5.855469-5.859374 15.355469 0 21.210938 5.859376 5.859375 15.355469 5.859375 21.214844 0 31.179688-31.179688 81.914063-31.179688 113.097656 0 2.929688 2.929687 6.769532 4.394531 10.605469 4.394531 3.839844 0 7.679688-1.464844 10.609375-4.394531 5.855469-5.855469 5.855469-15.355469 0-21.210938zm0 0"/><path d="m212.539062 104.972656c0 9.070313-7.351562 16.425782-16.425781 16.425782-9.070312 0-16.425781-7.355469-16.425781-16.425782 0-9.074218 7.355469-16.425781 16.425781-16.425781 9.074219 0 16.425781 7.351563 16.425781 16.425781zm0 0"/></g><path d="m196.113281 43.507812v30c11.976563 0 23.230469 4.664063 31.699219 13.128907 2.929688 2.929687 6.765625 4.394531 10.605469 4.394531 3.839843 0 7.679687-1.464844 10.605469-4.390625 5.859374-5.859375 5.859374-15.355469 0-21.214844-14.128907-14.132812-32.921876-21.917969-52.910157-21.917969zm0 0" fill="#54ad95"/><path d="m273.878906 32.160156c-21.441406-21.441406-49.601562-32.160156-77.765625-32.160156v29.984375c20.480469 0 40.960938 7.796875 56.550781 23.386719 2.929688 2.929687 6.769532 4.394531 10.605469 4.394531 3.839844 0 7.679688-1.464844 10.609375-4.394531 5.855469-5.855469 5.855469-15.355469 0-21.210938zm0 0" fill="#54ad95"/><path d="m196.113281 88.546875v32.851563c9.074219 0 16.425781-7.355469 16.425781-16.425782 0-9.070312-7.351562-16.425781-16.425781-16.425781zm0 0" fill="#54ad95"/><path d="m330.804688 199.578125c-36.226563-17.832031-84.0625-27.65625-134.691407-27.65625v208.308594c50.628907 0 98.464844-9.820313 134.691407-27.65625 39.609374-19.496094 61.425781-46.664063 61.425781-76.5 0-29.832031-21.816407-57-61.425781-76.496094zm0 0" fill="#515260"/><path d="m150.367188 244.097656c-8.285157 0-15 6.714844-15 15v23.429688c0 8.285156 6.714843 15 15 15 8.28125 0 15-6.714844 15-15v-23.429688c0-8.285156-6.71875-15-15-15zm0 0" fill="#c2f7ff"/><path d="m196.113281 217.316406c-8.28125 0-15 6.714844-15 15v76.992188c0 8.285156 6.71875 15 15 15 8.285157 0 15-6.714844 15-15v-76.992188c0-8.285156-6.714843-15-15-15zm0 0" fill="#c2f7ff"/><path d="m196.113281 217.316406v106.992188c8.285157 0 15-6.714844 15-15v-76.992188c0-8.285156-6.714843-15-15-15zm0 0" fill="#66e6ff"/><path d="m241.863281 244.097656c-8.285156 0-15 6.714844-15 15v23.429688c0 8.285156 6.714844 15 15 15 8.285157 0 15-6.714844 15-15v-23.429688c0-8.285156-6.714843-15-15-15zm0 0" fill="#66e6ff"/></svg>