<?xml version="1.0" encoding="iso-8859-1"?>
<!-- Generator: Adobe Illustrator 19.0.0, SVG Export Plug-In . SVG Version: 6.00 Build 0)  -->
<svg version="1.1" id="Layer_1" xmlns="http://www.w3.org/2000/svg" xmlns:xlink="http://www.w3.org/1999/xlink" x="0px" y="0px"
	 viewBox="0 0 512 512" style="enable-background:new 0 0 512 512;" xml:space="preserve">
<g>
	<g>
		<circle style="fill:#FFC61B;" cx="256" cy="256" r="256"/>
	</g>
	<path style="fill:#D48B07;" d="M423.534,177.299L67.479,347.939l162.776,162.776C238.723,511.562,247.31,512,256,512
		c138.18,0,250.77-109.484,255.803-246.432L423.534,177.299z"/>
	<g>
		<path style="fill:#FFFFFF;" d="M36.776,256c0-15.343,25.974-26.391,30.47-40.236c4.658-14.348-9.699-38.524-1.007-50.466
			c8.778-12.062,36.266-5.834,48.328-14.612c11.943-8.692,14.464-36.804,28.81-41.462c13.845-4.496,32.346,16.62,47.688,16.62
			s33.845-21.116,47.688-16.62c14.348,4.658,16.868,32.771,28.812,41.463c12.062,8.778,39.548,2.55,48.328,14.612
			c8.692,11.943-5.665,36.118-1.007,50.466c4.494,13.845,30.47,24.891,30.47,40.234s-25.974,26.391-30.47,40.236
			c-4.658,14.348,9.699,38.524,1.007,50.466c-8.778,12.062-36.266,5.834-48.328,14.612c-11.943,8.692-14.464,36.804-28.81,41.462
			c-13.845,4.494-32.346-16.62-47.688-16.62s-33.845,21.116-47.688,16.62c-14.348-4.658-16.868-32.771-28.812-41.463
			c-12.062-8.778-39.548-2.55-48.328-14.612c-8.692-11.943,5.665-36.118,1.007-50.466C62.75,282.391,36.776,271.343,36.776,256z"/>
	</g>
	<g>
		<path style="fill:#FFEDB5;" d="M191.066,125.845c15.343,0,33.845-21.116,47.688-16.62c14.348,4.658,16.868,32.771,28.812,41.463
			c12.062,8.778,39.548,2.55,48.328,14.612c8.692,11.943-5.665,36.118-1.007,50.466c4.494,13.845,30.47,24.891,30.47,40.234
			s-25.974,26.391-30.47,40.236c-4.658,14.348,9.699,38.524,1.007,50.466c-8.778,12.062-36.266,5.834-48.328,14.612
			c-11.943,8.692-14.464,36.804-28.81,41.462c-13.845,4.494-32.346-16.62-47.688-16.62v-260.31H191.066z"/>
	</g>
	<g>
		<circle style="fill:#E03A00;" cx="191.066" cy="256" r="101.588"/>
	</g>
	<g>
		<path style="fill:#BF3106;" d="M191.066,154.412c56.104,0,101.588,45.482,101.588,101.588s-45.482,101.588-101.588,101.588
			L191.066,154.412L191.066,154.412z"/>
	</g>
	<g>
		<g>
			<circle style="fill:#386895;" cx="341.333" cy="256" r="113.778"/>
		</g>
		<g>
			<path style="fill:#273B7A;" d="M341.333,142.222c62.838,0,113.778,50.94,113.778,113.778s-50.94,113.778-113.778,113.778V142.222
				z"/>
		</g>
		<g>
			
				<ellipse transform="matrix(0.4059 -0.9139 0.9139 0.4059 48.9618 473.5533)" style="fill:#121149;" cx="388.723" cy="199.117" rx="18.963" ry="28.444"/>
		</g>
		<g>
			
				<ellipse transform="matrix(-0.0131 -0.9999 0.9999 -0.0131 123.6129 650.8129)" style="fill:#121149;" cx="382.978" cy="264.404" rx="18.963" ry="18.287"/>
		</g>
		<g>
			
				<ellipse transform="matrix(-0.0131 -0.9999 0.9999 -0.0131 14.1863 601.8242)" style="fill:#273B7A;" cx="304.089" cy="293.911" rx="10.724" ry="10.343"/>
		</g>
		<g>
			
				<ellipse transform="matrix(-0.0131 -0.9999 0.9999 -0.0131 50.1858 696.7249)" style="fill:#121149;" cx="368.921" cy="323.596" rx="10.724" ry="10.343"/>
		</g>
		<g>
			
				<ellipse transform="matrix(-0.0131 -0.9999 0.9999 -0.0131 110.5452 523.7784)" style="fill:#273B7A;" cx="313.753" cy="207.336" rx="10.724" ry="10.343"/>
		</g>
		<g>
			
				<ellipse transform="matrix(-0.7923 -0.6102 0.6102 -0.7923 348.8593 590.0842)" style="fill:#273B7A;" cx="274.876" cy="235.658" rx="18.128" ry="27.192"/>
		</g>
		<g>
			
				<ellipse transform="matrix(-0.4809 -0.8768 0.8768 -0.4809 281.6429 494.8921)" style="fill:#273B7A;" cx="287.325" cy="164.071" rx="6.041" ry="27.192"/>
		</g>
		<g>
			
				<ellipse transform="matrix(-0.9996 -0.0288 0.0288 -0.9996 874.7002 534.2786)" style="fill:#121149;" cx="441.198" cy="260.84" rx="6.041" ry="27.192"/>
		</g>
	</g>
</g>
<g>
</g>
<g>
</g>
<g>
</g>
<g>
</g>
<g>
</g>
<g>
</g>
<g>
</g>
<g>
</g>
<g>
</g>
<g>
</g>
<g>
</g>
<g>
</g>
<g>
</g>
<g>
</g>
<g>
</g>
</svg>
