<?xml version="1.0" encoding="iso-8859-1"?>
<!-- Generator: Adobe Illustrator 19.0.0, SVG Export Plug-In . SVG Version: 6.00 Build 0)  -->
<svg version="1.1" id="Capa_1" xmlns="http://www.w3.org/2000/svg" xmlns:xlink="http://www.w3.org/1999/xlink" x="0px" y="0px"
	 viewBox="0 0 512 512" style="enable-background:new 0 0 512 512;" xml:space="preserve">
<g>
	<path style="fill:#366DB6;" d="M397.921,73.19c-1.827,0-3.672-0.565-5.244-1.73c-39.733-29.422-86.872-44.977-136.333-44.977
		c-51.456,0-102.276,16.702-135.945,44.668c-2.631,2.189-6.294,2.657-9.393,1.201s-5.076-4.564-5.076-7.989V8.828
		c0-4.873,3.955-8.828,8.828-8.828s8.828,3.955,8.828,8.828v37.976c35.919-23.993,84.18-37.976,132.758-37.976
		c53.274,0,104.051,16.746,146.838,48.437c3.919,2.904,4.74,8.43,1.836,12.35C403.288,71.954,400.622,73.19,397.921,73.19z"/>
	<path style="fill:#366DB6;" d="M447.629,406.758c-1.827,0-3.672-0.565-5.244-1.73c-3.919-2.904-4.74-8.43-1.836-12.35
		c29.422-39.724,44.977-86.863,44.977-136.324c0-51.465-16.702-102.276-44.668-135.945c-2.189-2.631-2.657-6.294-1.201-9.393
		s4.555-5.085,7.98-5.085h55.534c4.873,0,8.828,3.955,8.828,8.828s-3.955,8.828-8.828,8.828h-37.976
		c23.993,35.919,37.976,84.18,37.976,132.758c0,53.274-16.746,104.051-48.437,146.838
		C452.996,405.522,450.33,406.758,447.629,406.758z"/>
	<path style="fill:#366DB6;" d="M397.241,512c-4.873,0-8.828-3.955-8.828-8.828v-37.976c-35.919,23.993-84.18,37.976-132.758,37.976
		c-53.274,0-104.051-16.746-146.838-48.437c-3.919-2.904-4.74-8.43-1.836-12.35c2.904-3.919,8.43-4.74,12.35-1.836
		c39.724,29.422,86.863,44.977,136.333,44.977c51.456,0,102.276-16.702,135.945-44.668c2.631-2.189,6.294-2.657,9.393-1.201
		c3.09,1.439,5.067,4.555,5.067,7.98v55.534C406.069,508.045,402.114,512,397.241,512z"/>
	<path style="fill:#366DB6;" d="M64.362,406.069H8.828c-4.873,0-8.828-3.955-8.828-8.828c0-4.873,3.955-8.828,8.828-8.828h37.976
		C22.81,352.494,8.828,304.234,8.828,255.656c0-53.274,16.746-104.051,48.437-146.838c2.904-3.919,8.43-4.749,12.35-1.836
		c3.919,2.904,4.74,8.43,1.836,12.35c-29.414,39.724-44.968,86.863-44.968,136.324c0,51.465,16.702,102.276,44.668,135.945
		c2.189,2.631,2.657,6.294,1.201,9.393C70.894,404.092,67.787,406.069,64.362,406.069z"/>
</g>
<g>
	<path style="fill:#EBBA16;" d="M256,459.034c-4.873,0-8.828-3.955-8.828-8.828v-8.828c0-4.873,3.955-8.828,8.828-8.828
		s8.828,3.955,8.828,8.828v8.828C264.828,455.08,260.873,459.034,256,459.034z"/>
	<path style="fill:#EBBA16;" d="M450.207,264.828h-8.828c-4.873,0-8.828-3.955-8.828-8.828s3.955-8.828,8.828-8.828h8.828
		c4.873,0,8.828,3.955,8.828,8.828S455.08,264.828,450.207,264.828z"/>
	<path style="fill:#EBBA16;" d="M70.621,264.828h-8.828c-4.873,0-8.828-3.955-8.828-8.828s3.955-8.828,8.828-8.828h8.828
		c4.873,0,8.828,3.955,8.828,8.828S75.494,264.828,70.621,264.828z"/>
	<path style="fill:#EBBA16;" d="M388.414,132.414c-2.26,0-4.52-0.865-6.241-2.586c-3.452-3.452-3.452-9.031,0-12.482l8.828-8.828
		c3.443-3.452,9.039-3.452,12.482,0c3.452,3.452,3.452,9.031,0,12.482l-8.828,8.828
		C392.934,131.549,390.674,132.414,388.414,132.414z"/>
	<path style="fill:#EBBA16;" d="M114.759,406.069c-2.26,0-4.52-0.865-6.241-2.586c-3.452-3.452-3.452-9.031,0-12.482l8.828-8.828
		c3.443-3.452,9.039-3.452,12.482,0c3.452,3.452,3.452,9.031,0,12.482L121,403.482C119.278,405.204,117.018,406.069,114.759,406.069
		z"/>
	<path style="fill:#EBBA16;" d="M397.241,406.069c-2.26,0-4.52-0.865-6.241-2.586l-8.828-8.828c-3.452-3.452-3.452-9.031,0-12.482
		c3.443-3.452,9.039-3.452,12.482,0l8.828,8.828c3.452,3.452,3.452,9.031,0,12.482C401.761,405.204,399.501,406.069,397.241,406.069
		z"/>
	<path style="fill:#EBBA16;" d="M123.586,132.414c-2.26,0-4.52-0.865-6.241-2.586L108.518,121c-3.452-3.452-3.452-9.031,0-12.482
		c3.443-3.452,9.039-3.452,12.482,0l8.828,8.828c3.452,3.452,3.452,9.031,0,12.482C128.106,131.549,125.846,132.414,123.586,132.414
		z"/>
</g>
<g>
	<path style="fill:#7383BF;" d="M256,238.345c-4.873,0-8.828-3.955-8.828-8.828V61.793c0-4.873,3.955-8.828,8.828-8.828
		s8.828,3.955,8.828,8.828v167.724C264.828,234.39,260.873,238.345,256,238.345z"/>
	<path style="fill:#7383BF;" d="M361.931,264.828h-79.448c-4.873,0-8.828-3.955-8.828-8.828s3.955-8.828,8.828-8.828h79.448
		c4.873,0,8.828,3.955,8.828,8.828S366.804,264.828,361.931,264.828z"/>
</g>
<circle style="fill:#DD352E;" cx="256" cy="256" r="26.483"/>
<g>
</g>
<g>
</g>
<g>
</g>
<g>
</g>
<g>
</g>
<g>
</g>
<g>
</g>
<g>
</g>
<g>
</g>
<g>
</g>
<g>
</g>
<g>
</g>
<g>
</g>
<g>
</g>
<g>
</g>
</svg>
