<?xml version="1.0" encoding="iso-8859-1"?>
<!-- Generator: Adobe Illustrator 19.0.0, SVG Export Plug-In . SVG Version: 6.00 Build 0)  -->
<svg version="1.1" id="Layer_1" xmlns="http://www.w3.org/2000/svg" xmlns:xlink="http://www.w3.org/1999/xlink" x="0px" y="0px"
	 viewBox="0 0 496.158 496.158" style="enable-background:new 0 0 496.158 496.158;" xml:space="preserve">
<path style="fill:#32BEA6;" d="M496.158,248.085c0-137.021-111.07-248.082-248.076-248.082C111.07,0.002,0,111.062,0,248.085
	c0,137.002,111.07,248.071,248.083,248.071C385.088,496.155,496.158,385.086,496.158,248.085z"/>
<g>
	<path style="fill:#FFFFFF;" d="M399.531,239.348l-117.188-71.957c-3.199-1.965-7.409-2.051-10.685-0.217
		c-3.335,1.865-5.406,5.398-5.406,9.219V319.74c0,3.814,2.064,7.344,5.39,9.211c1.576,0.887,3.366,1.354,5.175,1.354
		c1.94,0,3.841-0.533,5.495-1.541L399.5,257.373c3.119-1.9,5.062-5.35,5.067-9.002C404.573,244.715,402.643,241.258,399.531,239.348
		z"/>
	<path style="fill:#FFFFFF;" d="M246.874,239.348l-117.188-71.957c-3.199-1.965-7.409-2.051-10.684-0.217
		c-3.335,1.865-5.406,5.398-5.406,9.219V319.74c0,3.814,2.064,7.344,5.39,9.211c1.576,0.887,3.365,1.354,5.175,1.354
		c1.939,0,3.84-0.533,5.495-1.541l117.187-71.391c3.12-1.9,5.062-5.35,5.068-9.002C251.917,244.715,249.988,241.258,246.874,239.348
		z"/>
</g>
<g>
</g>
<g>
</g>
<g>
</g>
<g>
</g>
<g>
</g>
<g>
</g>
<g>
</g>
<g>
</g>
<g>
</g>
<g>
</g>
<g>
</g>
<g>
</g>
<g>
</g>
<g>
</g>
<g>
</g>
</svg>
