<svg height="512pt" viewBox="0 -46 512 512" width="512pt" xmlns="http://www.w3.org/2000/svg"><path d="m331.234375 405.011719c.097656-232.460938 86.738281-380.789063 87.640625-382.292969 3.75-6.273438 2.433594-14.355469-3.132812-19.105469-5.539063-4.757812-13.726563-4.832031-19.351563-.128906-7.726563 6.449219-184.910156 157.617187-184.90625 401.527344zm0 0" fill="#49a520"/><path d="m470.738281 149.234375c-.804687.277344-79.746093 32.828125-79.746093 255.777344h-120c0-249.816407 190.605468-284.472657 192.539062-284.796875 7.648438-1.449219 15.132812 3.574218 17.023438 11.179687 1.886718 7.601563-2.386719 15.367188-9.816407 17.839844zm0 0" fill="#70da40"/><path d="m300.398438 405.011719h-119.398438c-.300781-232.5-87-380.699219-87.898438-382.199219-3.601562-6.300781-2.402343-14.402344 3.296876-19.199219 5.402343-4.800781 13.5-4.800781 19.203124 0 1.5.898438 86.097657 73.5 140.398438 196.5 25.5 57.898438 44.097656 126.898438 44.398438 204.898438zm0 0" fill="#70da40"/><path d="m300.398438 405.011719h-44.398438v-204.902344c25.5 57.902344 44.097656 126.902344 44.398438 204.902344zm0 0" fill="#56c225"/><path d="m41.253906 149.234375c.804688.28125 79.746094 32.828125 79.746094 255.777344h120c0-249.8125-190.605469-284.472657-192.539062-284.792969-7.644532-1.453125-15.132813 3.574219-17.019532 11.175781-1.890625 7.601563 2.386719 15.367188 9.8125 17.839844zm0 0" fill="#90e36a"/><path d="m512 405.011719c0 8.398437-6.597656 15-15 15h-482c-8.402344 0-15-6.601563-15-15 0-8.402344 6.597656-15 15-15h482c8.402344 0 15 6.597656 15 15zm0 0" fill="#b35f49"/><path d="m512 405.011719c0 8.398437-6.597656 15-15 15h-241v-30h241c8.402344 0 15 6.597656 15 15zm0 0" fill="#99503d"/></svg>