<svg xmlns="http://www.w3.org/2000/svg" height="512pt" version="1.1" viewBox="0 0 512 512" width="512pt">
<g id="surface1">
<path d="M 452.921875 83.691406 L 59.078125 83.691406 C 50.921875 83.691406 44.308594 90.304688 44.308594 98.460938 L 44.308594 177.230469 C 44.308594 180.515625 45.402344 183.707031 47.417969 186.296875 L 182.152344 359.527344 L 182.152344 497.230469 C 182.152344 502.074219 184.527344 506.609375 188.511719 509.371094 C 191.015625 511.105469 193.957031 512 196.925781 512 C 198.671875 512 200.429688 511.691406 202.109375 511.058594 L 320.261719 466.753906 C 326.027344 464.589844 329.847656 459.078125 329.847656 452.921875 L 329.847656 359.527344 L 464.582031 186.296875 C 466.597656 183.703125 467.691406 180.511719 467.691406 177.230469 L 467.691406 98.460938 C 467.691406 90.304688 461.078125 83.691406 452.921875 83.691406 Z M 452.921875 83.691406 " style=" stroke:none;fill-rule:nonzero;fill:rgb(100%,71.372549%,33.333333%);fill-opacity:1;" />
<path d="M 406.664062 151.050781 C 404.1875 145.984375 399.039062 142.769531 393.398438 142.769531 L 118.601562 142.769531 C 112.960938 142.769531 107.8125 145.980469 105.335938 151.050781 C 102.855469 156.117188 103.480469 162.152344 106.945312 166.605469 L 241.230469 339.257812 L 241.230469 411.984375 C 241.230469 420.140625 247.84375 426.753906 256 426.753906 C 264.15625 426.753906 270.769531 420.140625 270.769531 411.984375 L 270.769531 339.257812 L 405.054688 166.605469 C 408.519531 162.152344 409.144531 156.117188 406.664062 151.050781 Z M 406.664062 151.050781 " style=" stroke:none;fill-rule:nonzero;fill:rgb(90.980392%,91.764706%,96.470588%);fill-opacity:1;" />
<path d="M 455.382812 0 L 56.617188 0 C 25.398438 0 0 25.398438 0 56.617188 C 0 87.832031 25.398438 113.230469 56.617188 113.230469 L 455.382812 113.230469 C 486.601562 113.230469 512 87.832031 512 56.617188 C 512 25.398438 486.601562 0 455.382812 0 Z M 455.382812 0 " style=" stroke:none;fill-rule:nonzero;fill:rgb(38.039216%,38.039216%,38.039216%);fill-opacity:1;" />
<path d="M 452.921875 83.691406 L 256 83.691406 L 256 490.851562 L 320.261719 466.753906 C 326.027344 464.589844 329.847656 459.078125 329.847656 452.921875 L 329.847656 359.527344 L 464.582031 186.296875 C 466.597656 183.703125 467.691406 180.511719 467.691406 177.230469 L 467.691406 98.460938 C 467.691406 90.304688 461.078125 83.691406 452.921875 83.691406 Z M 452.921875 83.691406 " style=" stroke:none;fill-rule:nonzero;fill:rgb(100%,53.333333%,34.901961%);fill-opacity:1;" />
<path d="M 406.664062 151.050781 C 404.1875 145.984375 399.039062 142.769531 393.398438 142.769531 L 256 142.769531 L 256 426.753906 C 264.15625 426.753906 270.769531 420.140625 270.769531 411.984375 L 270.769531 339.257812 L 405.054688 166.605469 C 408.519531 162.152344 409.144531 156.117188 406.664062 151.050781 Z M 406.664062 151.050781 " style=" stroke:none;fill-rule:nonzero;fill:rgb(77.254902%,79.215686%,91.372549%);fill-opacity:1;" />
<path d="M 455.382812 0 L 256 0 L 256 113.230469 L 455.382812 113.230469 C 486.601562 113.230469 512 87.832031 512 56.617188 C 512 25.398438 486.601562 0 455.382812 0 Z M 455.382812 0 " style=" stroke:none;fill-rule:nonzero;fill:rgb(25.882353%,25.882353%,25.882353%);fill-opacity:1;" />
</g>
</svg>