<?xml version="1.0" encoding="iso-8859-1"?>
<!-- Generator: Adobe Illustrator 19.0.0, SVG Export Plug-In . SVG Version: 6.00 Build 0)  -->
<svg version="1.1" id="Capa_1" xmlns="http://www.w3.org/2000/svg" xmlns:xlink="http://www.w3.org/1999/xlink" x="0px" y="0px"
	 viewBox="0 0 512 512" style="enable-background:new 0 0 512 512;" xml:space="preserve">
<g>
	<g>
		<path style="fill:#71C285;" d="M255.647,256.708l0.706,0.088c-0.088,1.236-0.177,2.472-0.177,3.708l-0.353-0.088
			C255.735,259.18,255.735,257.944,255.647,256.708z"/>
		<path style="fill:#71C285;" d="M265.181,263.947l-8.739-3.354"/>
		<path style="fill:#71C285;" d="M248.055,257.503l-2.207-0.883"/>
		<path style="fill:#71C285;" d="M255.647,256.708c0.088,1.236,0.088,2.472,0.177,3.708l-21.892-6.091
			c-2.929-0.355-5.877-0.532-8.828-0.53c-30.473,0.076-57.897,18.509-69.473,46.698c-4.628-1.621-9.486-2.485-14.389-2.56
			c-2.998,0.003-5.987,0.329-8.916,0.971l-24.541,14.389l-0.088,0.088C99.928,227.666,57.556,161.37,5.65,156.957
			c-1.942-0.177-3.796-0.265-5.65-0.265h5.65c56.973,0.262,110.374,27.799,143.625,74.063
			c-3.796-102.488-21.716-179.994-43.343-179.994c2.89-0.031,5.779,0.116,8.651,0.441c1.36,0.03,2.716,0.148,4.061,0.353
			c1.236,0.177,2.472,0.265,3.708,0.53c4.298,0.646,8.545,1.59,12.712,2.825c1.942,0.53,3.796,1.148,5.738,1.854
			c3.464,1.177,6.854,2.563,10.152,4.149c1.748,0.734,3.457,1.559,5.12,2.472c0.088,0,0.177,0.088,0.353,0.177
			c1.236,0.617,2.472,1.324,3.796,2.119c3.513,1.937,6.904,4.089,10.152,6.444c1.041,0.647,2.043,1.354,3.001,2.119
			c2.03,1.412,3.972,3.001,6.003,4.679c2.295,1.942,4.679,3.972,6.886,6.091c1.766,1.589,3.531,3.354,5.297,5.208
			c0.53,0.441,1.059,1.059,1.589,1.589c6.745,7.098,12.886,14.746,18.361,22.863c1.677,2.295,3.178,4.679,4.679,7.15
			c5.975,9.402,11.2,19.261,15.625,29.484c1.324,2.824,2.56,5.737,3.708,8.739c0.709,1.582,1.328,3.203,1.854,4.855
			c2.825,7.415,5.297,15.095,7.503,23.04c0.706,2.383,1.324,4.767,1.854,7.239c0.971,3.619,1.854,7.327,2.648,11.123
			c0.441,2.383,0.971,4.767,1.324,7.15c0.441,2.03,0.794,4.149,1.148,6.268c0.265,1.501,0.53,3.001,0.706,4.59
			c0.167,0.816,0.285,1.641,0.353,2.472c1.059,6.974,1.766,14.124,2.295,21.363C255.382,250.97,255.559,253.795,255.647,256.708z"/>
		<path style="fill:#71C285;" d="M512,156.692c-60.204,0-108.844,83.332-108.844,185.732l-4.326,4.149l-13.506-17.214
			c-5.789-3.27-12.331-4.974-18.979-4.943c-1.747,0.041-3.489,0.218-5.208,0.53c-1.414-7.244-4.632-14.015-9.357-19.686
			l-0.177-0.177L333.33,291.93c-13.463-5.061-28.548-3.25-40.43,4.855c-2.805-5.956-6.398-11.508-10.681-16.508
			c-1.501-1.766-3.001-3.354-4.502-4.855c-4.427-4.424-9.413-8.252-14.83-11.388c-0.186-0.15-0.394-0.269-0.618-0.353
			c-1.236-0.706-2.472-1.412-3.796-2.03c-0.618-0.353-1.324-0.706-2.03-1.06c-0.088,0-0.177-0.088-0.265-0.088
			c0-1.236,0.088-2.472,0.177-3.708l0.706,0.177l-0.265-8.21c0.853-11.961,2.355-23.866,4.502-35.663l1.059-5.385
			c0.353-1.677,0.706-3.354,1.06-4.943c0.353-1.677,0.706-3.354,1.147-5.032c0.794-3.266,1.677-6.532,2.56-9.799
			c0.883-3.178,1.854-6.356,2.825-9.534c1.059-3.354,2.119-6.532,3.354-9.799c1.148-3.266,2.295-6.444,3.619-9.534
			c0.454-1.325,0.984-2.621,1.589-3.884c0.53-1.324,1.148-2.56,1.677-3.884c1.236-2.913,2.56-5.738,3.972-8.474
			c1.324-2.825,2.737-5.561,4.149-8.21c1.324-2.56,2.737-5.032,4.237-7.415c1.324-2.383,2.825-4.679,4.237-6.974
			c0.203-0.402,0.439-0.786,0.706-1.148c0.441-0.618,0.794-1.236,1.236-1.854c1.589-2.472,3.354-4.855,5.031-7.239
			c0.971-1.412,2.03-2.737,3.09-4.061c2.295-3.09,4.767-6.091,7.327-8.916c1.412-1.677,2.913-3.266,4.414-4.855
			c1.412-1.589,2.913-3.09,4.414-4.502c5.185-5.17,10.795-9.895,16.772-14.124c1.584-1.264,3.234-2.442,4.943-3.531
			c4.252-2.879,8.706-5.446,13.33-7.68c2.03-0.971,3.972-1.942,6.091-2.825c6.526-2.848,13.33-5.007,20.303-6.444
			c1.854-0.441,3.796-0.794,5.65-1.059c5.287-0.813,10.629-1.227,15.978-1.236c-21.628,0-39.548,77.506-43.343,179.994
			c33.251-46.264,86.651-73.801,143.625-74.063H512z"/>
		<path style="fill:#71C285;" d="M256.794,248.763l0.265,8.21l-0.706-0.177C256.441,254.06,256.618,251.412,256.794,248.763z"/>
		<path style="fill:#71C285;" d="M512,156.692c-60.204,0-108.874,83.291-108.874,185.691l-4.258,4.189l-13.544-17.212
			c-5.789-3.27-12.331-4.974-18.979-4.943c-1.747,0.041-3.489,0.218-5.208,0.53c-1.414-7.244-4.632-14.015-9.357-19.686
			l-0.177-0.177L333.33,291.93c5.967-22.021,15.931-42.757,29.396-61.175c33.251-46.264,86.651-73.801,143.625-74.063H512z"/>
		<path style="fill:#71C285;" d="M173.109,274.805c-7.564,7.242-13.519,15.994-17.479,25.688c-4.628-1.621-9.486-2.485-14.389-2.56
			c-2.998,0.003-5.987,0.329-8.916,0.971l-24.541,14.389l-0.088,0.088C99.928,227.666,57.556,161.37,5.65,156.957
			c-1.942-0.177-3.796-0.265-5.65-0.265h5.65c56.973,0.262,110.374,27.799,143.625,74.063v0.088h0.088
			C159.195,244.378,167.181,259.162,173.109,274.805z"/>
	</g>
	<g>
		<path style="fill:#4C8056;" d="M255.823,260.416c-9.656-4.355-20.127-6.612-30.72-6.621c-19.404-0.024-38.054,7.512-51.994,21.01
			c-5.928-15.643-13.914-30.427-23.746-43.961h-0.088v-0.088c-3.796-102.488-21.716-179.994-43.343-179.994
			C186.35,50.761,251.939,143.627,255.823,260.416z"/>
		<path style="fill:#4C8056;" d="M255.823,260.416l-21.892-6.091C241.503,255.193,248.891,257.248,255.823,260.416z"/>
		<path style="fill:#4C8056;" d="M406.069,50.761c-21.628,0-39.548,77.506-43.343,179.994
			c-13.465,18.418-23.429,39.154-29.396,61.175c-13.463-5.061-28.548-3.25-40.43,4.855c-7.607-16.027-20.605-28.869-36.723-36.281
			C260.061,143.715,325.65,50.761,406.069,50.761z"/>
	</g>
	<path style="fill:#CB8252;" d="M512,408.278c-0.01-26.714-19.92-49.236-46.432-52.522c-4.315-12.864-14.933-22.611-28.118-25.812
		c-13.185-3.201-27.09,0.591-36.824,10.043c-7.572-14.363-23.531-22.218-39.531-19.457c-2.776-14.615-12.739-26.843-26.492-32.513
		s-29.439-4.018-41.709,4.394c-12.678-26.93-40.089-43.807-69.844-43.003c-29.754,0.804-56.214,19.137-67.419,46.713
		c-22.138-8.032-46.645,3.041-55.248,24.963c-8.517-2.341-17.632-0.854-24.964,4.072s-12.154,12.802-13.206,21.572
		c-1.597-0.134-3.202-0.244-4.834-0.244C25.69,346.485,0,372.174,0,403.864v57.379h512V408.278z"/>
	<g>
		<path style="fill:#805333;" d="M187.638,320.006c-2.866-0.004-5.552-1.396-7.206-3.736c-1.654-2.34-2.071-5.337-1.118-8.04
			c5.258-14.86,17.401-26.244,32.569-30.534s31.475-0.95,43.736,8.956c3.79,3.066,4.377,8.624,1.31,12.414s-8.624,4.376-12.414,1.31
			c-5.482-4.464-12.344-6.888-19.413-6.858c-13.093,0.013-24.762,8.261-29.142,20.599
			C194.714,317.646,191.379,320.004,187.638,320.006z"/>
		<path style="fill:#805333;" d="M379.586,381.795c-4.875,0-8.828-3.952-8.828-8.828c-0.002-3.154-1.685-6.068-4.417-7.644
			c-2.731-1.577-6.096-1.578-8.829-0.002c-2.732,1.579-6.099,1.58-8.832,0.002c-2.733-1.577-4.416-4.493-4.415-7.649
			c0.001-3.155,1.686-6.07,4.419-7.646c8.196-4.727,18.29-4.724,26.483,0.007c8.193,4.731,13.242,13.472,13.245,22.933
			c0,2.341-0.93,4.587-2.586,6.242C384.173,380.865,381.927,381.795,379.586,381.795z"/>
		<path style="fill:#805333;" d="M476.69,417.105c-4.875,0-8.828-3.952-8.828-8.828c-0.002-3.154-1.686-6.068-4.417-7.644
			s-6.096-1.578-8.829-0.002c-2.732,1.579-6.099,1.58-8.832,0.002c-2.733-1.577-4.416-4.493-4.415-7.649
			c0.001-3.155,1.685-6.07,4.419-7.646c8.196-4.727,18.29-4.724,26.483,0.007c8.193,4.731,13.242,13.472,13.245,22.933
			c0,2.341-0.93,4.587-2.586,6.242C481.276,416.175,479.031,417.105,476.69,417.105z"/>
		<path style="fill:#805333;" d="M88.707,390.623c-4.198-0.003-7.812-2.963-8.642-7.078c-2.06-10.159,1.109-20.675,8.439-28.005
			c7.33-7.33,17.845-10.499,28.005-8.439c4.778,0.966,7.868,5.623,6.901,10.401s-5.623,7.868-10.401,6.901
			c-0.877-0.175-1.769-0.264-2.664-0.263c-7.31,0.008-13.233,5.932-13.241,13.241c0,0.894,0.088,1.787,0.263,2.664
			c0.523,2.596-0.146,5.291-1.824,7.34C93.864,389.435,91.355,390.623,88.707,390.623z"/>
		<path style="fill:#805333;" d="M289.052,417.11c-2.863-0.007-5.545-1.399-7.198-3.736s-2.072-5.33-1.125-8.031
			c3.951-11.227,1.11-23.726-7.306-32.142c-8.416-8.416-20.915-11.257-32.142-7.306c-4.59,1.595-9.605-0.819-11.221-5.401
			c-1.616-4.582,0.776-9.609,5.351-11.245c17.637-6.217,37.276-1.757,50.5,11.466c13.223,13.223,17.682,32.863,11.465,50.5
			C296.131,414.744,292.795,417.107,289.052,417.11z"/>
	</g>
</g>
<g>
</g>
<g>
</g>
<g>
</g>
<g>
</g>
<g>
</g>
<g>
</g>
<g>
</g>
<g>
</g>
<g>
</g>
<g>
</g>
<g>
</g>
<g>
</g>
<g>
</g>
<g>
</g>
<g>
</g>
</svg>
