<svg height="512pt" viewBox="-4 0 512 512" width="512pt" xmlns="http://www.w3.org/2000/svg"><path d="m348.34375 187.09375c-5.425781-18.9375-15.339844-36.546875-28.910156-51.007812-.421875-.449219-.898438-.828126-1.324219-1.269532-22.84375-23.542968-55.734375-37.714844-88.59375-37.714844h-44.136719c-33.792968 0-84.621094 5.722657-107.722656 30.324219-21.152344 22.519531-33.519531 80.066407-33.519531 110.917969v88.277344h132.414062c24.277344 0 44.140625 2.207031 44.140625 26.480468v44.085938c0-9.71875 7.882813-17.601562 17.601563-17.601562h70.671875v-26.484376c0-24.273437 19.863281-44.136718 44.136718-44.136718v-88.273438c0-11.40625-1.640624-22.722656-4.757812-33.597656zm0 0" fill="#be6e41"/><path d="m428.457031 313.097656h-86.695312v-82.644531c0-10.671875-1.46875-21.265625-4.246094-31.453125-4.847656-17.726562-13.703125-34.214844-25.8125-47.75-.378906-.414062-.804687-.773438-1.183594-1.191406-20.402343-22.03125-49.777343-35.300782-79.113281-35.300782h-94.578125c-60.945313 0-110.34375 51.800782-110.34375 115.695313v272.71875h441.378906v-148.753906c0-22.730469-17.734375-41.320313-39.40625-41.320313zm0 0" fill="#be6e41"/><path d="m406.070312 132.414062h35.308594v194.207032h-35.308594zm0 0" fill="#e7eced"/><path d="m132.414062 512v-158.898438c0-24.273437 19.863282-44.136718 44.136719-44.136718 24.277344 0 44.140625 19.863281 44.140625 44.136718v158.898438zm0 0" fill="#7a3f25"/><path d="m44.136719 308.964844h132.414062c-24.273437 0-44.136719 19.863281-44.136719 44.136718v158.898438h-132.414062v-158.898438c0-24.273437 19.863281-44.136718 44.136719-44.136718zm0 0" fill="#953"/><path d="m406.070312 512v-158.898438c0-24.273437 19.859376-44.136718 44.136719-44.136718 24.277344 0 44.136719 19.863281 44.136719 44.136718v158.898438zm0 0" fill="#7a3f25"/><path d="m238.292969 432.550781h150.183593c9.710938 0 17.59375-7.882812 17.59375-17.601562v-17.769531c0-9.710938-7.882812-17.59375-17.605468-17.59375h-150.171875c-9.71875 0-17.601563 7.882812-17.601563 17.601562v17.769531c0 9.710938 7.882813 17.59375 17.601563 17.59375zm0 0" fill="#7a3f25"/><path d="m406.070312 397.1875c0-9.71875-7.882812-17.601562-17.605468-17.601562h-79.5v-26.484376c0-24.273437 19.863281-44.136718 44.136718-44.136718h97.105469c-24.277343 0-44.136719 19.863281-44.136719 44.136718zm0 0" fill="#953"/><path d="m238.292969 432.550781h150.183593c9.710938 0 17.59375-7.882812 17.59375-17.601562v97.050781h-185.378906v-97.050781c0 9.71875 7.882813 17.601562 17.601563 17.601562zm0 0" fill="#953"/><path d="m123.585938 97.101562h61.792968c-68.253906 0-123.585937 55.332032-123.585937 123.589844v88.273438h-17.65625c-24.273438 0-44.136719 19.863281-44.136719 44.136718v-132.410156c0-68.257812 55.332031-123.589844 123.585938-123.589844zm0 0" fill="#84472c"/><path d="m379.585938 185.378906c-4.871094 0-8.828126-3.953125-8.828126-8.828125v-26.480469c0-4.875 3.957032-8.828124 8.828126-8.828124 4.875 0 8.828124 3.953124 8.828124 8.828124v26.480469c0 4.875-3.953124 8.828125-8.828124 8.828125zm0 0" fill="#ebba16"/><g fill="#7a3f25"><path d="m247.171875 185.378906h-70.621094c-4.871093 0-8.828125-3.953125-8.828125-8.828125 0-4.871093 3.957032-8.828125 8.828125-8.828125h70.621094c4.875 0 8.828125 3.957032 8.828125 8.828125 0 4.875-3.953125 8.828125-8.828125 8.828125zm0 0"/><path d="m273.65625 229.515625h-26.484375c-4.871094 0-8.828125-3.953125-8.828125-8.824219 0-4.875 3.957031-8.828125 8.828125-8.828125h26.484375c4.871094 0 8.828125 3.953125 8.828125 8.828125 0 4.871094-3.957031 8.824219-8.828125 8.824219zm0 0"/><path d="m211.863281 229.515625h-61.792969c-4.875 0-8.828124-3.953125-8.828124-8.824219 0-4.875 3.953124-8.828125 8.828124-8.828125h61.792969c4.871094 0 8.828125 3.953125 8.828125 8.828125 0 4.871094-3.957031 8.824219-8.828125 8.824219zm0 0"/><path d="m273.65625 273.65625h-70.621094c-4.875 0-8.828125-3.957031-8.828125-8.828125 0-4.875 3.953125-8.828125 8.828125-8.828125h70.621094c4.871094 0 8.828125 3.953125 8.828125 8.828125 0 4.871094-3.957031 8.828125-8.828125 8.828125zm0 0"/><path d="m167.722656 273.65625h-17.652344c-4.875 0-8.828124-3.957031-8.828124-8.828125 0-4.875 3.953124-8.828125 8.828124-8.828125h17.652344c4.875 0 8.828125 3.953125 8.828125 8.828125 0 4.871094-3.953125 8.828125-8.828125 8.828125zm0 0"/></g><path d="m503.171875 150.070312h-158.894531l17.652344-150.070312h123.585937zm0 0" fill="#61b872"/><path d="m423.722656 105.929688c-4.871094 0-8.824218-3.953126-8.824218-8.828126v-52.964843c0-4.871094 3.953124-8.828125 8.824218-8.828125 4.875 0 8.828125 3.957031 8.828125 8.828125v52.964843c0 4.875-3.953125 8.828126-8.828125 8.828126zm0 0" fill="#3d6f44"/><path d="m459.035156 88.277344c-4.875 0-8.828125-3.957032-8.828125-8.828125v-17.65625c0-4.871094 3.953125-8.828125 8.828125-8.828125 4.871094 0 8.828125 3.957031 8.828125 8.828125v17.65625c0 4.871093-3.957031 8.828125-8.828125 8.828125zm0 0" fill="#3d6f44"/><path d="m388.414062 88.277344c-4.875 0-8.828124-3.957032-8.828124-8.828125v-17.65625c0-4.871094 3.953124-8.828125 8.828124-8.828125 4.871094 0 8.828126 3.957031 8.828126 8.828125v17.65625c0 4.871093-3.957032 8.828125-8.828126 8.828125zm0 0" fill="#3d6f44"/></svg>