<svg height="512pt" viewBox="0 -11 512.001 512" width="512pt" xmlns="http://www.w3.org/2000/svg"><path d="m80.179688 451.488281h-72.679688v-412.257812h72.679688c12.515624 12.511719 19.527343 19.527343 32.042968 32.039062v348.175781c-12.515625 12.511719-19.53125 19.53125-32.042968 32.042969zm0 0" fill="#79787d"/><path d="m112.222656 181.574219c35.222656 0 63.777344 28.554687 63.777344 63.78125 0 35.222656-28.554688 63.777343-63.777344 63.777343zm0 0" fill="#ff3f62"/><g fill="#d7fc7e"><path d="m325.980469 10.609375 38.089843 38.089844c-108.4375 108.4375-108.4375 284.875 0 393.3125l-38.089843 38.089843c-129.441407-129.441406-129.441407-340.054687 0-469.492187zm0 0"/><path d="m394.640625 79.269531 38.089844 38.089844c-70.574219 70.578125-70.574219 185.414063 0 255.988281l-38.089844 38.09375c-91.578125-91.582031-91.578125-240.59375 0-332.171875zm0 0"/><path d="m463.304688 147.929688 38.089843 38.089843c-32.71875 32.71875-32.71875 85.953125 0 118.667969l-38.09375 38.09375c-53.71875-53.722656-53.71875-141.132812.003907-194.851562zm0 0"/></g><path d="m7.5 39.230469h30v412.257812h-30zm0 0" fill="#575759"/><path d="m142.222656 189.066406c-8.945312-4.773437-19.152344-7.492187-30-7.492187v127.558593c10.847656 0 21.054688-2.71875 30-7.492187zm0 0" fill="#c70024"/><path d="m341.472656 26.101562-15.492187-15.492187c-129.441407 129.4375-129.441407 340.050781 0 469.492187l15.492187-15.492187c-110.066406-124.960937-110.066406-313.546875 0-438.507813zm0 0" fill="#55e072"/><path d="m410.328125 94.953125-15.6875-15.683594c-91.578125 91.578125-91.578125 240.589844 0 332.171875l15.6875-15.6875c-72.472656-86.796875-72.472656-214.003906 0-300.800781zm0 0" fill="#55e072"/><path d="m479.457031 164.085938-16.152343-16.15625c-53.722657 53.71875-53.722657 141.128906-.003907 194.851562l16.15625-16.15625c-35.257812-48.210938-35.257812-114.328125 0-162.539062zm0 0" fill="#55e072"/><path d="m0 31.730469v427.257812h83.285156l36.4375-36.4375v-354.386719l-36.4375-36.433593zm104.722656 384.609375-27.648437 27.648437h-62.074219v-397.257812h62.074219l27.648437 27.644531zm0 0"/><path d="m438.035156 122.664062 5.304688-5.304687-48.699219-48.699219-5.300781 5.304688c-94.503906 94.503906-94.503906 248.273437 0 342.777344l5.300781 5.304687 48.699219-48.695313-5.304688-5.304687c-67.652344-67.652344-67.652344-177.730469 0-245.382813zm-43.308594 278.082032c-81.695312-87.199219-81.695312-223.585938 0-310.785156l27.503907 27.503906c-66.566407 72.015625-66.566407 183.761718 0 255.78125zm0 0"/><path d="m506.699219 191.324219 5.300781-5.304688-48.695312-48.695312-5.304688 5.300781c-56.695312 56.699219-56.695312 148.761719 0 205.457031l5.304688 5.304688 48.695312-48.699219-5.304688-5.300781c-29.8125-29.8125-29.8125-78.25.003907-108.0625zm-43.246094 140.699219c-43.929687-49.203126-43.984375-124.074219 0-173.335938l27.550781 27.546875c-28.894531 33.984375-28.875 84.277344-.003906 118.242187zm0 0"/><path d="m134.570312 177.652344-4.699218 14.246094c23.105468 7.621093 38.628906 29.105468 38.628906 53.457031 0 24.351562-15.523438 45.832031-38.628906 53.457031l4.699218 14.242188c29.265626-9.65625 48.929688-36.863282 48.929688-67.699219 0-30.839844-19.664062-58.046875-48.929688-67.703125zm0 0"/><path d="m369.375 54.003906 5.304688-5.304687-48.699219-48.699219-5.304688 5.304688c-110.164062 110.167968-128.839843 278.230468-55.011719 408.015624l13.039063-7.417968c-70.796875-124.449219-51.125-281.492188 47.339844-384.625l27.492187 27.488281c-103.511718 108.972656-105.390625 282.226563-.003906 393.175781l-27.492188 27.492188c-13.828124-14.480469-26.308593-30.207032-37.160156-46.84375l-12.5625 8.195312c12.769532 19.578125 27.695313 37.957032 44.359375 54.621094l5.300781 5.300781 48.699219-48.695312-5.300781-5.304688c-105.597656-105.59375-105.597656-277.109375 0-382.703125zm0 0"/><path d="m94.722656 409.089844h-15v-106.453125h15zm0-116.453125h-15v-15h15zm0-25h-15v-15h15zm0 0" fill="#fff"/><path d="m264.828125 209.316406-14.890625-1.796875c.609375-5.070312 1.355469-10.1875 2.210938-15.203125l14.789062 2.523438c-.816406 4.777344-1.527344 9.648437-2.109375 14.476562zm3.902344-24.066406-14.695313-3c1.015625-4.992188 2.175782-10.03125 3.441406-14.976562l14.53125 3.71875c-1.207031 4.707031-2.308593 9.503906-3.277343 14.257812zm5.847656-23.667969-14.402344-4.1875c12.214844-41.980469 32.691407-80.222656 60.863281-113.660156l11.46875 9.664063c-26.8125 31.828124-46.304687 68.226562-57.929687 108.183593zm0 0" fill="#fff"/><path d="m142.0625 280.703125-9.683594-11.453125c3.59375-3.035156 6.5-6.898438 8.410156-11.164062l13.691407 6.128906c-2.824219 6.308594-7.117188 12.011718-12.417969 16.488281zm15.839844-27.902344-14.808594-2.402343c.269531-1.65625.40625-3.355469.40625-5.042969 0-2.359375-.265625-4.707031-.785156-6.984375l14.621094-3.34375c.769531 3.367187 1.164062 6.84375 1.164062 10.328125 0 2.492187-.203125 4.996093-.597656 7.445312zm-17.976563-21.957031c-1.894531-3.59375-4.429687-6.75-7.546875-9.382812l9.683594-11.457032c4.59375 3.886719 8.34375 8.546875 11.136719 13.851563zm0 0" fill="#fff"/></svg>