<?xml version="1.0" encoding="iso-8859-1"?>
<!-- Generator: Adobe Illustrator 19.0.0, SVG Export Plug-In . SVG Version: 6.00 Build 0)  -->
<svg version="1.1" id="Capa_1" xmlns="http://www.w3.org/2000/svg" xmlns:xlink="http://www.w3.org/1999/xlink" x="0px" y="0px"
	 viewBox="0 0 512.002 512.002" style="enable-background:new 0 0 512.002 512.002;" xml:space="preserve">
<path style="fill:#F6B138;" d="M495.325,423.135c3.36-2.101,5.256-5.913,4.901-9.862c-0.149-1.661-3.976-40.99-32.097-69.111
	c-3.528-3.528-7.308-6.742-11.309-9.619c9.573-10.357,23.165-27.785,28.245-47.64c1.247-4.874-1.133-9.949-5.677-12.109
	c-2.205-1.047-39.474-18.441-84.141-20.168c34.347-21.28,77.871-53.075,103.794-90.268c3.533-5.073,1.956-12.102-3.437-15.163
	c-0.871-0.494-18.007-10.119-42.371-16.638c14.279-19.613,36.085-58.28,31.148-106.611c-0.507-4.964-4.431-8.888-9.395-9.395
	c-48.332-4.937-86.999,16.87-106.612,31.147c-6.517-24.363-16.143-41.5-16.637-42.371c-3.05-5.384-10.086-6.976-15.163-3.437
	c-37.194,25.922-68.987,69.448-90.268,103.794c-1.728-44.668-19.12-81.937-20.168-84.141c-2.161-4.544-7.235-6.923-12.108-5.676
	c-19.855,5.079-37.284,18.671-47.642,28.243c-2.876-4.001-6.09-7.78-9.618-11.308C128.646,4.68,89.319,0.855,87.659,0.706
	c-3.949-0.355-7.76,1.542-9.86,4.902C58.65,36.243,60.685,70.006,64.466,89.914c-23.98-3.19-44.053,1.012-45.086,1.234
	c-5.794,1.247-9.403,7.027-8.008,12.771c10.744,44.169,39.939,84.555,72.918,115.776l-44.409,5.174
	c-7.603,0.885-11.775,9.38-7.751,15.945c44.52,72.636-3.49,112.892-5.514,114.537c-7.416,5.898-3.825,17.868,5.612,18.709
	l86.883,7.762c8.931,90.047,5.935,88.52,10.802,93.387c4.615,4.615,12.19,3.983,15.992-1.269c1.87-2.135,11.804-12.798,28.56-19.145
	c25.753-9.754,54.573-5.042,85.654,14.008c3.061,1.876,6.866,2.062,10.095,0.493c3.229-1.57,5.434-4.678,5.85-8.244l5.174-44.409
	c1.897,2.003,3.949,4.12,6.152,6.323c0.002,0.002,0.002,0.002,0.002,0.003c24.07,24.07,62.628,55.163,109.622,66.593
	c5.745,1.396,11.525-2.217,12.77-8.008c0.223-1.032,4.425-21.105,1.235-45.085C430.926,440.247,464.69,442.282,495.325,423.135z"/>
<path style="fill:#F2902F;" d="M127.185,373.75c-44.106-121.581-1.327-258.411,106.598-332.772
	c-3.854-11.323-7.204-18.504-7.645-19.433c-2.161-4.544-7.235-6.923-12.108-5.676c-19.855,5.079-37.284,18.671-47.642,28.243
	c-2.876-4.001-6.09-7.78-9.618-11.308C128.646,4.68,89.319,0.855,87.659,0.706c-3.949-0.355-7.76,1.542-9.86,4.902
	C58.65,36.243,60.685,70.006,64.466,89.914c-23.98-3.19-44.053,1.012-45.086,1.234c-5.794,1.247-9.403,7.027-8.008,12.771
	c10.744,44.169,39.939,84.555,72.918,115.776l-44.409,5.174c-7.603,0.885-11.775,9.38-7.751,15.945
	c44.52,72.636-3.49,112.892-5.514,114.537c-7.416,5.898-3.825,17.868,5.612,18.709l86.883,7.762v0.003L127.185,373.75z"/>
<path style="fill:#6B5445;" d="M387.042,354.127c-2.405-1.271-35.056-18.342-79.444-32.164l19.637-16.42
	c3.219-2.692,3.647-7.483,0.955-10.702c-2.692-3.219-7.484-3.646-10.703-0.956l-27.469,22.968
	c-27.372-7.368-57.909-12.805-87.983-12.587c16.454-16.321,39.042-37.789,54.506-52.267l0,0c0.104-0.097,6.276-5.83,5.893-5.474
	l0.001,0.003c6.47-5.97,12.824-11.775,19.018-17.375c48.228,2.198,46.134,2.113,46.47,2.113c4.036,0,7.398-3.178,7.584-7.252
	c0.191-4.192-3.051-7.745-7.244-7.936l-30.67-1.4c52.304-46.521,90.125-76.451,90.604-76.829c3.294-2.6,3.857-7.377,1.257-10.671
	c-2.6-3.295-7.378-3.857-10.671-1.257c-0.313,0.247-16.497,13.053-42.224,34.824L335,140.977c-0.33-4.183-3.989-7.314-8.172-6.977
	c-4.183,0.33-7.306,3.988-6.977,8.172c2.472,30.087,2.051,28.777,2.679,30.531c-21.666,18.603-43.81,38.25-64.774,57.477
	l-1.934-24.522c-0.33-4.183-3.988-7.313-8.172-6.977c-4.183,0.33-7.306,3.988-6.977,8.172l2.876,36.458
	c-16.012,14.913-32.067,30.279-48.081,46.081c-0.73-27.327-5.824-54.758-12.507-79.585l22.972-27.474
	c2.691-3.219,2.264-8.011-0.955-10.703c-3.219-2.69-8.011-2.263-10.703,0.955l-16.423,19.642
	c-13.82-44.39-30.888-77.044-32.16-79.449c-1.961-3.709-6.559-5.127-10.268-3.164c-3.709,1.962-5.126,6.559-3.164,10.268
	c0.403,0.763,30.154,57.673,42.658,123.146l-20.019-10.964c-3.68-2.016-8.298-0.665-10.313,3.014
	c-2.016,3.68-0.666,8.298,3.014,10.313c30.062,16.379,28.765,15.947,30.369,16.416c1.884,14.238,2.774,28.66,2.227,42.806
	c-5.818,5.858-11.682,11.826-17.578,17.912c-10.354-4.454-30.076-12.078-53.107-16.675c-4.112-0.827-8.117,1.849-8.938,5.963
	c-0.821,4.114,1.848,8.116,5.963,8.937c18.123,3.617,34.31,9.348,44.776,13.554c-48.883,51.335-98.523,109.318-135.206,165.97
	c-2.281,3.522-1.274,8.226,2.248,10.507c1.277,0.826,2.708,1.221,4.123,1.221c2.49,0,4.93-1.223,6.384-3.469
	c36.409-56.227,85.915-113.927,134.615-164.968c4.178,9.785,11.332,28.374,15.593,49.718c0.721,3.614,3.894,6.112,7.443,6.112
	c4.815,0,8.394-4.401,7.459-9.086c-5.624-28.173-15.778-51.399-19.115-58.575c3.851-3.967,7.687-7.881,11.508-11.752
	c3.169,0.417,19.414-2.396,51.643,1.874c0.437,1.493,0.025,0.285,16.423,30.364c2.012,3.674,6.629,5.032,10.313,3.014
	c3.68-2.015,5.03-6.633,3.014-10.313L256.8,324.913c65.439,12.511,122.377,42.243,123.14,42.647
	c3.703,1.955,8.302,0.55,10.267-3.167C392.167,360.684,390.751,356.089,387.042,354.127z"/>
<g>
</g>
<g>
</g>
<g>
</g>
<g>
</g>
<g>
</g>
<g>
</g>
<g>
</g>
<g>
</g>
<g>
</g>
<g>
</g>
<g>
</g>
<g>
</g>
<g>
</g>
<g>
</g>
<g>
</g>
</svg>
