<svg height="472pt" viewBox="-111 0 472 472.32" width="472pt" xmlns="http://www.w3.org/2000/svg"><path d="m240.617188 242.371094v34.140625h-230.902344v-34.140625c0-8.835938 7.164062-16 16-16h198.902344c8.835937 0 16 7.164062 16 16zm0 0" fill="#00acea"/><path d="m223.4375 108.28125v118.089844h-196.542969v-118.089844c-.007812-54.273438 43.988281-98.277344 98.261719-98.28125h.007812c54.273438.003906 98.269532 43.996094 98.273438 98.269531zm0 0" fill="#00efd1"/><path d="m233.164062 217.914062v-109.644531c0-59.699219-48.296874-108.269531-108.007812-108.269531s-107.992188 48.574219-107.992188 108.28125v109.632812c-10.257812 3.75-17.058593 13.535157-17 24.457032v34.140625c-.085937 2.566406.886719 5.058593 2.695313 6.882812 1.808594 1.828125 4.289063 2.828125 6.855469 2.765625h40.6875l-16.128906 17.363282c-5.222657 5.628906-8.117188 13.019531-8.109376 20.695312v138.101562c0 5.523438 4.480469 10 10 10 5.523438 0 10-4.476562 10-10v-138.101562c-.003906-2.59375.960938-5.097656 2.703126-7.023438l28.957031-31.035156h93.679687l28.949219 31.027344c1.746094 1.921875 2.714844 4.433594 2.710937 7.03125v138.101562c0 5.523438 4.480469 10 10 10 5.523438 0 10-4.476562 10-10v-138.101562c.011719-7.679688-2.890624-15.078125-8.117187-20.707031l-16.117187-17.351563h41.6875c2.566406.0625 5.046874-.9375 6.855468-2.765625 1.808594-1.824219 2.78125-4.316406 2.691406-6.882812v-34.140625c.058594-10.921875-6.742187-20.707032-17-24.457032zm-108-197.914062c48.679688.078125 88.078126 39.601562 88 88.28125v107.878906h-176v-107.878906c-.074218-48.679688 39.324219-88.203125 88-88.28125zm105 246.160156h-210v-23.789062c0-3.308594 2.242188-6.210938 5.550782-6.210938h198.902344c3.304687 0 5.546874 2.898438 5.546874 6.210938zm0 0" fill="#083863"/></svg>