<?xml version="1.0" encoding="iso-8859-1"?>
<!-- Generator: Adobe Illustrator 18.0.0, SVG Export Plug-In . SVG Version: 6.00 Build 0)  -->
<!DOCTYPE svg PUBLIC "-//W3C//DTD SVG 1.1//EN" "http://www.w3.org/Graphics/SVG/1.1/DTD/svg11.dtd">
<svg version="1.1" id="Capa_1" xmlns="http://www.w3.org/2000/svg" xmlns:xlink="http://www.w3.org/1999/xlink" x="0px" y="0px"
	 viewBox="0 0 460 460" style="enable-background:new 0 0 460 460;" xml:space="preserve">
<path id="XMLID_1313_" d="M406.616,215C398.976,124.254,322.688,52.742,230,52.742S61.024,124.254,53.384,215H0v30h53.384
	C61.024,335.745,137.312,407.258,230,407.258S398.976,335.745,406.616,245H460v-30H406.616z M230,82.742
	c76.135,0,138.96,58.078,146.499,132.257H315v-67.257c0-5.434-2.939-10.443-7.683-13.094c-4.745-2.652-10.551-2.529-15.178,0.319
	L175,207.053v-59.31h-30V215H83.501C91.04,140.821,153.865,82.742,230,82.742z M285,174.586v106.313l-86.379-53.157L285,174.586z
	 M230,377.258c-76.135,0-138.96-58.078-146.499-132.258H145v62.743h30v-59.31l117.139,72.085c2.407,1.481,5.132,2.225,7.862,2.225
	c2.519,0,5.04-0.633,7.316-1.906c4.744-2.651,7.683-7.66,7.683-13.094V245h61.499C368.96,319.179,306.135,377.258,230,377.258z"/>
<g>
</g>
<g>
</g>
<g>
</g>
<g>
</g>
<g>
</g>
<g>
</g>
<g>
</g>
<g>
</g>
<g>
</g>
<g>
</g>
<g>
</g>
<g>
</g>
<g>
</g>
<g>
</g>
<g>
</g>
</svg>
