<?xml version="1.0" encoding="iso-8859-1"?>
<!-- Generator: Adobe Illustrator 19.0.0, SVG Export Plug-In . SVG Version: 6.00 Build 0)  -->
<svg version="1.1" id="Layer_1" xmlns="http://www.w3.org/2000/svg" xmlns:xlink="http://www.w3.org/1999/xlink" x="0px" y="0px"
	 viewBox="0 0 512 512" style="enable-background:new 0 0 512 512;" xml:space="preserve">
<path style="fill:#C17C3E;" d="M17.655,229.517v44.138c0,34.428,27.366,61.793,61.793,61.793h123.586
	c-7.062,37.076-8.828,76.8-8.828,113.876c0,33.545,26.483,62.676,60.028,62.676c0.883,0,2.648,0,3.531,0
	c33.545-0.883,60.028-29.131,60.028-62.676c0-36.193-1.766-75.917-8.828-113.876h123.586c34.428,0,61.793-27.366,61.793-61.793
	v-44.138H17.655z"/>
<path style="fill:#9E5A23;" d="M282.483,432.552c0-15.007-11.476-26.483-26.483-26.483s-26.483,11.476-26.483,26.483
	s11.476,26.483,26.483,26.483S282.483,447.559,282.483,432.552"/>
<path style="fill:#ECE8D8;" d="M476.69,0c9.71,0,17.655,7.945,17.655,17.655v132.414H17.655V17.655C17.655,7.945,25.6,0,35.31,0
	H476.69z"/>
<path style="fill:#9E5A23;" d="M8.828,229.517h494.345v-79.448H8.828V229.517z"/>
<g>
	<path style="fill:#C9C3A7;" d="M450.207,123.586c5.297,0,8.828-3.531,8.828-8.828V0h-17.655v114.759
		C441.379,120.055,444.91,123.586,450.207,123.586"/>
	<path style="fill:#C9C3A7;" d="M414.897,97.103c5.297,0,8.828-3.531,8.828-8.828V0h-17.655v88.276
		C406.069,93.572,409.6,97.103,414.897,97.103"/>
	<path style="fill:#C9C3A7;" d="M379.586,123.586c5.297,0,8.828-3.531,8.828-8.828V0h-17.655v114.759
		C370.759,120.055,374.29,123.586,379.586,123.586"/>
	<path style="fill:#C9C3A7;" d="M344.276,97.103c5.297,0,8.828-3.531,8.828-8.828V0h-17.655v88.276
		C335.448,93.572,338.979,97.103,344.276,97.103"/>
	<path style="fill:#C9C3A7;" d="M308.966,123.586c5.297,0,8.828-3.531,8.828-8.828V0h-17.655v114.759
		C300.138,120.055,303.669,123.586,308.966,123.586"/>
	<path style="fill:#C9C3A7;" d="M273.655,97.103c5.297,0,8.828-3.531,8.828-8.828V0h-17.655v88.276
		C264.828,93.572,268.359,97.103,273.655,97.103"/>
	<path style="fill:#C9C3A7;" d="M238.345,123.586c5.297,0,8.828-3.531,8.828-8.828V0h-17.655v114.759
		C229.517,120.055,233.048,123.586,238.345,123.586"/>
	<path style="fill:#C9C3A7;" d="M203.034,97.103c5.297,0,8.828-3.531,8.828-8.828V0h-17.655v88.276
		C194.207,93.572,197.738,97.103,203.034,97.103"/>
	<path style="fill:#C9C3A7;" d="M167.724,123.586c5.297,0,8.828-3.531,8.828-8.828V0h-17.655v114.759
		C158.897,120.055,162.428,123.586,167.724,123.586"/>
	<path style="fill:#C9C3A7;" d="M132.414,97.103c5.297,0,8.828-3.531,8.828-8.828V0h-17.655v88.276
		C123.586,93.572,127.117,97.103,132.414,97.103"/>
	<path style="fill:#C9C3A7;" d="M97.103,123.586c5.297,0,8.828-3.531,8.828-8.828V0H88.276v114.759
		C88.276,120.055,91.807,123.586,97.103,123.586"/>
	<path style="fill:#C9C3A7;" d="M61.793,97.103c5.297,0,8.828-3.531,8.828-8.828V0H52.966v88.276
		C52.966,93.572,56.497,97.103,61.793,97.103"/>
</g>
<g>
	<path style="fill:#9E5A23;" d="M79.448,264.828c0-5.297-3.531-8.828-8.828-8.828H17.655v17.655h52.966
		C75.917,273.655,79.448,270.124,79.448,264.828"/>
	<path style="fill:#9E5A23;" d="M52.966,291.31H26.483c-1.766,0-4.414,0.883-5.297,1.766c1.766,5.297,4.414,10.593,7.945,15.89
		h23.834c5.297,0,8.828-3.531,8.828-8.828S58.262,291.31,52.966,291.31"/>
</g>
<g>
</g>
<g>
</g>
<g>
</g>
<g>
</g>
<g>
</g>
<g>
</g>
<g>
</g>
<g>
</g>
<g>
</g>
<g>
</g>
<g>
</g>
<g>
</g>
<g>
</g>
<g>
</g>
<g>
</g>
</svg>
