<?xml version="1.0" encoding="iso-8859-1"?>
<!-- Generator: Adobe Illustrator 19.0.0, SVG Export Plug-In . SVG Version: 6.00 Build 0)  -->
<svg version="1.1" id="Capa_1" xmlns="http://www.w3.org/2000/svg" xmlns:xlink="http://www.w3.org/1999/xlink" x="0px" y="0px"
	 viewBox="0 0 511.999 511.999" style="enable-background:new 0 0 511.999 511.999;" xml:space="preserve">
<path style="fill:#4E7693;" d="M129.567,69.102v288.974h-30.03V69.102c0-8.292,6.729-15.01,15.02-15.01
	c4.141,0,7.896,1.685,10.605,4.394C127.883,61.206,129.567,64.951,129.567,69.102z"/>
<rect x="99.54" y="328.869" style="fill:#385F82;" width="30.03" height="29.21"/>
<path style="fill:#618BAA;" d="M455.364,471.968v33.942c0,3.363-2.726,6.089-6.089,6.089H62.725c-3.363,0-6.089-2.726-6.089-6.089
	v-33.942H455.364z"/>
<rect x="56.636" y="471.969" style="fill:#4E7693;" width="398.73" height="24.759"/>
<path style="fill:#FFB229;" d="M488.265,373.318v104.81c0,3.363-2.726,6.089-6.089,6.089H29.824c-3.363,0-6.089-2.726-6.089-6.089
	v-104.81c0-17.816,14.449-32.265,32.275-32.265h399.98C473.816,341.053,488.265,355.502,488.265,373.318z"/>
<path style="fill:#FF8B00;" d="M488.265,373.318v62.247H23.735v-62.247c0-17.816,14.449-32.265,32.275-32.265h399.98
	C473.816,341.053,488.265,355.502,488.265,373.318z"/>
<path style="fill:#618BAA;" d="M488.266,423.058H23.734v-49.735c0-17.823,14.448-32.271,32.271-32.271h399.989
	c17.823,0,32.271,14.448,32.271,32.271L488.266,423.058L488.266,423.058z"/>
<rect x="239.96" y="341.049" style="fill:#89BF4A;" width="150.6" height="82"/>
<g>
	<polygon style="fill:#C3D24C;" points="356.165,341.053 274.163,423.054 249.008,423.054 331.02,341.053 	"/>
	<polygon style="fill:#C3D24C;" points="378.04,341.053 296.039,423.054 283.393,423.054 365.405,341.053 	"/>
</g>
<g>
	<path style="fill:#FFB229;" d="M91.622,379.667h-23.63c-4.204,0-7.612-3.407-7.612-7.612c0-4.204,3.407-7.612,7.612-7.612h23.629
		c4.204,0,7.612,3.407,7.612,7.612C99.233,376.259,95.826,379.667,91.622,379.667z"/>
	<path style="fill:#FFB229;" d="M91.622,401.105h-23.63c-4.204,0-7.612-3.407-7.612-7.612c0-4.204,3.407-7.612,7.612-7.612h23.629
		c4.204,0,7.612,3.407,7.612,7.612C99.233,397.697,95.826,401.105,91.622,401.105z"/>
</g>
<g>
	<path style="fill:#C3D24C;" d="M166.474,128.53c-1.54,0-3.095-0.467-4.441-1.435c-3.411-2.456-4.186-7.212-1.73-10.624
		c6.447-8.957,9.855-19.531,9.855-30.579s-3.408-21.622-9.855-30.579c-2.456-3.412-1.681-8.169,1.73-10.624
		c3.414-2.455,8.169-1.681,10.624,1.73c8.324,11.565,12.724,25.214,12.724,39.473s-4.399,27.908-12.724,39.473
		C171.171,127.43,168.839,128.53,166.474,128.53z"/>
	<path style="fill:#C3D24C;" d="M199.548,145.866c-1.54,0-3.095-0.467-4.44-1.435c-3.412-2.456-4.187-7.212-1.731-10.623
		c10.103-14.038,15.443-30.607,15.443-47.916c0-17.31-5.34-33.879-15.443-47.917c-2.456-3.411-1.681-8.168,1.731-10.623
		c3.41-2.454,8.168-1.683,10.623,1.731c11.979,16.642,18.311,36.288,18.311,56.809s-6.332,40.166-18.311,56.808
		C204.245,144.766,201.913,145.866,199.548,145.866z"/>
	<path style="fill:#C3D24C;" d="M230.419,171.784c-1.54,0-3.095-0.466-4.44-1.435c-3.412-2.455-4.187-7.212-1.731-10.623
		c15.568-21.631,23.797-47.163,23.797-73.834c0-26.672-8.229-52.203-23.797-73.835c-2.456-3.411-1.681-8.169,1.731-10.623
		c3.411-2.455,8.17-1.681,10.623,1.731c17.445,24.237,26.665,52.844,26.665,82.727c0,29.882-9.22,58.489-26.665,82.726
		C235.116,170.684,232.784,171.784,230.419,171.784z"/>
</g>
<g>
</g>
<g>
</g>
<g>
</g>
<g>
</g>
<g>
</g>
<g>
</g>
<g>
</g>
<g>
</g>
<g>
</g>
<g>
</g>
<g>
</g>
<g>
</g>
<g>
</g>
<g>
</g>
<g>
</g>
</svg>
