<?xml version="1.0" encoding="iso-8859-1"?>
<!-- Generator: Adobe Illustrator 19.0.0, SVG Export Plug-In . SVG Version: 6.00 Build 0)  -->
<svg version="1.1" id="Capa_1" xmlns="http://www.w3.org/2000/svg" xmlns:xlink="http://www.w3.org/1999/xlink" x="0px" y="0px"
	 viewBox="0 0 512 512" style="enable-background:new 0 0 512 512;" xml:space="preserve">
<g>
	<g>
		<path d="M473.666,41.412H38.327c-21.132,0-38.324,17.196-38.324,38.334v52.337c0,0.023-0.003,0.046-0.003,0.069
			s0.003,0.046,0.003,0.069v300.032c0,21.138,17.192,38.334,38.324,38.334h435.339c21.138,0,38.334-17.196,38.334-38.334V79.746
			C512,58.608,494.804,41.412,473.666,41.412z M496.792,432.254c0,12.751-10.374,23.126-23.126,23.126H38.327
			c-12.746,0-23.116-10.374-23.116-23.126V139.756h481.581V432.254z M496.792,124.549H15.211V79.746
			c0-12.752,10.37-23.126,23.116-23.126h435.339c12.752,0,23.126,10.374,23.126,23.126V124.549z"/>
	</g>
</g>
<g>
	<g>
		<path d="M60.327,63.717c-14.814,0-26.867,12.053-26.867,26.867s12.053,26.867,26.867,26.867s26.867-12.053,26.867-26.867
			S75.142,63.717,60.327,63.717z M60.327,102.244c-6.429,0-11.659-5.23-11.659-11.659c0-6.429,5.231-11.659,11.659-11.659
			s11.659,5.23,11.659,11.659C71.987,97.013,66.756,102.244,60.327,102.244z"/>
	</g>
</g>
<g>
	<g>
		<path d="M180.979,63.717c-14.814,0-26.867,12.053-26.867,26.867s12.053,26.867,26.867,26.867s26.867-12.053,26.867-26.867
			S195.794,63.717,180.979,63.717z M180.979,102.244c-6.429,0-11.659-5.23-11.659-11.659c0-6.429,5.23-11.659,11.659-11.659
			c6.429,0,11.659,5.23,11.659,11.659C192.639,97.013,187.408,102.244,180.979,102.244z"/>
	</g>
</g>
<g>
	<g>
		<path d="M120.653,63.717c-14.814,0-26.867,12.053-26.867,26.867s12.053,26.867,26.867,26.867s26.867-12.053,26.867-26.867
			S135.467,63.717,120.653,63.717z M120.653,102.244c-6.429,0-11.659-5.23-11.659-11.659c0-6.429,5.23-11.659,11.659-11.659
			c6.429,0,11.659,5.23,11.659,11.659C132.312,97.013,127.082,102.244,120.653,102.244z"/>
	</g>
</g>
<g>
	<g>
		<path d="M160.577,158.063H41.202c-4.199,0-7.604,3.405-7.604,7.604v119.375c0,4.199,3.405,7.604,7.604,7.604h119.375
			c4.199,0,7.604-3.404,7.604-7.604V165.666C168.181,161.467,164.777,158.063,160.577,158.063z M152.974,277.438H48.806V173.27
			h104.168V277.438z"/>
	</g>
</g>
<g>
	<g>
		<path d="M315.689,158.063H196.314c-4.199,0-7.604,3.405-7.604,7.604v119.375c0,4.199,3.405,7.604,7.604,7.604h119.375
			c4.199,0,7.604-3.404,7.604-7.604V165.666C323.293,161.467,319.89,158.063,315.689,158.063z M308.085,277.438H203.918V173.27
			h104.168V277.438z"/>
	</g>
</g>
<g>
	<g>
		<path d="M470.802,158.063H351.427c-4.199,0-7.604,3.405-7.604,7.604v28.384c0,4.199,3.405,7.604,7.604,7.604
			c4.199,0,7.604-3.405,7.604-7.604v-20.78h104.168v104.168H359.03v-58.04c0-4.199-3.405-7.604-7.604-7.604
			c-4.199,0-7.604,3.405-7.604,7.604v65.644c0,4.199,3.405,7.604,7.604,7.604h119.375c4.199,0,7.604-3.404,7.604-7.604V165.666
			C478.406,161.467,475.001,158.063,470.802,158.063z"/>
	</g>
</g>
<g>
	<g>
		<path d="M160.577,305.534H41.202c-4.199,0-7.604,3.404-7.604,7.604v119.375c0,4.199,3.405,7.604,7.604,7.604h40.065
			c4.199,0,7.604-3.405,7.604-7.604c0-4.199-3.405-7.604-7.604-7.604H48.806V320.742h104.168v104.168h-46.359
			c-4.199,0-7.604,3.405-7.604,7.604c0,4.199,3.405,7.604,7.604,7.604h53.962c4.199,0,7.604-3.405,7.604-7.604V313.138
			C168.181,308.938,164.777,305.534,160.577,305.534z"/>
	</g>
</g>
<g>
	<g>
		<path d="M315.689,305.534H196.314c-4.199,0-7.604,3.404-7.604,7.604v119.375c0,4.199,3.405,7.604,7.604,7.604h119.375
			c4.199,0,7.604-3.405,7.604-7.604V313.138C323.293,308.938,319.89,305.534,315.689,305.534z M308.085,424.91H203.918V320.742
			h104.168V424.91z"/>
	</g>
</g>
<g>
	<g>
		<path d="M470.802,305.534H351.427c-4.199,0-7.604,3.404-7.604,7.604v119.375c0,4.199,3.405,7.604,7.604,7.604h119.375
			c4.199,0,7.604-3.405,7.604-7.604V313.138C478.406,308.938,475.001,305.534,470.802,305.534z M463.198,424.91H359.03V320.742
			h104.168V424.91z"/>
	</g>
</g>
<g>
</g>
<g>
</g>
<g>
</g>
<g>
</g>
<g>
</g>
<g>
</g>
<g>
</g>
<g>
</g>
<g>
</g>
<g>
</g>
<g>
</g>
<g>
</g>
<g>
</g>
<g>
</g>
<g>
</g>
</svg>
