<?xml version="1.0" encoding="iso-8859-1"?>
<!-- Generator: Adobe Illustrator 19.0.0, SVG Export Plug-In . SVG Version: 6.00 Build 0)  -->
<svg version="1.1" id="Layer_1" xmlns="http://www.w3.org/2000/svg" xmlns:xlink="http://www.w3.org/1999/xlink" x="0px" y="0px"
	 viewBox="0 0 512 512" style="enable-background:new 0 0 512 512;" xml:space="preserve">
<g>
	<g>
		<circle style="fill:#FF7F4F;" cx="256" cy="256" r="256"/>
	</g>
	<path style="fill:#FF5419;" d="M388.651,147.646l-266.792,272.1l88.121,88.121C224.911,510.576,240.288,512,256,512
		c136.494,0,248.023-106.825,255.578-241.428L388.651,147.646z"/>
	<g>
		<path style="fill:#FFEDB5;" d="M139.35,426.667h233.301c14.122,0,25.571-11.448,25.571-25.571V167.795
			c0-14.122-11.448-25.572-25.571-25.572H139.35c-14.124,0-25.572,11.448-25.572,25.572v233.301
			C113.778,415.218,125.226,426.667,139.35,426.667z"/>
	</g>
	<g>
		<path style="fill:#FDE085;" d="M372.652,142.222H257.15v284.444h115.502c14.122,0,25.571-11.448,25.571-25.571V167.793
			C398.222,153.671,386.774,142.222,372.652,142.222z"/>
	</g>
	<g>
		<path style="fill:#FFC61B;" d="M398.222,167.793c0-14.122-11.448-25.571-25.571-25.571H139.348
			c-14.122,0-25.571,11.448-25.571,25.571v40.8h284.444V167.793z"/>
	</g>
	<g>
		<path style="fill:#D48B07;" d="M398.222,167.793c0-14.122-11.448-25.571-25.571-25.571H257.15v66.37h141.072V167.793z"/>
	</g>
	<g>
		<path style="fill:#FFEDB5;" d="M170.667,176.7c-3.332,0-6.034-2.701-6.034-6.034v-56.889c0-3.332,2.701-6.034,6.034-6.034
			s6.034,2.701,6.034,6.034v56.889C176.7,173.999,173.999,176.7,170.667,176.7z"/>
	</g>
	<g>
		<path style="fill:#FFEDB5;" d="M341.333,176.7c-3.332,0-6.034-2.701-6.034-6.034v-56.889c0-3.332,2.701-6.034,6.034-6.034
			s6.034,2.701,6.034,6.034v56.889C347.367,173.999,344.666,176.7,341.333,176.7z"/>
	</g>
	<g>
		<path style="fill:#38C6D9;" d="M279.493,344.197c-26.569-6.902-47.454-27.789-54.358-54.358
			c-4.777-18.384-3.003-36.105,3.479-51.341c-28.515,12.129-48.318,40.762-47.419,73.907c1.117,41.136,34.595,74.616,75.731,75.731
			c33.146,0.9,61.776-18.904,73.907-47.419C315.597,347.2,297.877,348.974,279.493,344.197z"/>
	</g>
	<g>
		<path style="fill:#366695;" d="M279.493,344.197c-12.035-3.127-22.883-9.145-31.815-17.239l-40.908,40.907
			c13.36,12.148,30.92,19.749,50.157,20.271c33.146,0.9,61.776-18.904,73.907-47.419C315.597,347.2,297.877,348.974,279.493,344.197
			z"/>
	</g>
</g>
<g>
</g>
<g>
</g>
<g>
</g>
<g>
</g>
<g>
</g>
<g>
</g>
<g>
</g>
<g>
</g>
<g>
</g>
<g>
</g>
<g>
</g>
<g>
</g>
<g>
</g>
<g>
</g>
<g>
</g>
</svg>
