<?xml version="1.0" encoding="iso-8859-1"?>
<!-- Generator: Adobe Illustrator 19.0.0, SVG Export Plug-In . SVG Version: 6.00 Build 0)  -->
<svg version="1.1" id="Capa_1" xmlns="http://www.w3.org/2000/svg" xmlns:xlink="http://www.w3.org/1999/xlink" x="0px" y="0px"
	 viewBox="0 0 512 512" style="enable-background:new 0 0 512 512;" xml:space="preserve">
<polygon style="fill:#929298;" points="361.901,497 150.099,497 185.2,391 326.8,391 "/>
<polygon style="fill:#7C8388;" points="361.901,497 256,497 256,391 326.8,391 "/>
<rect x="121" y="482" style="fill:#5A5A5A;" width="270" height="30"/>
<rect x="256" y="482" style="fill:#444444;" width="135" height="30"/>
<path style="fill:#5A5A5A;" d="M407,211H106C48.1,211,0,258.1,0,316s48.1,105,106,105h301c57.9,0,105-47.1,105-105
	S464.9,211,407,211z"/>
<path style="fill:#444444;" d="M512,316c0,57.9-47.1,105-105,105H256V211h151C464.9,211,512,258.1,512,316z"/>
<g>
	<path style="fill:#25D9F8;" d="M415,66l-21.299,21.299C357.1,50.4,307.899,30,256,30S154.9,50.4,118.299,87.299L97,66
		c42.6-42.601,99-66,159-66S372.4,23.399,415,66z"/>
	<path style="fill:#25D9F8;" d="M330.099,150.899l-20.999,21c-13.5-13.5-33.301-20.099-53.1-20.099s-39.6,6.599-53.101,20.099
		l-20.999-21c18.898-19.199,45.899-30,74.099-30S311.201,131.7,330.099,150.899z"/>
	<path style="fill:#25D9F8;" d="M372.7,108.3l-21.3,21.3C325.901,104.099,292,90,256,90s-69.901,14.099-95.4,39.6l-21.3-21.3
		C170.501,77.1,211.901,60,256,60S341.499,77.1,372.7,108.3z"/>
</g>
<path style="fill:#FF9100;" d="M106,361c-24.814,0-45-20.186-45-45s20.186-45,45-45s45,20.186,45,45S130.814,361,106,361z"/>
<path style="fill:#EDE9E8;" d="M256,271c-24.901,0-45,20.099-45,45c0,24.899,20.099,45,45,45s45-20.101,45-45
	C301,291.099,280.901,271,256,271z"/>
<path style="fill:#00C0F1;" d="M407,361c-24.814,0-46-20.186-46-45s21.186-45,46-45s45,20.186,45,45S431.814,361,407,361z"/>
<path style="fill:#DFD7D5;" d="M256,361v-90c24.901,0,45,20.099,45,45C301,340.899,280.901,361,256,361z"/>
<g>
	<path style="fill:#00C0F1;" d="M309.101,171.899C295.6,158.399,275.799,151.8,256,151.8v-30.901c28.2,0,55.201,10.801,74.099,30
		L309.101,171.899z"/>
	<path style="fill:#00C0F1;" d="M351.4,129.6C325.901,104.099,292,90,256,90V60c44.099,0,85.499,17.1,116.7,48.3L351.4,129.6z"/>
	<path style="fill:#00C0F1;" d="M393.701,87.299C357.1,50.4,307.899,30,256,30V0c60,0,116.4,23.399,159,66L393.701,87.299z"/>
</g>
<g>
</g>
<g>
</g>
<g>
</g>
<g>
</g>
<g>
</g>
<g>
</g>
<g>
</g>
<g>
</g>
<g>
</g>
<g>
</g>
<g>
</g>
<g>
</g>
<g>
</g>
<g>
</g>
<g>
</g>
</svg>
