<?xml version="1.0" encoding="iso-8859-1"?>
<!-- Generator: Adobe Illustrator 19.0.0, SVG Export Plug-In . SVG Version: 6.00 Build 0)  -->
<svg version="1.1" id="Capa_1" xmlns="http://www.w3.org/2000/svg" xmlns:xlink="http://www.w3.org/1999/xlink" x="0px" y="0px"
	 viewBox="0 0 512 512" style="enable-background:new 0 0 512 512;" xml:space="preserve">
<g>
	<g>
		<path d="M312.69,48.243h-0.148c-5.523,0-10,4.477-10,10c0,5.523,4.477,10,10,10h0.148c5.523,0,10-4.477,10-10
			C322.689,52.72,318.213,48.243,312.69,48.243z"/>
	</g>
</g>
<g>
	<g>
		<path d="M506.846,288.567l-122.997-68.147c-3.015-1.671-6.678-1.671-9.692,0l-108.151,59.922V251.24
			c0-0.432-0.037-0.856-0.09-1.274l28.718-17.159c3.022-1.804,4.871-5.065,4.871-8.584v-37.906c2.006-0.354,3.874-1.308,5.333-2.768
			l70.236-70.235c0.045-0.045,0.076-0.089,0.114-0.133c1.736-1.799,2.808-4.241,2.808-6.938v-6h124.003c5.523,0,10-4.477,10-10
			V50.244c0-5.523-4.477-10-10-10H377.997V10.245c0-5.523-4.477-10-10-10H144.003c-5.523,0-10,4.477-10,10v29.999H10
			c-5.523,0-10,4.477-10,10v39.999c0,5.523,4.477,10,10,10h124.003v6c0,2.793,1.148,5.316,2.995,7.131l70.176,70.176
			c1.46,1.46,3.327,2.414,5.333,2.768v37.906c0,3.519,1.85,6.779,4.871,8.584l28.718,17.159c-0.053,0.418-0.09,0.841-0.09,1.274
			v40.182l-112.997,62.607L30.645,297.314l102.324-56.693l46.741,26.331c4.813,2.712,10.911,1.007,13.621-3.805
			c2.71-4.812,1.007-10.91-3.805-13.621l-51.609-29.072c-3.025-1.704-6.718-1.717-9.754-0.034L5.166,288.568
			c-3.181,1.762-5.154,5.111-5.154,8.747v136.294c0,3.636,1.973,6.985,5.154,8.747l122.997,68.146
			c1.507,0.835,3.177,1.253,4.846,1.253c1.669,0,3.339-0.417,4.846-1.253l118.151-65.461l118.151,65.461
			c1.507,0.835,3.177,1.253,4.846,1.253c1.669,0,3.339-0.417,4.846-1.253l28.681-15.891c4.831-2.676,6.578-8.763,3.901-13.593
			c-2.676-4.832-8.763-6.578-13.593-3.901l-13.835,7.666V371.352l102.998-57.066v113.43l-20.121,11.148
			c-4.831,2.677-6.578,8.763-3.901,13.593c2.677,4.831,8.763,6.579,13.593,3.901l25.273-14.003c3.181-1.762,5.154-5.111,5.154-8.747
			V297.314C512,293.678,510.027,290.329,506.846,288.567z M377.997,60.243H492v20H377.997V60.243z M134.003,80.243H20v-20h114.003
			V80.243z M123.009,484.782L20.012,427.716v-113.43l102.998,57.066V484.782z M246.006,427.716l-61.999,34.35v-37.416
			c0-5.523-4.477-10-10-10c-5.523,0-10,4.477-10,10v48.497l-21,11.635v-113.43l102.998-57.066V427.716z M154.002,68.243h116.17
			c5.523,0,10-4.477,10-10c0-5.523-4.477-10-10-10h-116.17V20.244h203.995v75.998H154.002V68.243z M218.386,166.478l-50.236-50.236
			h175.712l-50.236,50.236h-4.121h-66.998H218.386z M232.507,218.549v-32.071h46.999v32.071l-23.499,14.042L232.507,218.549z
			 M369.003,484.782l-102.998-57.066v-113.43l102.998,57.066V484.782z M379.003,354.028L276.64,297.314l102.364-56.716
			l102.364,56.716L379.003,354.028z"/>
	</g>
</g>
<g>
	<g>
		<path d="M451.401,458.484c-1.86-1.86-4.44-2.92-7.07-2.92c-2.63,0-5.21,1.06-7.07,2.92c-1.86,1.87-2.93,4.44-2.93,7.08
			c0,2.63,1.07,5.21,2.93,7.07c1.86,1.86,4.44,2.93,7.07,2.93s5.21-1.07,7.07-2.93s2.93-4.44,2.93-7.07
			C454.331,462.924,453.261,460.354,451.401,458.484z"/>
	</g>
</g>
<g>
	<g>
		<path d="M174.008,377.571c-5.523,0-10,4.477-10,10v0.117c0,5.523,4.477,10,10,10c5.523,0,10-4.477,10-10v-0.117
			C184.008,382.048,179.531,377.571,174.008,377.571z"/>
	</g>
</g>
<g>
</g>
<g>
</g>
<g>
</g>
<g>
</g>
<g>
</g>
<g>
</g>
<g>
</g>
<g>
</g>
<g>
</g>
<g>
</g>
<g>
</g>
<g>
</g>
<g>
</g>
<g>
</g>
<g>
</g>
</svg>
