<svg height="512pt" viewBox="0 -4 512 512" width="512pt" xmlns="http://www.w3.org/2000/svg"><path d="m92.691406 132.414062 9.53125-57.292968c2.117188-12.78125 13.171875-22.15625 26.128906-22.15625h255.296876c12.957031 0 24.011718 9.375 26.128906 22.15625l9.53125 57.292968zm0 0" fill="#35495e"/><path d="m370.757812 132.414062v-123.585937c0-4.875-3.953124-8.828125-8.828124-8.828125h-211.859376c-4.875 0-8.828124 3.953125-8.828124 8.828125v123.585937" fill="#d1d4d1"/><path d="m97.101562 123.585938h317.796876v185.378906h-317.796876zm0 0" fill="#547580"/><path d="m158.898438 167.722656h-26.484376c-4.875 0-8.828124-3.949218-8.828124-8.824218 0-4.878907 3.953124-8.828126 8.828124-8.828126h26.484376c4.875 0 8.824218 3.949219 8.824218 8.828126 0 4.875-3.949218 8.824218-8.824218 8.824218zm0 0" fill="#9fc9d3"/><path d="m273.65625 167.722656h-79.449219c-4.875 0-8.828125-3.949218-8.828125-8.824218 0-4.878907 3.953125-8.828126 8.828125-8.828126h79.449219c4.875 0 8.828125 3.949219 8.828125 8.828126 0 4.875-3.953125 8.824218-8.828125 8.824218zm0 0" fill="#9fc9d3"/><path d="m105.929688 123.585938v185.378906h-105.929688v-150.066406c.0585938-19.480469 15.832031-35.253907 35.308594-35.3125zm0 0" fill="#556080"/><path d="m512 158.898438v150.066406h-105.929688v-185.378906h70.621094c19.476563.058593 35.25 15.832031 35.308594 35.3125zm0 0" fill="#556080"/><path d="m476.691406 176.550781h-26.484375c-4.875 0-8.828125-3.953125-8.828125-8.828125s3.953125-8.824218 8.828125-8.824218h26.484375c4.875 0 8.824219 3.949218 8.824219 8.824218s-3.949219 8.828125-8.824219 8.828125zm0 0" fill="#65ddb9"/><path d="m476.691406 220.691406h-26.484375c-4.875 0-8.828125-3.953125-8.828125-8.828125s3.953125-8.828125 8.828125-8.828125h26.484375c4.875 0 8.824219 3.953125 8.824219 8.828125s-3.949219 8.828125-8.824219 8.828125zm0 0" fill="#ff5364"/><path d="m476.691406 264.828125h-26.484375c-4.875 0-8.828125-3.953125-8.828125-8.828125s3.953125-8.828125 8.828125-8.828125h26.484375c4.875 0 8.824219 3.953125 8.824219 8.828125s-3.949219 8.828125-8.824219 8.828125zm0 0" fill="#f0c419"/><path d="m61.792969 264.828125h-26.484375c-4.875 0-8.824219-3.953125-8.824219-8.828125s3.949219-8.828125 8.824219-8.828125h26.484375c4.875 0 8.828125 3.953125 8.828125 8.828125s-3.953125 8.828125-8.828125 8.828125zm0 0" fill="#ff5364"/><path d="m105.929688 300.136719v114.761719h-67.40625c-20.351563.785156-37.542969-14.96875-38.523438-35.3125v-79.449219zm0 0" fill="#35495e"/><path d="m512 300.136719v79.449219c-.980469 20.34375-18.171875 36.097656-38.523438 35.3125h-67.40625v-114.761719zm0 0" fill="#35495e"/><path d="m414.898438 300.136719v88.277343c0-19.5-15.8125-35.3125-35.3125-35.3125h-247.171876c-19.5 0-35.3125 15.8125-35.3125 35.3125v-88.277343zm0 0" fill="#2c3e50"/><path d="m141.242188 344.277344v70.621094h-44.140626v-35.3125c0-19.5 15.8125-35.308594 35.3125-35.308594zm0 0" fill="#2c2f38"/><path d="m414.898438 379.585938v35.3125h-44.140626v-70.621094h8.828126c19.5 0 35.3125 15.808594 35.3125 35.308594zm0 0" fill="#2c2f38"/><path d="m370.757812 344.277344v150.066406c0 4.875-3.953124 8.828125-8.828124 8.828125h-211.859376c-4.875 0-8.828124-3.953125-8.828124-8.828125v-150.066406zm0 0" fill="#d1d4d1"/><path d="m335.449219 344.277344v114.757812c0 2.34375-.921875 4.59375-2.5625 6.265625l-32.75-32.75-35.308594 35.3125-1.941406-2.738281-42.195313-59.054688-41.933594 58.789063c-1.429687-1.601563-2.214843-3.675781-2.207031-5.824219v-114.757812zm0 0" fill="#4482c3"/><path d="m264.828125 467.863281h-79.449219c-2.539062.015625-4.957031-1.082031-6.621094-3.003906l41.933594-58.789063 42.195313 59.054688zm0 0" fill="#4fba6f"/><path d="m332.886719 465.300781c-1.671875 1.640625-3.921875 2.5625-6.265625 2.5625h-61.792969l35.308594-35.3125zm0 0" fill="#4fba6f"/><path d="m307.375 344.277344c1.070312 2.816406 1.609375 5.8125 1.589844 8.824218 0 14.628907-11.855469 26.484376-26.480469 26.484376-14.628906 0-26.484375-11.855469-26.484375-26.484376-.019531-3.011718.519531-6.007812 1.589844-8.824218" fill="#f3d55b"/></svg>