<svg viewBox="0 0 512 512" xmlns="http://www.w3.org/2000/svg"><path d="m60.15625 7.5h391.6875v497h-391.6875zm0 0" fill="#ff9f4d"/><path d="m428.84375 7.5h23v497h-23zm0 0" fill="#fb900d"/><path d="m110.15625 91.894531v-34.394531h291.6875v397h-291.6875v-257.5" fill="#ecedef"/><path d="m374 197h-234v88h28v75.5c0 10.175781 8.324219 18.5 18.5 18.5s18.5-8.324219 18.5-18.5v-75.5h27.421875v43.894531c0 10.175781 8.324219 18.5 18.5 18.5s18.5-8.324219 18.5-18.5v-43.894531h104.578125zm0 0" fill="#ce4a8a"/><path d="m351 197h23v88h-23zm0 0" fill="#9b3868"/><path d="m30.960938 121.894531h450.078124v74.210938h-450.078124zm0 0" fill="#1bacd6"/><path d="m7.5 91.894531h497v74.210938h-497zm0 0" fill="#65cee3"/><path d="m481.5 91.894531h23v74.210938h-23zm0 0" fill="#1bacd6"/><path d="m504.5 84.394531h-45.15625v-76.894531c0-4.140625-3.355469-7.5-7.5-7.5h-391.6875c-4.144531 0-7.5 3.359375-7.5 7.5v76.894531h-45.15625c-4.144531 0-7.5 3.359375-7.5 7.5v74.210938c0 4.140625 3.355469 7.5 7.5 7.5h15.960938v22.5c0 4.140625 3.355468 7.5 7.5 7.5h21.695312v300.894531c0 4.140625 3.355469 7.5 7.5 7.5h391.6875c4.144531 0 7.5-3.359375 7.5-7.5v-300.894531h21.695312c4.144532 0 7.5-3.359375 7.5-7.5v-22.5h15.960938c4.144531 0 7.5-3.359375 7.5-7.5v-74.210938c0-4.140625-3.355469-7.5-7.5-7.5zm-95.15625 0v-24.75l35-34.53125v59.285157h-35zm-11.582031-34.394531h-283.871094l-35.472656-35h354.816406zm-280.105469 15h276.6875v19.394531h-276.6875zm-50-39.546875 35 34.535156v24.40625h-35zm35 178.152344v161.894531c0 4.140625 3.355469 7.5 7.5 7.5 4.140625 0 7.5-3.359375 7.5-7.5v-161.894531h14.84375v81.394531c0 4.140625 3.355469 7.5 7.5 7.5h20.5v68c0 14.335938 11.664062 26 26 26s26-11.664062 26-26v-68h12.421875v36.394531c0 14.335938 11.664063 26 26 26s26-11.664062 26-26v-36.394531h97.078125c4.144531 0 7.5-3.359375 7.5-7.5v-81.394531h12.84375v243.394531h-276.6875v-48.5c0-4.140625-3.359375-7.5-7.5-7.5-4.144531 0-7.5 3.359375-7.5 7.5v54.832031l-35 34.53125v-284.257812zm129.765625 73.894531h-27.421875c-4.144531 0-7.5 3.359375-7.5 7.5v75.5c0 6.066406-4.933594 11-11 11s-11-4.933594-11-11v-75.5c0-4.140625-3.355469-7.5-7.5-7.5h-20.5v-73h219v73h-97.078125c-4.144531 0-7.5 3.359375-7.5 7.5v43.894531c0 6.066407-4.933594 11-11 11s-11-4.933593-11-11v-43.894531c0-4.140625-3.359375-7.5-7.5-7.5zm-117.195313 184.5h283.199219l35.472657 35h-354.144532zm329.117188 24.234375-35-34.53125v-248.097656h35zm29.195312-297.628906h-435.078124v-15h435.078124zm23.460938-30h-482v-59.210938h482zm0 0" fill="#18191b"/></svg>