<?xml version='1.0' encoding='utf-8'?>
<!DOCTYPE svg PUBLIC '-//W3C//DTD SVG 1.1//EN' 'http://www.w3.org/Graphics/SVG/1.1/DTD/svg11.dtd'>
<svg version="1.1" xmlns="http://www.w3.org/2000/svg" viewBox="0 0 512 512" xmlns:xlink="http://www.w3.org/1999/xlink" enable-background="new 0 0 512 512">
  <g>
    <g>
      <rect width="20.8" x="376.1" y="54.2" height="20.8"/>
      <rect width="20.8" x="324.1" y="54.2" height="20.8"/>
      <rect width="20.8" x="272.1" y="54.2" height="20.8"/>
      <polygon points="134.8,212.3 206.6,244.6 206.6,231 149.4,207.1 206.6,183.2 206.6,169.7 134.8,199.8   "/>
      <polygon points="246.1,148.9 214.9,261.2 225.3,261.2 256.5,148.9   "/>
      <polygon points="336.6,198.8 264.8,168.6 264.8,182.1 322.1,206.1 264.8,230 264.8,243.5 336.6,212.3   "/>
      <path d="m376.1,318.4c-31.2,0-57.2,26-57.2,57.2s26,57.2 57.2,57.2c31.2,0 57.2-26 57.2-57.2s-25.9-57.2-57.2-57.2zm0,93.6c-19.8,0-36.4-16.6-36.4-36.4 0-19.8 16.6-36.4 36.4-36.4s36.4,16.6 36.4,36.4c0.1,19.8-16.6,36.4-36.4,36.4z"/>
      <path d="m486,346.6h-19.5c-1.6-4.8-3.5-9.4-5.7-13.8l13.8-13.8c5.3-5.3 5.3-13.9 0-19.2l-15.2-15.2v-273.1h-447.3v436.9c-2.30926e-14,6.2 4.2,10.4 10.4,10.4h259.9l16.6,16.6c5.3,5.3 13.9,5.3 19.2,0l13.8-13.8c4.4,2.2 9,4.2 13.8,5.7v19.5c0,7.5 6.1,13.5 13.5,13.5h32.3c7.5,0 13.5-6.1 13.5-13.5v-19.5c4.8-1.6 9.4-3.5 13.8-5.7l13.8,13.8c5.3,5.3 13.9,5.3 19.2,0l22.8-22.8c5.3-5.3 5.3-13.9 0-19.2l-13.8-13.8c2.2-4.4 4.2-9 5.7-13.8h19.4c7.5,0 13.5-6.1 13.5-13.5v-32.3c0.1-7.3-6-13.4-13.5-13.4zm-453.1-314.3h405.7v65.5h-405.7v-65.5zm243.3,401.2c-1.3,1.3-2.3,2.9-3,4.5h-241.4v-319.3h405.7v155.2c-1.8,0.7-3.5,1.7-4.9,3.1l-13.8,13.8c-4.4-2.2-9-4.2-13.8-5.7v-19.5c0-7.5-6.1-13.5-13.5-13.5h-32.3c-7.5,0-13.5,6.1-13.5,13.5v19.5c-4.8,1.6-9.4,3.5-13.8,5.7l-13.8-13.8c-5.3-5.3-13.9-5.3-19.2,0l-22.8,22.8c-5.3,5.3-5.3,13.9 0,19.2l13.8,13.8c-2.2,4.4-4.2,9-5.7,13.8h-19.5c-7.5,0-13.5,6.1-13.5,13.5v32.3c0,7.5 6.1,13.5 13.5,13.5h19.5c1.6,4.8 3.5,9.4 5.7,13.8l-13.7,13.8zm202.4-48.5h-24.6c-1.7,15.3-7.7,29.3-16.9,40.8l17.4,17.4-12.3,12.3-17.4-17.5c-11.4,9.2-25.4,15.2-40.8,16.9v24.6h-17.4v-24.6c-15.3-1.7-29.3-7.7-40.8-16.9l-17.4,17.4-12.3-12.3 17.4-17.4c-9.2-11.4-15.2-25.4-16.9-40.8h-24.6v-17.4h24.6c1.7-15.3 7.7-29.3 16.9-40.8l-17.4-17.4 12.3-12.3 17.4,17.4c11.4-9.2 25.4-15.2 40.8-16.9v-24.6h17.4v24.6c15.3,1.7 29.3,7.7 40.8,16.9l17.4-17.4 12.3,12.3-17.4,17.4c9.2,11.4 15.2,25.4 16.9,40.8h24.6v17.5z"/>
    </g>
  </g>
</svg>
