<?xml version="1.0" encoding="iso-8859-1"?>
<!-- Generator: Adobe Illustrator 19.0.0, SVG Export Plug-In . SVG Version: 6.00 Build 0)  -->
<svg version="1.1" id="Layer_1" xmlns="http://www.w3.org/2000/svg" xmlns:xlink="http://www.w3.org/1999/xlink" x="0px" y="0px"
	 viewBox="0 0 512 512" style="enable-background:new 0 0 512 512;" xml:space="preserve">
<path style="fill:#EA3D3D;" d="M512,329.555h-81.233c-9.628-85.019-64.412-156.339-139.803-189.384
	c-28.959-12.698-60.964-19.749-94.62-19.749C114.447,120.422,42.308,162.158,0,225.516C40.525,129.998,135.171,63.01,245.468,63.01
	c26.28,0,51.674,3.799,75.652,10.889C431.482,106.502,512,208.629,512,329.555z"/>
<path style="fill:#E8B33F;" d="M440.147,121.555L221.042,398.319c-10.741,13.49-8.512,33.133,4.979,43.873
	c13.49,10.741,33.133,8.511,43.873-4.979c1.497-1.881,3.903-5.855,3.903-5.855l4.196-7.814L440.147,121.555z"/>
<path style="fill:#383A42;" d="M242.576,434.478c-5.908,0-11.281-3.818-13.281-9.357c-1.956-5.418-0.296-11.673,4.062-15.435
	c4.659-4.023,11.559-4.501,16.756-1.234c4.875,3.065,7.41,9.029,6.287,14.667C255.105,429.624,249.224,434.478,242.576,434.478z"/>
<g>
</g>
<g>
</g>
<g>
</g>
<g>
</g>
<g>
</g>
<g>
</g>
<g>
</g>
<g>
</g>
<g>
</g>
<g>
</g>
<g>
</g>
<g>
</g>
<g>
</g>
<g>
</g>
<g>
</g>
</svg>
