<?xml version="1.0" encoding="iso-8859-1"?>
<!-- Generator: Adobe Illustrator 19.0.0, SVG Export Plug-In . SVG Version: 6.00 Build 0)  -->
<svg version="1.1" id="Capa_1" xmlns="http://www.w3.org/2000/svg" xmlns:xlink="http://www.w3.org/1999/xlink" x="0px" y="0px"
	 viewBox="0 0 512 512" style="enable-background:new 0 0 512 512;" xml:space="preserve">
<path style="fill:#F2D422;" d="M47.451,399.339c-41.77-11.778-48.725-36.269-29.707-50.385
	c19.907-14.744,39.414-19.961,171.238-66.826l5.332,48.179L100,364.08c-15.768,5.676-18.165,13.654-5.379,17.818
	c12.792,4.176,35.943,3.017,51.702-2.632l49.773-18.17l-7.114,47.506c-2.715,0.494-5.719,0.959-8.522,1.447
	C137.77,416.999,92.293,414.114,47.451,399.339"/>
<g>
	<path style="fill:#F4BD25;" d="M146.323,379.266c-12.94,4.638-30.858,6.247-43.938,4.363c-5,11.402,33.21,15.744,59.493,6.324
		l31.626-11.545l2.592-17.311L146.323,379.266z"/>
	<path style="fill:#F4BD25;" d="M33.299,359.642c17.633-13.06,47.58-22.864,47.58-22.864l109.831-39.046l-1.727-15.603
		c-131.55,46.768-151.288,52.05-171.238,66.826C1.627,360.917,4.173,380.327,30.744,393.14
		C19.641,381.728,21.232,368.598,33.299,359.642z"/>
</g>
<path style="fill:#4A94CC;" d="M262.383,415.041l151.759-54.1c15.769-5.642,18.155-13.652,5.376-17.817
	c-12.788-4.213-35.929-2.97-51.667,2.655l-104.831,36.947l12.339-56.224l5.379-1.808c0,0,26.7-9.429,64.235-13.593
	c37.576-4.13,83.579,0.58,119.728,14.265c40.674,12.869,45.262,31.8,34.922,44.848c-10.36,13.051-35.681,22.365-35.681,22.365
	l-188.583,67.749L262.383,415.041z"/>
<g>
	<path style="fill:#2884BC;" d="M427.521,348.901c1.257,3.905-3.35,8.451-13.379,12.04l-151.759,54.1l4.326,15.098l169.742-61.048
		C458.072,361.357,452.997,350.274,427.521,348.901z"/>
	<path style="fill:#2884BC;" d="M303.046,332.843c0,0,26.7-9.429,64.235-13.593c34.687-3.813,76.538-0.073,111.207,11.286
		c-36.873-16.46-88.616-24.372-133.516-19.437c-37.535,4.165-64.235,13.593-64.235,13.593l-5.379,1.808l-4.225,19.25
		L303.046,332.843z"/>
</g>
<path style="fill:#EA473B;" d="M307.844,84.2c-25.465-8.602-70.351-22.213-105.775-29.927c-1.746-0.338-13.085-1.966-13.085,12.754
	v365.913l86.291,27.385V140.483c0-14.943,6.67-24.988,17.47-21.526c14.072,3.915,16.823,17.725,16.823,32.693v120.131
	c0,7.105,5.105,9.857,5.813,10.203c50.999,21.396,90.287-5.123,90.287-71.167C405.668,140.461,380.913,109.22,307.844,84.2z"/>
<g>
	<path style="fill:#D82B27;" d="M336.474,281.985c-0.707-0.347-5.813-3.097-5.813-10.203V151.649
		c0-14.968-2.751-28.778-16.823-32.693c-5.554-1.78-10.011,0.018-13.035,4.211c7.135,6.17,8.766,16.982,8.766,28.482v120.131
		c0,7.105,5.105,9.857,5.813,10.203c15.689,6.582,30.267,8.623,42.936,6.38C351.353,287.272,344.044,285.16,336.474,281.985z"/>
	<path style="fill:#D82B27;" d="M210.076,432.939c0-391.13-1.394-371.364,3.253-376.094c-3.832-0.912-7.599-1.775-11.261-2.572
		c-1.746-0.338-13.085-1.966-13.085,12.754v365.913l21.094,6.694V432.939z"/>
</g>
<polygon style="fill:#29A53D;" points="188.983,378.979 188.983,363.751 166.623,371.883 "/>
<polygon style="fill:#2884BC;" points="188.983,297.396 188.983,282.127 166.291,290.194 "/>
<polygon style="fill:#F2D422;" points="287.706,405.973 275.359,410.37 275.359,460.325 361.48,429.385 "/>
<polygon style="fill:#F4BD25;" points="275.359,427.029 312.249,413.761 287.768,405.992 275.359,410.416 "/>
<path style="fill:#3BBC56;" d="M283.868,323.663c-2.033,0.643-3.131,1.03-3.131,1.03l-5.379,1.808v51.872l85.72-30.207
	L283.868,323.663z"/>
<path style="fill:#29A53D;" d="M303.046,332.843c0,0,1.698-0.599,4.833-1.561l-24.011-7.62c-0.013,0.004-0.027,0.009-0.042,0.013
	c-1.247,0.395-2.139,0.692-2.633,0.86h-0.001c-0.194,0.066-0.326,0.111-0.395,0.135c-0.03,0.011-0.059,0.021-0.059,0.021
	l-5.379,1.808v17.541L303.046,332.843z"/>
<path style="fill:#3BBC56;" d="M408.107,363.091l-126.841,45.175l73.803,23.422c116.73-41.935,112.687-39.985,124.068-46.055
	L408.107,363.091z"/>
<polygon style="fill:#29A53D;" points="281.332,408.287 305.842,416.065 432.028,370.682 408.11,363.092 "/>
<path style="fill:#3BBC56;" d="M172.007,288.163C50.808,331.251,56.432,329.028,45.921,333.577l73.843,23.435l69.22-24.759V293.55
	L172.007,288.163z"/>
<path style="fill:#29A53D;" d="M45.921,333.577l23.426,7.434c6.801-2.683,11.533-4.234,11.533-4.234l108.104-38.433v-4.795
	l-16.977-5.387C43.286,333.925,58.583,328.21,45.921,333.577z"/>
<path d="M505.606,374.953c12.227-15.428,10.649-41.22-38.4-56.802c-37.414-14.117-84.284-18.902-123.075-14.638
	c-29.206,3.241-51.824,9.533-61.222,12.446V140.484c0-7.631,2.079-12.563,4.14-14.067c0.392-0.286,1.21-0.882,3.367-0.19
	c0.095,0.031,0.188,0.059,0.284,0.085c5.834,1.623,11.235,5.816,11.235,25.339v127.72c0,2.93,1.676,5.601,4.316,6.874
	c26.986,13.024,52.56,14.084,72.011,2.985c19.935-11.374,31.863-33.879,34.495-65.081c0.354-4.201-2.764-7.894-6.966-8.249
	c-4.182-0.359-7.894,2.763-8.248,6.965c-2.189,25.968-11.474,44.331-26.846,53.103c-13.985,7.98-32.847,7.417-53.493-1.5v-122.82
	c0-9.229-0.001-33.712-22.273-40.009c-6.105-1.913-12.096-1.048-16.88,2.442c-6.712,4.898-10.408,14.273-10.408,26.401v309.411
	l-71.024-22.54c0-4.996,0-359.201,0-366.441c4.43,0.929,9.171,1.991,14.181,3.176c4.096,0.974,8.215-1.567,9.186-5.67
	c0.97-4.103-1.568-8.216-5.671-9.186c-8.839-2.092-16.893-3.814-23.94-5.118c-2.23-0.412-4.528,0.187-6.271,1.637
	c-1.744,1.45-2.752,3.601-2.752,5.869v225.12l-28.555,10.152C47.238,324.419-5.742,337.109,0.493,371.032
	c2.829,15.382,19.126,28.355,44.726,35.608c42.877,14.102,89.25,18.554,136.131,10.993v15.306c0,3.326,2.154,6.27,5.324,7.276
	l86.291,27.385c4.191,1.329-3.31,2.885,156.776-54.626C453.586,404.408,490.283,394.256,505.606,374.953z M114.044,376.77
	c-5.516,0-12.894-0.533-18.025-2.468c3.516-2.188,0.127-0.735,85.33-31.21v15.312c-0.136,0.05-17.34,6.307-17.34,6.307
	C144.465,371.82,134.217,376.77,114.044,376.77z M172.146,296.216l9.204,2.921v27.739l-61.733,22.08L68.991,332.89
	C81.465,328.455,160.389,300.395,172.146,296.216z M49.84,392.088c-0.105-0.035-0.211-0.067-0.318-0.097
	c-23.058-6.503-32.689-16.517-34.014-23.721c-1.089-5.928,3.089-10.443,6.78-13.183c6.866-5.086,15.883-9.702,24.073-13.362
	l49.563,15.73c-14.265,5.522-17.229,12.567-17.152,17.581c0.214,14.013,21.256,17,35.27,17c22.573,0,34.425-5.428,52.746-12.092
	l14.559,4.62v17.589C136.482,409.631,92.386,406.107,49.84,392.088z M345.807,318.687c38.412-4.223,83.123,1.298,116.191,13.816
	c0.132,0.05,0.266,0.097,0.4,0.139c18.088,5.722,42.974,18.018,31.246,32.823c-3.462,4.36-9.367,8.494-15.327,11.898l-49.328-15.654
	c12.193-9.756,9.274-28.724-28.759-28.724c-15.967,0-26.909,2.773-39.279,7.131l-49.647-15.755
	C320.993,322.249,332.73,320.138,345.807,318.687z M384.573,412.978l-29.653,10.653l-49.728-15.782
	c21.801-7.764,81.216-28.926,103.057-36.704l49.259,15.632L384.573,412.978z M282.993,331.989c0.039-0.013,0.905-0.308,0.905-0.308
	l53.138,16.864l-54.043,19.044V331.989z M282.91,399.577v-15.771l80.707-28.44l0,0l6.805-2.398
	c14.285-5.105,35.707-6.218,46.732-2.585c0.36,0.117,0.687,0.232,0.982,0.345c-1.392,0.866-3.501,1.931-6.554,3.023
	C406.28,355.637,294.569,395.425,282.91,399.577z M282.993,416.822l48.253,15.313l-48.253,17.335V416.822z"/>
<path d="M246.125,73.268c19.932,5.57,42.091,12.361,59.246,18.155c62.743,21.482,86.728,46.92,91.661,97.206
	c0.387,3.942,3.708,6.889,7.588,6.889c0.249,0,0.501-0.012,0.754-0.037c4.196-0.412,7.263-4.147,6.851-8.343
	c-5.569-56.773-33.189-86.629-101.938-110.169c-17.426-5.887-39.877-12.768-60.053-18.406c-4.067-1.139-8.272,1.238-9.407,5.298
	C239.693,67.922,242.065,72.133,246.125,73.268z"/>
<g>
</g>
<g>
</g>
<g>
</g>
<g>
</g>
<g>
</g>
<g>
</g>
<g>
</g>
<g>
</g>
<g>
</g>
<g>
</g>
<g>
</g>
<g>
</g>
<g>
</g>
<g>
</g>
<g>
</g>
</svg>
