<svg height="511pt" viewBox="-21 0 511 511.99905" width="511pt" xmlns="http://www.w3.org/2000/svg"><path d="m470.382812 207.742188v-23.347657c0-6.066406-3.65625-11.535156-9.261718-13.859375-5.605469-2.3125-12.054688-1.039062-16.347656 3.253906l-30.003907 30c-7.96875-16.722656-5.042969-37.382812 8.789063-51.214843 27.257812-27.257813 36.367187-65.894531 27.324218-100.75-4.527343-17.507813-13.640624-33.753907-27.324218-47.433594-4.390625-4.390625-11.050782-5.621094-16.730469-3.085937-5.671875 2.53125-9.191406 8.316406-8.851563 14.527343.019532.332031 1.335938 33.710938-16.84375 51.890625-6.195312 6.191406-14.863281 10.804688-25.765624 13.703125-15.585938 4.144531-29.726563 10.027344-42.25 17.554688.140624-3.648438 1.589843-7.261719 4.375-10.046875l21.214843-21.210938c4.289063-4.292968 5.570313-10.734375 3.25-16.347656-2.316406-5.601562-7.789062-9.25-13.851562-9.257812h-23.347657c-43.671874 0-84.734374 17.007812-115.613281 47.886718-20.46875 20.46875-35.164062 46.023438-42.488281 73.871094-7.109375 27.015625-7.175781 55.597656-.21875 82.652344.671875 2.59375 2.027344 4.972656 3.921875 6.867187l108.75 108.746094c1.894531 1.894531 4.269531 3.25 6.863281 3.921875 27.054688 6.957031 55.636719 6.886719 82.65625-.21875 27.84375-7.324219 53.390625-22.027344 73.863282-42.496094 30.878906-30.878906 47.890624-71.933594 47.890624-115.605468zm0 0" fill="#ffb739"/><path d="m422.492188 323.347656c-20.472657 20.46875-46.019532 35.171875-73.863282 42.496094-27.019531 7.105469-55.601562 7.175781-82.65625.21875-2.59375-.671875-4.96875-2.027344-6.863281-3.921875l-59.273437-59.269531 251.046874-251.046875c9.042969 34.855469-.066406 73.492187-27.324218 100.75-13.832032 13.832031-16.757813 34.492187-8.789063 51.214843l30.003907-30c4.292968-4.292968 10.742187-5.566406 16.347656-3.253906 5.605468 2.324219 9.261718 7.792969 9.261718 13.859375v23.347657c0 43.671874-17.011718 84.726562-47.890624 115.605468zm0 0" fill="#f67a21"/><path d="m73.753906 502.382812-63.636718-63.640624c-5.859376-5.855469-5.859376-15.355469 0-21.210938l190.917968-190.921875c5.859375-5.855469 15.355469-5.855469 21.214844 0l63.636719 63.640625c29.152343 29.148438-12.554688 97.410156-63.640625 148.492188-51.082032 51.085937-119.339844 92.789062-148.492188 63.640624zm0 0" fill="#292929"/><path d="m10.117188 438.742188c-29.152344-29.148438 12.554687-97.40625 63.640624-148.492188 51.082032-51.082031 119.34375-92.789062 148.492188-63.640625 29.148438 29.152344-12.554688 97.410156-63.640625 148.492187-51.085937 51.085938-119.34375 92.792969-148.492187 63.640626zm0 0" fill="#5a5a5a"/></svg>