<?xml version="1.0" encoding="iso-8859-1"?>
<!-- Generator: Adobe Illustrator 19.0.0, SVG Export Plug-In . SVG Version: 6.00 Build 0)  -->
<svg version="1.1" id="Capa_1" xmlns="http://www.w3.org/2000/svg" xmlns:xlink="http://www.w3.org/1999/xlink" x="0px" y="0px"
	 viewBox="0 0 512 512" style="enable-background:new 0 0 512 512;" xml:space="preserve">
<path style="fill:#435256;" d="M113.358,428.052l-29.406-29.406c-5.424-5.424-5.424-14.219,0-19.643l32.388-32.388l49.049,49.049
	l-32.388,32.388C127.577,433.477,118.782,433.477,113.358,428.052z"/>
<path style="fill:#334144;" d="M98.655,413.349l14.703,14.703c5.424,5.424,14.219,5.424,19.643,0l32.388-32.388l-24.524-24.524
	L98.655,413.349z"/>
<path style="fill:#35E5E5;" d="M312.455,326.82L185.184,199.549c-5.072-5.072-5.072-13.296,0-18.368L355.02,11.345
	c5.072-5.072,13.296-5.072,18.368,0l127.271,127.271c5.072,5.072,5.072,13.296,0,18.368L330.823,326.82
	C325.751,331.893,317.527,331.893,312.455,326.82z"/>
<path style="fill:#28CEC9;" d="M500.66,138.616l-37.112-37.112c5.072,5.072,5.072,13.296,0,18.368L293.711,289.708
	c-5.072,5.072-13.296,5.072-18.368,0l37.112,37.112c5.072,5.072,13.296,5.072,18.368,0l169.836-169.836
	C505.732,151.912,505.732,143.688,500.66,138.616z"/>
<path style="fill:#FFFCFD;" d="M387.02,24.977l-46.418,46.418c-4.582,4.582-4.582,12.012,0,16.594l83.414,83.414
	c4.582,4.582,12.012,4.582,16.594,0l46.418-46.418L387.02,24.977z"/>
<path style="fill:#DFEAEF;" d="M396.701,275.541L236.463,115.304c-4.57-4.57-11.979-4.57-16.549,0l-86.706,86.706
	c-0.746,0.746-1.331,1.638-1.718,2.62L83.031,327.554c-2.739,6.949-1.095,14.861,4.187,20.142l77.09,77.09
	c5.282,5.282,13.193,6.926,20.142,4.187l122.924-48.459c0.982-0.387,1.874-0.972,2.62-1.718L396.7,292.09
	C401.271,287.521,401.271,280.111,396.701,275.541z"/>
<path style="fill:#BFCFD6;" d="M396.701,275.541l-37.113-37.113c4.57,4.57,4.57,11.979,0,16.549l-86.706,86.706
	c-0.746,0.746-1.638,1.331-2.62,1.718L147.338,391.86c-6.949,2.739-14.861,1.095-20.142-4.187l37.113,37.113
	c5.282,5.282,13.193,6.926,20.142,4.187l122.925-48.459c0.982-0.387,1.873-0.972,2.62-1.718l86.706-86.706
	C401.271,287.521,401.271,280.111,396.701,275.541z"/>
<path style="fill:#435256;" d="M255.21,256.794L255.21,256.794c-10.31-10.31-10.31-27.026,0-37.336l72.828-72.828
	c1.945-1.945,5.098-1.945,7.042,0l30.293,30.293c1.945,1.945,1.945,5.098,0,7.042l-72.828,72.828
	C282.236,267.104,265.52,267.104,255.21,256.794z"/>
<path style="fill:#334144;" d="M365.374,176.924l-15.147-15.147l-95.017,95.017l0,0l0,0c10.31,10.31,27.026,10.31,37.336,0
	l72.828-72.828C367.319,182.021,367.319,178.869,365.374,176.924z"/>
<path d="M145.142,284.427c-2.946-2.945-7.72-2.945-10.666,0c-2.945,2.945-2.945,7.72,0,10.665l82.437,82.436
	c1.473,1.472,3.403,2.209,5.333,2.209c1.929,0,3.86-0.736,5.333-2.209c2.945-2.945,2.945-7.72,0-10.665L145.142,284.427z"/>
<path d="M133.589,327.902c-2.946-2.945-7.72-2.945-10.666,0c-2.945,2.945-2.945,7.72,0,10.665l50.513,50.513
	c1.473,1.472,3.403,2.209,5.333,2.209c1.929,0,3.86-0.736,5.333-2.209c2.945-2.945,2.945-7.72,0-10.665L133.589,327.902z"/>
<path d="M171.161,276.696c1.473,1.472,3.403,2.209,5.333,2.209s3.86-0.736,5.333-2.209c2.945-2.945,2.945-7.72,0-10.665
	l-17.524-17.524c-2.946-2.945-7.72-2.945-10.666,0c-2.945,2.945-2.945,7.72,0,10.665L171.161,276.696z"/>
<path d="M210.266,294.471c-2.946-2.945-7.72-2.945-10.666,0c-2.945,2.945-2.945,7.72,0,10.665l53.232,53.232
	c1.473,1.472,3.403,2.209,5.333,2.209s3.86-0.736,5.333-2.209c2.945-2.945,2.945-7.72,0-10.665L210.266,294.471z"/>
<path d="M340.413,141.299c-2.364-2.365-5.509-3.668-8.854-3.668c-3.343,0-6.488,1.303-8.854,3.667l-72.826,72.828
	c-6.411,6.411-9.942,14.934-9.942,24s3.531,17.589,9.941,24h0.001c6.616,6.617,15.308,9.925,23.999,9.925
	c8.692,0,17.384-3.308,24.001-9.925l72.826-72.827c2.365-2.365,3.668-5.51,3.668-8.855s-1.303-6.49-3.667-8.854L340.413,141.299z
	 M287.215,251.462c-7.354,7.352-19.316,7.353-26.672,0h0.001c-3.562-3.562-5.524-8.298-5.524-13.336s1.962-9.774,5.524-13.336
	l71.016-71.017l26.671,26.671L287.215,251.462z"/>
<path d="M505.993,133.284L378.72,6.012C374.843,2.135,369.688,0,364.204,0c-5.484,0-10.639,2.135-14.517,6.013L243.762,111.938
	l-1.967-1.967c-7.502-7.502-19.71-7.504-27.214,0l-86.707,86.707c-1.484,1.484-2.628,3.227-3.401,5.187L76.015,324.789
	c-3.842,9.747-1.539,20.832,5.87,28.24l8.688,8.688l-11.954,11.954c-8.355,8.356-8.355,21.952,0,30.308l9.371,9.371L2.214,499.126
	c-2.945,2.945-2.945,7.719,0,10.665c2.945,2.945,7.72,2.945,10.665,0l85.776-85.776l9.37,9.37c4.178,4.178,9.666,6.267,15.154,6.267
	c5.489,0,10.977-2.089,15.155-6.267l11.953-11.953l8.688,8.688c5.028,5.028,11.75,7.705,18.597,7.705c3.242,0,6.512-0.6,9.644-1.834
	l122.922-48.459c1.956-0.771,3.702-1.915,5.189-3.402l86.707-86.706c7.502-7.502,7.502-19.711,0-27.214l-1.967-1.967
	l105.925-105.925C513.996,154.313,513.996,141.288,505.993,133.284z M476.363,124.985l-41.086,41.085
	c-0.791,0.792-1.844,1.228-2.963,1.228c-1.12,0-2.173-0.436-2.964-1.228l-6.543-6.543l44.05-44.049L476.363,124.985z
	 M456.191,104.813l-44.05,44.049l-9.223-9.223l44.05-44.049L456.191,104.813z M436.303,84.925l-44.05,44.049l-9.223-9.223
	l44.05-44.049L436.303,84.925z M416.415,65.037l-44.05,44.049l-9.223-9.223l44.049-44.049L416.415,65.037z M387.019,35.641
	l9.507,9.507l-44.049,44.049l-6.543-6.543c-1.635-1.634-1.635-4.294,0-5.929L387.019,35.641z M127.668,422.72
	c-2.474,2.474-6.503,2.475-8.978,0l-29.406-29.406c-2.475-2.475-2.475-6.503,0-8.979l11.953-11.953l19.192,19.192l19.192,19.192
	L127.668,422.72z M495.327,151.652L389.402,257.577L377.3,245.475l-8.277-8.278c-2.945-2.945-7.719-2.946-10.666,0
	c-2.945,2.945-2.945,7.72,0,10.665l2.564,2.564l0,0l12.55,12.55l10.598,10.598c0.001,0.001,0.003,0.002,0.004,0.004l7.296,7.296
	c1.622,1.623,1.623,4.263,0,5.885l-86.76,86.741l-122.923,48.459c-4.159,1.64-8.886,0.656-12.044-2.503L92.55,342.364
	c-3.159-3.159-4.142-7.887-2.503-12.044l48.492-122.977l86.708-86.707c1.622-1.624,4.261-1.622,5.883,0l28.217,28.217l4.795,4.795
	c2.946,2.945,7.72,2.946,10.666,0c2.945-2.945,2.945-7.72,0-10.665l-4.795-4.795l-15.585-15.585L360.353,16.678
	c1.028-1.029,2.396-1.595,3.851-1.595c1.454,0,2.823,0.567,3.851,1.595l8.299,8.299l-41.086,41.085
	c-7.514,7.515-7.514,19.743,0,27.258l83.415,83.415c3.64,3.64,8.481,5.646,13.63,5.646c5.148,0,9.989-2.005,13.629-5.646
	l41.085-41.085l8.299,8.299C497.451,146.073,497.451,149.528,495.327,151.652z"/>
<g>
</g>
<g>
</g>
<g>
</g>
<g>
</g>
<g>
</g>
<g>
</g>
<g>
</g>
<g>
</g>
<g>
</g>
<g>
</g>
<g>
</g>
<g>
</g>
<g>
</g>
<g>
</g>
<g>
</g>
</svg>
