<svg height="436pt" viewBox="0 -34 436.90913 436" width="436pt" xmlns="http://www.w3.org/2000/svg"><path d="m218.453125 362.269531c-97.871094 0-177.492187-79.625-177.492187-177.496093h27.308593c0 82.8125 67.371094 150.1875 150.183594 150.1875 40.113281 0 77.828125-15.621094 106.203125-43.988282l19.304688 19.308594c-33.527344 33.527344-78.101563 51.988281-125.507813 51.988281zm177.496094-177.496093h-27.308594c0-82.8125-67.375-150.183594-150.1875-150.183594-40.113281 0-77.824219 15.621094-106.199219 43.988281l-19.304687-19.308594c33.523437-33.527343 78.097656-51.988281 125.503906-51.988281 97.875 0 177.496094 79.621094 177.496094 177.492188zm0 0" fill="#5c9eff"/><g fill="#0e65e5"><path d="m218.453125 369.09375c-101.632813 0-184.320313-82.683594-184.320313-184.320312 0-3.769532 3.054688-6.824219 6.828126-6.824219h27.308593c3.773438 0 6.824219 3.054687 6.824219 6.824219 0 79.046874 64.316406 143.359374 143.359375 143.359374 38.289063 0 74.289063-14.910156 101.375-41.988281 2.664063-2.664062 6.984375-2.667969 9.652344 0l19.304687 19.308594c2.667969 2.667969 2.667969 6.992187 0 9.65625-34.808594 34.8125-81.097656 53.984375-130.332031 53.984375zm-170.53125-177.492188c3.597656 90.953126 78.710937 163.839844 170.53125 163.839844 43.300781 0 84.148437-16.015625 115.761719-45.253906l-9.660156-9.664062c-29.035157 26.660156-66.449219 41.265624-106.101563 41.265624-84.285156 0-153.277344-66.765624-156.863281-150.1875zm348.027344 0h-27.308594c-3.773437 0-6.824219-3.058593-6.824219-6.828124 0-79.046876-64.316406-143.359376-143.363281-143.359376-38.285156 0-74.285156 14.914063-101.371094 41.992188-2.664062 2.664062-6.988281 2.664062-9.652343-.003906l-19.308594-19.308594c-2.664063-2.664062-2.664063-6.988281 0-9.652344 34.8125-34.8125 81.097656-53.988281 130.332031-53.988281 101.636719 0 184.320313 82.6875 184.320313 184.320313 0 3.769531-3.050782 6.828124-6.824219 6.828124zm-20.628907-13.652343h13.667969c-3.601562-90.957031-78.714843-163.839844-170.535156-163.839844-43.304687 0-84.144531 16.015625-115.757813 45.253906l9.660157 9.664063c29.039062-26.664063 66.445312-41.265625 106.097656-41.265625 84.289063 0 153.28125 66.765625 156.867187 150.1875zm0 0"/><path d="m300.375 266.695312c0-7.542968-36.675781-13.652343-81.921875-13.652343-45.242187 0-81.917969 6.109375-81.917969 13.652343 0 7.539063 36.675782 13.652344 81.917969 13.652344 45.246094 0 81.921875-6.113281 81.921875-13.652344zm0 0"/><path d="m218.453125 287.175781c-33.144531 0-88.746094-2.660156-88.746094-20.480469 0-17.820312 55.601563-20.480468 88.746094-20.480468 33.148437 0 88.75 2.660156 88.75 20.480468 0 17.820313-55.601563 20.480469-88.75 20.480469zm-70.117187-20.480469c10.511718 3.171876 34.152343 6.824219 70.117187 6.824219 35.96875 0 59.609375-3.652343 70.121094-6.824219-10.511719-3.171874-34.152344-6.828124-70.121094-6.828124-35.964844 0-59.605469 3.65625-70.117187 6.828124zm146.105468 2.574219h.066406zm0 0"/></g><path d="m54.613281 89.203125 47.789063 95.570313h-95.574219zm0 0" fill="#94c1ff" fill-rule="evenodd"/><path d="m102.402344 191.601562h-95.574219c-2.367187 0-4.558594-1.226562-5.804687-3.238281-1.246094-2.011719-1.363282-4.523437-.300782-6.640625l47.785156-95.574218c2.320313-4.625 9.894532-4.625 12.214844 0l47.785156 95.574218c1.058594 2.113282.945313 4.628906-.300781 6.640625-1.246093 2.011719-3.4375 3.238281-5.804687 3.238281zm-84.527344-13.652343h73.480469l-36.742188-73.484375zm0 0" fill="#0e65e5"/><path d="m382.292969 280.347656-47.785157-95.574218h95.574219zm0 0" fill="#94c1ff" fill-rule="evenodd"/><path d="m382.292969 287.175781c-2.585938 0-4.945313-1.460937-6.105469-3.773437l-47.785156-95.574219c-1.0625-2.117187-.949219-4.628906.300781-6.644531 1.246094-2.011719 3.4375-3.234375 5.804687-3.234375h95.574219c2.367188 0 4.558594 1.222656 5.804688 3.234375 1.246093 2.015625 1.359375 4.527344.300781 6.644531l-47.785156 95.574219c-1.160156 2.3125-3.519532 3.773437-6.109375 3.773437zm-36.738281-95.574219 36.738281 73.480469 36.742187-73.480469zm0 0" fill="#0e65e5"/><path d="m163.839844 184.773438h109.226562v81.921874h-109.226562zm0 0" fill="#d7e9ff"/><path d="m273.066406 273.519531h-109.226562c-3.773438 0-6.824219-3.054687-6.824219-6.824219v-81.921874c0-3.769532 3.050781-6.824219 6.824219-6.824219h109.226562c3.773438 0 6.828125 3.054687 6.828125 6.824219v81.921874c0 3.769532-3.054687 6.824219-6.828125 6.824219zm-102.398437-13.652343h95.574219v-68.265626h-95.574219zm0 0" fill="#0e65e5"/><path d="m204.800781 225.734375h27.308594v40.960937h-27.308594zm0 0" fill="#94c1ff" fill-rule="evenodd"/><path d="m232.109375 273.519531h-27.308594c-3.773437 0-6.828125-3.054687-6.828125-6.824219v-40.960937c0-3.769531 3.054688-6.828125 6.828125-6.828125h27.308594c3.773437 0 6.824219 3.058594 6.824219 6.828125v40.960937c0 3.769532-3.050782 6.824219-6.824219 6.824219zm-20.480469-13.652343h13.652344v-27.304688h-13.652344zm0 0" fill="#0e65e5"/><path d="m218.453125 102.855469 88.75 81.917969h-177.496094zm0 0" fill="#5c9eff"/><path d="m307.203125 191.601562h-177.496094c-2.8125 0-5.332031-1.722656-6.359375-4.339843-1.019531-2.617188-.332031-5.597657 1.726563-7.503907l88.746093-81.917968c2.628907-2.414063 6.640626-2.414063 9.269532 0l88.746094 81.917968c2.058593 1.90625 2.746093 4.886719 1.726562 7.503907-1.027344 2.617187-3.546875 4.339843-6.359375 4.339843zm-160.035156-13.652343h142.574219l-71.289063-65.804688zm0 0" fill="#0e65e5"/><path d="m245.761719 164.292969c-3.773438 0-6.828125-3.054688-6.828125-6.824219v-27.308594c0-3.769531 3.054687-6.824218 6.828125-6.824218 3.773437 0 6.828125 3.054687 6.828125 6.824218v27.308594c0 3.769531-3.054688 6.824219-6.828125 6.824219zm0 0" fill="#fff"/><path d="m259.414062 150.640625h-27.304687c-3.773437 0-6.828125-3.054687-6.828125-6.824219 0-3.773437 3.054688-6.828125 6.828125-6.828125h27.304687c3.773438 0 6.828126 3.054688 6.828126 6.828125 0 3.769532-3.054688 6.824219-6.828126 6.824219zm0 0" fill="#fff"/></svg>