<?xml version="1.0" encoding="iso-8859-1"?>
<!-- Generator: Adobe Illustrator 19.0.0, SVG Export Plug-In . SVG Version: 6.00 Build 0)  -->
<svg version="1.1" id="Layer_1" xmlns="http://www.w3.org/2000/svg" xmlns:xlink="http://www.w3.org/1999/xlink" x="0px" y="0px"
	 viewBox="0 0 512 512" style="enable-background:new 0 0 512 512;" xml:space="preserve">
<path style="fill:#C17C3E;" d="M141.241,229.517V256c0,34.428,27.366,61.793,61.793,61.793l0,0
	c-7.062,37.076-8.828,94.455-8.828,131.531c0,33.545,26.483,62.676,60.028,62.676c0.883,0,2.648,0,3.531,0
	c33.545-0.883,60.028-29.131,60.028-62.676c0-36.193-1.766-93.572-8.828-131.531l0,0c34.428,0,61.793-27.365,61.793-61.793v-26.483
	H141.241z"/>
<path style="fill:#ECE8D8;" d="M353.103,0c9.71,0,17.655,7.945,17.655,17.655v132.414H141.241V17.655
	c0-9.71,7.945-17.655,17.655-17.655H353.103z"/>
<g>
	<path style="fill:#9E5A23;" d="M132.414,229.517h247.172v-79.448H132.414V229.517z"/>
	<path style="fill:#9E5A23;" d="M282.483,432.552c0-15.007-11.476-26.483-26.483-26.483s-26.483,11.476-26.483,26.483
		s11.476,26.483,26.483,26.483S282.483,447.559,282.483,432.552"/>
</g>
<g>
	<path style="fill:#C9C3A7;" d="M291.31,123.586c5.297,0,8.828-3.531,8.828-8.828V0h-17.655v114.759
		C282.483,120.055,286.014,123.586,291.31,123.586"/>
	<path style="fill:#C9C3A7;" d="M256,97.103c5.297,0,8.828-3.531,8.828-8.828V0h-17.655v88.276
		C247.172,93.572,250.703,97.103,256,97.103"/>
	<path style="fill:#C9C3A7;" d="M326.621,97.103c5.297,0,8.828-3.531,8.828-8.828V0h-17.655v88.276
		C317.793,93.572,321.324,97.103,326.621,97.103"/>
	<path style="fill:#C9C3A7;" d="M220.69,123.586c5.297,0,8.828-3.531,8.828-8.828V0h-17.655v114.759
		C211.862,120.055,215.393,123.586,220.69,123.586"/>
	<path style="fill:#C9C3A7;" d="M185.379,97.103c5.297,0,8.828-3.531,8.828-8.828V0h-17.655v88.276
		C176.552,93.572,180.083,97.103,185.379,97.103"/>
</g>
<path style="fill:#9E5A23;" d="M203.034,264.828H143.89c-0.883,0-0.883,0-1.766,0c0.883,6.179,2.648,11.476,5.297,17.655h55.614
	c5.297,0,8.828-3.531,8.828-8.828C211.862,268.359,208.331,264.828,203.034,264.828"/>
<g>
</g>
<g>
</g>
<g>
</g>
<g>
</g>
<g>
</g>
<g>
</g>
<g>
</g>
<g>
</g>
<g>
</g>
<g>
</g>
<g>
</g>
<g>
</g>
<g>
</g>
<g>
</g>
<g>
</g>
</svg>
