<svg height="512pt" viewBox="0 0 511 512" width="512pt" xmlns="http://www.w3.org/2000/svg" xmlns:xlink="http://www.w3.org/1999/xlink"><linearGradient id="a" gradientUnits="userSpaceOnUse" x1="256.4931878083" x2="256.4931878083" y1="0" y2="512.0003756166"><stop offset="0" stop-color="#2af598"/><stop offset="1" stop-color="#009efd"/></linearGradient><path d="m192.496094 203.996094h139.996094v40h-139.996094zm0-40h199.992187v-39.996094h-199.992187zm256.800781 205.425781 19.222656 30.632813-36.199219-.066407c-.121093 0-.25 0-.382812 0-8.703125 0-43.1875-1.613281-75.90625-25.285156-8.066406 33.644531-26.996094 60.933594-55.632812 79.796875-30.277344 19.945312-71.742188 30.488281-119.902344 30.488281-13.664063 0-26.078125-.695312-37.628906-2.113281-28.074219 26.5-61.125 29.125-72.996094 29.125-.457032 0-.882813-.003906-1.277344-.011719h-37.664062l20.976562-30.964843c.46875-.746094 5.976562-9.707032 10.878906-25-40.828125-25.839844-62.285156-67.34375-62.285156-120.996094 0-31.972656 7.65625-59.769532 22.757812-82.621094 12.292969-18.59375 29.285157-33.621094 50.605469-44.765625-.898437-8.066406-1.367187-16.375-1.367187-24.933594 0-31.140625 5.972656-59.144531 17.75-83.238281 11.246094-23.003906 27.769531-42.488281 49.117187-57.910156 37.628907-27.1875 90.582031-41.558594 153.128907-41.558594 62.546874 0 115.5 14.371094 153.128906 41.558594 21.34375 15.421875 37.871094 34.90625 49.117187 57.910156 11.777344 24.09375 17.746094 52.097656 17.746094 83.238281 0 66.632813-27.164063 117.824219-78.792969 149.035157 6.941406 23.464843 15.503906 37.515624 15.605469 37.679687zm-131.90625-5.070313c-7.847656.421876-16.117187.636719-24.898437.636719-62.585938 0-115.527344-14.289062-153.097657-41.324219-21.359375-15.367187-37.890625-34.808593-49.140625-57.773437-2.722656-5.554687-5.117187-11.332031-7.21875-17.296875-28.238281 18.539062-42.535156 47.527344-42.535156 86.429688 0 44.039062 18.332031 75.410156 54.476562 93.238281l14.074219 6.941406-3.394531 15.320313c-1 4.519531-2.101562 8.777343-3.261719 12.761718 6.121094-3.414062 12.347657-8.152344 18.007813-14.730468l7.371094-8.5625 11.136718 1.894531c12.289063 2.085937 25.894532 3.101562 41.585938 3.101562 40.320312 0 74.171875-8.261719 97.902344-23.894531 20.355468-13.410156 33.421874-32.449219 38.992187-56.742188zm155.097656-181.644531c0-124.167969-112.773437-142.707031-179.996093-142.707031-67.222657 0-179.996094 18.539062-179.996094 142.707031 0 123.800781 112.773437 142.285157 179.996094 142.285157 20.578124 0 37.855468-1.238282 52.820312-3.777344l11.136719-1.894532 7.371093 8.5625c10.96875 12.742188 23.390626 20.441407 34.664063 25.089844-2.710937-7.933594-5.34375-16.972656-7.558594-26.972656l-3.394531-15.320312 14.070312-6.941407c47.035157-23.199219 70.886719-63.921875 70.886719-121.03125zm0 0" fill="url(#a)"/></svg>