<svg xmlns="http://www.w3.org/2000/svg" height="612.787pt" version="1.1" viewBox="1 1 612.787 612.787" width="612.787pt">
<g id="surface1">
<path d="M 357.582031 541.484375 L 51.082031 541.484375 L 51.082031 71.515625 L 357.582031 71.515625 L 357.582031 10.214844 L 10.214844 10.214844 L 10.214844 602.785156 L 357.582031 602.785156 Z M 357.582031 541.484375 " style=" stroke:none;fill-rule:nonzero;fill:rgb(0%,84.313725%,87.45098%);fill-opacity:1;" />
<path d="M 51.082031 541.484375 L 602.785156 541.484375 L 602.785156 132.816406 L 51.082031 132.816406 Z M 541.484375 510.832031 L 439.316406 510.832031 L 439.316406 469.96875 L 490.402344 469.96875 L 438.164062 417.730469 L 490.402344 469.96875 L 541.484375 469.96875 Z M 429.101562 163.46875 L 572.132812 163.46875 L 572.132812 204.332031 L 500.617188 204.332031 L 443.117188 261.832031 L 500.617188 204.332031 L 429.101562 204.332031 Z M 81.734375 163.46875 L 163.46875 163.46875 L 163.46875 204.332031 L 122.601562 204.332031 L 175.726562 257.460938 C 219.820312 185.359375 314.011719 162.65625 386.113281 206.746094 C 458.210938 250.839844 480.917969 345.03125 436.824219 417.132812 C 392.734375 489.230469 298.539062 511.9375 226.441406 467.84375 C 180.929688 440.011719 153.199219 390.492188 153.25 337.148438 C 153.277344 309.023438 161.054688 281.453125 175.726562 257.460938 L 122.601562 204.332031 L 81.734375 204.332031 Z M 81.734375 163.46875 " style=" stroke:none;fill-rule:nonzero;fill:rgb(0%,84.313725%,87.45098%);fill-opacity:1;" />
<path d="M 51.082031 132.816406 L 602.785156 132.816406 L 602.785156 71.515625 L 51.082031 71.515625 Z M 51.082031 132.816406 " style=" stroke:none;fill-rule:nonzero;fill:rgb(100%,31.372549%,13.72549%);fill-opacity:1;" />
<path d="M 306.5 490.402344 C 391.136719 490.402344 459.75 421.789062 459.75 337.148438 L 306.5 337.148438 L 198.203125 445.445312 L 306.5 337.148438 L 306.5 183.898438 C 253.054688 183.894531 203.476562 211.78125 175.726562 257.460938 L 176.257812 257.992188 L 175.726562 257.460938 C 131.589844 329.53125 154.238281 423.738281 226.3125 467.875 C 250.445312 482.652344 278.203125 490.449219 306.5 490.402344 Z M 306.5 490.402344 " style=" stroke:none;fill-rule:nonzero;fill:rgb(100%,31.372549%,13.72549%);fill-opacity:1;" />
<path d="M 459.75 337.148438 C 459.75 252.511719 391.136719 183.898438 306.5 183.898438 L 306.5 337.148438 Z M 459.75 337.148438 " style=" stroke:none;fill-rule:nonzero;fill:rgb(100%,31.372549%,13.72549%);fill-opacity:1;" />
<path d="M 572.132812 204.332031 L 572.132812 163.46875 L 429.101562 163.46875 L 429.101562 204.332031 Z M 572.132812 204.332031 " style=" stroke:none;fill-rule:nonzero;fill:rgb(100%,31.372549%,13.72549%);fill-opacity:1;" />
<path d="M 439.316406 469.964844 L 439.316406 510.832031 L 541.484375 510.832031 L 541.484375 469.964844 Z M 439.316406 469.964844 " style=" stroke:none;fill-rule:nonzero;fill:rgb(100%,31.372549%,13.72549%);fill-opacity:1;" />
<path d="M 163.46875 204.332031 L 163.46875 163.46875 L 81.734375 163.46875 L 81.734375 204.332031 Z M 163.46875 204.332031 " style=" stroke:none;fill-rule:nonzero;fill:rgb(100%,31.372549%,13.72549%);fill-opacity:1;" />
<path d="M 602.785156 61.300781 L 367.800781 61.300781 L 367.800781 10.214844 C 367.800781 4.574219 363.226562 0 357.582031 0 L 10.214844 0 C 4.574219 0 0 4.574219 0 10.214844 L 0 602.785156 C 0 608.425781 4.574219 613 10.214844 613 L 357.582031 613 C 363.226562 613 367.800781 608.425781 367.800781 602.785156 L 367.800781 551.699219 L 602.785156 551.699219 C 608.425781 551.699219 613 547.125 613 541.484375 L 613 71.515625 C 613 65.875 608.425781 61.300781 602.785156 61.300781 Z M 592.566406 122.597656 L 61.300781 122.597656 L 61.300781 81.734375 L 592.566406 81.734375 Z M 347.367188 592.566406 L 20.433594 592.566406 L 20.433594 20.433594 L 347.367188 20.433594 L 347.367188 61.300781 L 51.082031 61.300781 C 45.441406 61.300781 40.867188 65.875 40.867188 71.515625 L 40.867188 541.480469 C 40.867188 547.125 45.441406 551.699219 51.082031 551.699219 L 347.367188 551.699219 Z M 61.300781 531.265625 L 61.300781 143.035156 L 592.566406 143.035156 L 592.566406 531.265625 Z M 61.300781 531.265625 " style=" stroke:none;fill-rule:nonzero;fill:rgb(13.72549%,12.156863%,12.54902%);fill-opacity:1;" />
<path d="M 91.949219 30.648438 L 214.550781 30.648438 L 214.550781 51.082031 L 91.949219 51.082031 Z M 91.949219 30.648438 " style=" stroke:none;fill-rule:nonzero;fill:rgb(13.72549%,12.156863%,12.54902%);fill-opacity:1;" />
<path d="M 234.984375 30.648438 L 275.851562 30.648438 L 275.851562 51.082031 L 234.984375 51.082031 Z M 234.984375 30.648438 " style=" stroke:none;fill-rule:nonzero;fill:rgb(13.72549%,12.156863%,12.54902%);fill-opacity:1;" />
<path d="M 163.46875 561.917969 L 204.332031 561.917969 L 204.332031 582.347656 L 163.46875 582.347656 Z M 163.46875 561.917969 " style=" stroke:none;fill-rule:nonzero;fill:rgb(13.72549%,12.156863%,12.54902%);fill-opacity:1;" />
<path d="M 81.734375 91.949219 L 122.597656 91.949219 L 122.597656 112.382812 L 81.734375 112.382812 Z M 81.734375 91.949219 " style=" stroke:none;fill-rule:nonzero;fill:rgb(13.72549%,12.156863%,12.54902%);fill-opacity:1;" />
<path d="M 143.035156 91.949219 L 183.898438 91.949219 L 183.898438 112.382812 L 143.035156 112.382812 Z M 143.035156 91.949219 " style=" stroke:none;fill-rule:nonzero;fill:rgb(13.72549%,12.156863%,12.54902%);fill-opacity:1;" />
<path d="M 204.332031 91.949219 L 245.199219 91.949219 L 245.199219 112.382812 L 204.332031 112.382812 Z M 204.332031 91.949219 " style=" stroke:none;fill-rule:nonzero;fill:rgb(13.72549%,12.156863%,12.54902%);fill-opacity:1;" />
<path d="M 265.632812 91.949219 L 510.832031 91.949219 L 510.832031 112.382812 L 265.632812 112.382812 Z M 265.632812 91.949219 " style=" stroke:none;fill-rule:nonzero;fill:rgb(13.72549%,12.156863%,12.54902%);fill-opacity:1;" />
<path d="M 531.265625 91.949219 L 572.132812 91.949219 L 572.132812 112.382812 L 531.265625 112.382812 Z M 531.265625 91.949219 " style=" stroke:none;fill-rule:nonzero;fill:rgb(13.72549%,12.156863%,12.54902%);fill-opacity:1;" />
<path d="M 572.132812 153.25 L 429.101562 153.25 C 423.457031 153.25 418.882812 157.824219 418.882812 163.46875 L 418.882812 204.332031 C 418.882812 209.976562 423.457031 214.550781 429.101562 214.550781 L 475.953125 214.550781 L 443.023438 247.488281 C 393.730469 172.121094 292.671875 150.988281 217.308594 200.285156 C 200.53125 211.257812 185.921875 225.230469 174.214844 241.5 L 147.261719 214.550781 L 163.46875 214.550781 C 169.109375 214.550781 173.683594 209.976562 173.683594 204.332031 L 173.683594 163.46875 C 173.683594 157.824219 169.109375 153.25 163.46875 153.25 L 81.734375 153.25 C 76.089844 153.25 71.515625 157.824219 71.515625 163.46875 L 71.515625 204.332031 C 71.515625 209.976562 76.089844 214.550781 81.734375 214.550781 L 118.371094 214.550781 L 162.914062 259.09375 C 119.851562 338.351562 149.191406 437.511719 228.449219 480.574219 C 300.601562 519.777344 390.644531 499.316406 438.765625 432.777344 L 465.738281 459.75 L 439.316406 459.75 C 433.671875 459.75 429.101562 464.324219 429.101562 469.964844 L 429.101562 510.832031 C 429.101562 516.476562 433.675781 521.050781 439.316406 521.050781 L 541.484375 521.050781 C 547.125 521.050781 551.699219 516.472656 551.699219 510.832031 L 551.699219 469.964844 C 551.699219 464.324219 547.125 459.75 541.484375 459.75 L 494.628906 459.75 L 450.085938 415.207031 C 475.359375 368.953125 476.605469 313.308594 453.425781 265.96875 L 504.847656 214.550781 L 572.136719 214.550781 C 577.777344 214.550781 582.351562 209.976562 582.351562 204.332031 L 582.351562 163.46875 C 582.351562 157.824219 577.777344 153.25 572.132812 153.25 Z M 91.949219 173.683594 L 153.25 173.683594 L 153.25 194.117188 L 91.949219 194.117188 Z M 531.265625 500.617188 L 449.53125 500.617188 L 449.53125 480.183594 L 531.265625 480.183594 Z M 449.011719 326.933594 L 316.714844 326.933594 L 316.714844 194.636719 C 387.542969 199.78125 443.867188 256.109375 449.011719 326.933594 Z M 296.28125 194.636719 L 296.28125 332.917969 L 198.53125 430.671875 C 146.789062 371.226562 153.039062 281.089844 212.484375 229.351562 C 235.898438 208.976562 265.316406 196.789062 296.28125 194.636719 Z M 306.5 480.183594 C 272.113281 480.183594 238.886719 467.726562 212.976562 445.121094 L 310.730469 347.367188 L 449.011719 347.367188 C 443.625 422.128906 381.457031 480.066406 306.5 480.183594 Z M 561.917969 194.117188 L 439.316406 194.117188 L 439.316406 173.683594 L 561.917969 173.683594 Z M 561.917969 194.117188 " style=" stroke:none;fill-rule:nonzero;fill:rgb(13.72549%,12.156863%,12.54902%);fill-opacity:1;" />
</g>
</svg>