<?xml version="1.0" encoding="iso-8859-1"?>
<!-- Generator: Adobe Illustrator 19.0.0, SVG Export Plug-In . SVG Version: 6.00 Build 0)  -->
<svg version="1.1" id="Capa_1" xmlns="http://www.w3.org/2000/svg" xmlns:xlink="http://www.w3.org/1999/xlink" x="0px" y="0px"
	 viewBox="0 0 512 512" style="enable-background:new 0 0 512 512;" xml:space="preserve">
<path style="fill:#CFD8DC;" d="M31.957,21.333h448.085c17.65,0,31.957,14.308,31.957,31.957v405.419
	c0,17.65-14.308,31.957-31.957,31.957H31.957C14.308,490.667,0,476.359,0,458.709V53.291C0,35.641,14.308,21.333,31.957,21.333z"/>
<path style="fill:#2196F3;" d="M244.203,304.555l-32-64c-2.177-4.46-7.17-6.797-11.989-5.611c-4.816,1.138-8.217,5.44-8.213,10.389
	V352c-0.006,4.597,2.934,8.681,7.296,10.133c1.09,0.35,2.226,0.529,3.371,0.533c3.357,0,6.519-1.581,8.533-4.267l32-42.667
	C245.626,312.498,246.014,308.17,244.203,304.555z"/>
<g>
	<circle style="fill:#607D8B;" cx="74.667" cy="96" r="32"/>
	<circle style="fill:#607D8B;" cx="437.333" cy="96" r="32"/>
	<circle style="fill:#607D8B;" cx="437.333" cy="416" r="32"/>
	<circle style="fill:#607D8B;" cx="74.667" cy="416" r="32"/>
</g>
<path style="fill:#1E88E5;" d="M341.333,309.333c0.046,2.315-0.707,4.575-2.133,6.4l-32,42.667
	c-1.965,2.744-5.159,4.341-8.533,4.267h-96c-5.891,0-10.667-4.776-10.667-10.667c0-2.308,0.749-4.554,2.133-6.4l27.093-36.267
	L341.333,309.333z"/>
<path style="fill:#64B5F6;" d="M221.227,309.333l0.853-1.067l-29.013-58.24c-1.575-3.271-1.415-7.112,0.427-10.24
	c2.005-3.138,5.45-5.061,9.173-5.12h106.667c4.577-0.061,8.652,2.887,10.027,7.253l21.333,64c0.418,1.09,0.635,2.246,0.64,3.413
	H221.227z"/>
<path style="fill:#2196F3;" d="M309.333,128H202.667c-5.891,0-10.667,4.776-10.667,10.667v106.667h128V138.667
	C320,132.776,315.224,128,309.333,128z"/>
<g>
</g>
<g>
</g>
<g>
</g>
<g>
</g>
<g>
</g>
<g>
</g>
<g>
</g>
<g>
</g>
<g>
</g>
<g>
</g>
<g>
</g>
<g>
</g>
<g>
</g>
<g>
</g>
<g>
</g>
</svg>
