<?xml version="1.0" encoding="iso-8859-1"?>
<!-- Generator: Adobe Illustrator 19.0.0, SVG Export Plug-In . SVG Version: 6.00 Build 0)  -->
<svg version="1.1" id="Capa_1" xmlns="http://www.w3.org/2000/svg" xmlns:xlink="http://www.w3.org/1999/xlink" x="0px" y="0px"
	 viewBox="0 0 512 512" style="enable-background:new 0 0 512 512;" xml:space="preserve">
<g>
	<g transform="translate(1 1)">
		<g>
			<path style="fill:#1566C0;" d="M41.667,7.533h426.667c18.851,0,34.133,15.282,34.133,34.133v426.667
				c0,18.851-15.282,34.133-34.133,34.133H41.667c-18.851,0-34.133-15.282-34.133-34.133V41.667
				C7.533,22.815,22.815,7.533,41.667,7.533z"/>
			<path style="fill:#2296F3;" d="M40.771,7.533h402.859c18.356,0,33.237,14.881,33.237,33.237v428.459
				c0,18.357-14.881,33.237-33.237,33.237H40.771c-18.356,0-33.237-14.881-33.237-33.237V40.771
				C7.533,22.414,22.414,7.533,40.771,7.533z"/>
			<path style="fill:#00838F;" d="M92.867,67.267h324.267c4.713,0,8.533,3.821,8.533,8.533v187.733c0,4.713-3.82,8.533-8.533,8.533
				H92.867c-4.713,0-8.533-3.82-8.533-8.533V75.8C84.333,71.087,88.154,67.267,92.867,67.267z"/>
			<path style="fill:#00BCD4;" d="M92.542,67.267h299.315c4.534,0,8.209,3.675,8.209,8.209v188.382c0,4.534-3.675,8.209-8.209,8.209
				H92.542c-4.534,0-8.209-3.675-8.209-8.209V75.476C84.333,70.942,88.009,67.267,92.542,67.267z"/>
			<circle style="fill:#283593;" cx="255" cy="391.533" r="59.733"/>
			<ellipse style="fill:#3F51B5;" cx="242.2" cy="391.533" rx="46.933" ry="59.733"/>
			<path style="fill:#4CAF50;" d="M109.933,408.6h34.133c9.426,0,17.067,7.641,17.067,17.067l0,0
				c0,9.426-7.641,17.067-17.067,17.067h-34.133c-9.426,0-17.067-7.641-17.067-17.067l0,0
				C92.867,416.241,100.508,408.6,109.933,408.6z"/>
			<path style="fill:#E91E63;" d="M365.933,408.6h34.133c9.426,0,17.067,7.641,17.067,17.067l0,0
				c0,9.426-7.641,17.067-17.067,17.067h-34.133c-9.426,0-17.067-7.641-17.067-17.067l0,0
				C348.867,416.241,356.508,408.6,365.933,408.6z"/>
			<path style="fill:#4CAF50;" d="M120.453,344.419l-9.42,17.304c-1.488,2.502-1.584,5.594-0.254,8.184
				c1.33,2.59,3.9,4.313,6.801,4.56h18.84c2.901-0.247,5.47-1.97,6.801-4.56c1.33-2.59,1.234-5.682-0.254-8.184l-9.42-17.304
				c-1.223-2.5-3.763-4.085-6.547-4.085C124.217,340.333,121.676,341.919,120.453,344.419z"/>
			<path style="fill:#E91E63;" d="M389.547,370.381l9.42-17.304c1.488-2.502,1.584-5.594,0.254-8.184
				c-1.33-2.59-3.9-4.313-6.801-4.56h-18.84c-2.901,0.247-5.47,1.97-6.801,4.56c-1.33,2.59-1.234,5.682,0.254,8.184l9.42,17.304
				c1.223,2.5,3.763,4.086,6.547,4.086C385.783,374.467,388.324,372.881,389.547,370.381z"/>
		</g>
		<path style="fill:#F44335;" d="M255,101.4c0,0-51.2,59.877-51.2,85.538c0,28.277,22.923,51.2,51.2,51.2s51.2-22.923,51.2-51.2
			C306.2,161.277,255,101.4,255,101.4z"/>
		<path style="fill:#FFEB3A;" d="M254.994,237.933c-14.177-0.065-25.626-11.592-25.594-25.769
			c0.729-6.567,11.231-23.59,25.577-42.498c14.367,18.966,24.886,36.086,25.623,42.864
			C280.463,226.582,269.046,237.908,254.994,237.933z"/>
	</g>
	<g>
		<path d="M469.333,0H42.667C19.114,0.028,0.028,19.114,0,42.667v426.667C0.028,492.886,19.114,511.972,42.667,512h426.667
			c23.553-0.028,42.639-19.114,42.667-42.667V42.667C511.972,19.114,492.886,0.028,469.333,0z M494.933,469.333
			c-0.015,14.132-11.468,25.585-25.6,25.6H42.667c-14.132-0.015-25.585-11.468-25.6-25.6V42.667
			c0.015-14.132,11.468-25.585,25.6-25.6h426.667c14.132,0.015,25.585,11.468,25.6,25.6V469.333z"/>
		<path d="M418.133,59.733H93.867C84.445,59.744,76.811,67.379,76.8,76.8v187.733c0.011,9.421,7.645,17.056,17.067,17.067h324.267
			c9.421-0.012,17.054-7.646,17.067-17.067V76.8C435.188,67.379,427.554,59.746,418.133,59.733z M93.867,264.533V76.8h324.267
			l0.017,187.733H93.867z"/>
		<path d="M256,324.267c-37.703,0-68.267,30.564-68.267,68.267S218.297,460.8,256,460.8c37.703,0,68.267-30.564,68.267-68.267
			C324.224,354.849,293.685,324.31,256,324.267z M256,443.733c-28.277,0-51.2-22.923-51.2-51.2s22.923-51.2,51.2-51.2
			c28.277,0,51.2,22.923,51.2,51.2C307.169,420.798,284.264,443.702,256,443.733z"/>
		<path d="M145.067,401.067h-34.133c-14.138,0-25.6,11.462-25.6,25.6s11.462,25.6,25.6,25.6h34.133c14.138,0,25.6-11.462,25.6-25.6
			S159.205,401.067,145.067,401.067z M145.067,435.2h-34.133c-4.713,0-8.533-3.82-8.533-8.533s3.821-8.533,8.533-8.533h34.133
			c4.713,0,8.533,3.82,8.533,8.533S149.779,435.2,145.067,435.2z"/>
		<path d="M401.067,401.067h-34.133c-14.138,0-25.6,11.462-25.6,25.6s11.462,25.6,25.6,25.6h34.133c14.138,0,25.6-11.462,25.6-25.6
			S415.205,401.067,401.067,401.067z M401.067,435.2h-34.133c-4.713,0-8.533-3.82-8.533-8.533s3.82-8.533,8.533-8.533h34.133
			c4.713,0,8.533,3.82,8.533,8.533S405.78,435.2,401.067,435.2z"/>
		<path d="M118.579,384h18.842c5.664-0.025,10.888-3.059,13.717-7.967c3.151-5.339,3.274-11.939,0.325-17.392l-9.421-17.308
			c-2.72-5.243-8.135-8.533-14.042-8.533s-11.321,3.29-14.042,8.533l-9.421,17.308c-2.949,5.453-2.826,12.053,0.325,17.392
			C107.691,380.941,112.915,383.975,118.579,384z M128.963,349.467l-0.017,0.025l-7.492-4.075L128.963,349.467z M119.529,366.808
			l8.458-15.542l8.271,15.667h-16.787L119.529,366.808z"/>
		<path d="M384,384c5.89-0.06,11.276-3.333,14.042-8.533l9.425-17.317c2.943-5.453,2.816-12.048-0.333-17.383
			c-2.825-4.909-8.049-7.943-13.713-7.967h-18.842c-5.664,0.025-10.888,3.059-13.717,7.967c-3.151,5.339-3.274,11.939-0.325,17.392
			l9.421,17.308C372.724,380.667,378.11,383.94,384,384z M383.038,367.333l0.017-0.025l7.492,4.075L383.038,367.333z
			 M392.529,349.867l-0.058,0.125l-8.458,15.542l-8.271-15.667H392.529z"/>
		<path d="M249.513,96.858c-5.45,6.367-53.246,63.075-53.246,91.083c0.093,32.914,26.811,59.542,59.725,59.524l0.004,0.001H256
			c32.917,0.021,59.64-26.608,59.733-59.525c0-28.008-47.796-84.717-53.246-91.083c-1.668-1.816-4.021-2.85-6.487-2.85
			C253.534,94.008,251.181,95.042,249.513,96.858z M238.942,213.775c4.338-10.308,10.068-19.972,17.029-28.725
			c7.031,8.833,12.782,18.612,17.084,29.05c-0.492,9.084-7.96,16.221-17.057,16.3c-1.157,0-2.243-0.25-3.377-0.34
			C244.853,228.433,239.203,221.707,238.942,213.775z M290.114,213.177c-0.008-0.19-0.01-0.381-0.03-0.568
			c-1.221-11.225-17.629-34.325-27.3-47.092c-1.611-2.132-4.129-3.384-6.801-3.383h-0.004c-2.668,0.001-5.183,1.25-6.796,3.375
			c-9.658,12.725-26.042,35.717-27.262,46.717c-0.036,0.308-0.054,0.619-0.054,0.929c-5.508-7.254-8.503-16.105-8.533-25.213
			c0-14.617,23.996-49.133,42.667-72.192c18.671,23.05,42.667,57.558,42.667,72.192C298.636,197.06,295.633,205.919,290.114,213.177
			L290.114,213.177z"/>
		<path d="M119.467,119.467c2.264,0.003,4.435-0.897,6.033-2.5l8.533-8.533c3.281-3.341,3.256-8.701-0.054-12.012
			c-3.311-3.311-8.671-3.335-12.012-0.054l-8.533,8.533c-2.44,2.44-3.169,6.11-1.849,9.298
			C112.905,117.387,116.016,119.466,119.467,119.467z"/>
		<path d="M164.634,96.367l-51.2,51.2c-2.188,2.149-3.055,5.307-2.27,8.271c0.785,2.965,3.1,5.28,6.065,6.065
			c2.965,0.785,6.122-0.082,8.271-2.27l51.2-51.2c3.281-3.341,3.256-8.701-0.054-12.012
			C173.335,93.111,167.974,93.086,164.634,96.367z"/>
	</g>
</g>
<g>
</g>
<g>
</g>
<g>
</g>
<g>
</g>
<g>
</g>
<g>
</g>
<g>
</g>
<g>
</g>
<g>
</g>
<g>
</g>
<g>
</g>
<g>
</g>
<g>
</g>
<g>
</g>
<g>
</g>
</svg>
