<?xml version="1.0" encoding="iso-8859-1"?>
<!-- Generator: Adobe Illustrator 19.0.0, SVG Export Plug-In . SVG Version: 6.00 Build 0)  -->
<svg version="1.1" id="Capa_1" xmlns="http://www.w3.org/2000/svg" xmlns:xlink="http://www.w3.org/1999/xlink" x="0px" y="0px"
	 viewBox="0 0 504.517 504.517" style="enable-background:new 0 0 504.517 504.517;" xml:space="preserve">
<path style="fill:#CFD0D1;" d="M337.132,8.074H39.385c-17.329,0-31.508,14.178-31.508,31.508v425.354
	c0,17.329,14.178,31.508,31.508,31.508h297.748c17.329,0,31.508-14.178,31.508-31.508V39.582
	C368.64,22.252,354.462,8.074,337.132,8.074z"/>
<path style="fill:#183651;" d="M337.132,504.32H39.385C17.329,504.32,0,486.991,0,464.935V39.582
	C0,17.526,17.329,0.197,39.385,0.197h297.748c22.055,0,39.385,17.329,39.385,39.385v425.354
	C376.517,486.991,359.188,504.32,337.132,504.32z M39.385,15.951c-13.391,0-23.631,10.24-23.631,23.631v425.354
	c0,13.391,10.24,23.631,23.631,23.631h297.748c13.391,0,23.631-10.24,23.631-23.631V39.582c0-13.391-10.24-23.631-23.631-23.631
	H39.385z"/>
<rect x="39.385" y="39.582" style="fill:#FFFFFF;" width="297.748" height="425.354"/>
<path style="fill:#2AA0DA;" d="M388.332,294.006l95.311-95.311c17.329-17.329,17.329-44.898,0-62.228l0,0
	c-17.329-17.329-44.898-17.329-62.228,0l-95.311,95.311L388.332,294.006z"/>
<path style="fill:#183651;" d="M388.332,301.883c-2.363,0-3.938-0.788-5.514-2.363l-62.228-62.228
	c-3.151-3.151-3.151-7.877,0-11.028l95.311-95.311c20.48-20.48,52.775-20.48,73.255,0s20.48,53.563,0,73.255l-95.311,95.311
	C392.271,301.095,389.908,301.883,388.332,301.883z M337.132,231.778l51.2,51.2l89.797-89.797c14.178-14.178,14.178-37.022,0-51.2
	c-14.178-14.178-37.022-14.178-51.2,0L337.132,231.778z"/>
<path style="fill:#FFFFFF;" d="M466.314,153.797c7.877,7.877,7.877,21.268,0,29.145l-78.769,78.769L358.4,232.566l78.769-78.769
	C445.834,145.92,458.437,145.92,466.314,153.797z"/>
<polygon style="fill:#FCBD5E;" points="275.692,390.892 215.828,404.283 229.218,344.418 333.982,239.655 380.455,286.129 "/>
<path style="fill:#183651;" d="M210.314,409.797c-1.575-1.575-2.363-4.726-2.363-7.089l13.391-59.865
	c0-1.575,0.788-3.151,2.363-3.938L327.68,234.929c3.151-3.151,7.877-3.151,11.028,0l46.474,46.474
	c1.575,1.575,2.363,3.151,2.363,5.514s-0.788,3.938-2.363,5.514L281.206,396.406c-0.788,0.788-2.363,1.575-3.938,2.363
	l-59.865,13.391C215.04,412.16,212.677,411.372,210.314,409.797z M236.308,348.357l-10.24,45.686l45.686-10.24l96.886-96.886
	l-35.446-35.446L236.308,348.357z"/>
<g>
	<path style="fill:#183651;" d="M199.286,420.825c-3.151-3.151-3.151-7.877,0-11.028l11.028-11.028
		c3.151-3.151,7.877-3.151,11.028,0c3.151,3.151,3.151,7.877,0,11.028l-11.028,11.028
		C207.163,423.975,202.437,423.975,199.286,420.825z"/>
	<polygon style="fill:#183651;" points="90.585,119.138 63.015,91.569 74.043,80.542 90.585,97.083 124.455,63.212 135.483,74.24 	
		"/>
	<polygon style="fill:#183651;" points="90.585,203.422 63.015,175.852 74.043,164.825 90.585,181.366 124.455,147.495 
		135.483,158.523 	"/>
	<polygon style="fill:#183651;" points="90.585,287.705 63.015,260.135 74.043,249.108 90.585,265.649 124.455,231.778 
		135.483,242.806 	"/>
	<polygon style="fill:#183651;" points="90.585,371.988 63.015,344.418 74.043,333.391 90.585,349.932 124.455,316.062 
		135.483,327.089 	"/>
	<rect x="175.655" y="83.692" style="fill:#183651;" width="133.908" height="15.754"/>
	<rect x="175.655" y="167.975" style="fill:#183651;" width="133.908" height="15.754"/>
	<rect x="175.655" y="252.258" style="fill:#183651;" width="94.523" height="15.754"/>
	<rect x="175.655" y="336.542" style="fill:#183651;" width="23.631" height="15.754"/>
	<rect x="67.742" y="423.188" style="fill:#183651;" width="15.754" height="15.754"/>
	<rect x="99.249" y="423.188" style="fill:#183651;" width="15.754" height="15.754"/>
	<rect x="130.757" y="423.188" style="fill:#183651;" width="15.754" height="15.754"/>
	<rect x="162.265" y="423.188" style="fill:#183651;" width="15.754" height="15.754"/>
</g>
<g>
</g>
<g>
</g>
<g>
</g>
<g>
</g>
<g>
</g>
<g>
</g>
<g>
</g>
<g>
</g>
<g>
</g>
<g>
</g>
<g>
</g>
<g>
</g>
<g>
</g>
<g>
</g>
<g>
</g>
</svg>
