<svg height="512pt" viewBox="0 0 512 512" width="512pt" xmlns="http://www.w3.org/2000/svg"><path d="m347 105c0 8.398438-6.597656 15-15 15s-15-6.601562-15-15c0-41.398438-33.601562-75-75-75h-60c-41.398438 0-76 33.601562-76 75v181c0 8.398438-6.597656 15-15 15s-15-6.601562-15-15v-181c0-19.5 5.398438-38.101562 15-53.699219 18.300781-30.601562 52.597656-51.300781 91-51.300781h60c57.898438 0 105 47.101562 105 105zm0 0" fill="#4a696f"/><path d="m347 105c0 8.398438-6.597656 15-15 15s-15-6.601562-15-15c0-41.398438-33.601562-75-75-75h-60c-41.398438 0-76 33.601562-76 75v181c0 8.398438-6.597656 15-15 15v-249.699219c18.300781-30.601562 52.597656-51.300781 91-51.300781h60c57.898438 0 105 47.101562 105 105zm0 0" fill="#3e5959"/><path d="m362 180h-60v-60c0-16.570312 13.429688-30 30-30s30 13.429688 30 30zm0 0" fill="#384949"/><path d="m512 362v105c0 24.898438-20.097656 45-45 45h-150c-8.402344 0-15-6.601562-15-15l-30-111.902344v-190.097656c0-24.902344 20.097656-45 45-45h45zm0 0" fill="#fdbf00"/><path d="m512 362v105c0 24.898438-20.097656 45-45 45h-105v-362zm0 0" fill="#ff7816"/><path d="m377 150h-15v166c0 24.8125 20.1875 46 45 46h105v-76c0-74.441406-60.558594-136-135-136zm0 0" fill="#384949"/><path d="m121 301v181h-60v-181c0-16.5 13.5-30 30-30s30 13.5 30 30zm0 0" fill="#deecf1"/><path d="m317 362c-41.398438 0-75 33.601562-75 75s33.601562 75 75 75 75-33.601562 75-75-33.601562-75-75-75zm0 0" fill="#3e5959"/><path d="m392 437c0 41.398438-33.601562 75-75 75v-150c41.398438 0 75 33.601562 75 75zm0 0" fill="#384949"/><path d="m317 392c-24.902344 0-45 20.097656-45 45 0 24.898438 20.097656 45 45 45s45-20.101562 45-45c0-24.902344-20.097656-45-45-45zm0 0" fill="#deecf1"/><path d="m362 437c0 24.898438-20.097656 45-45 45v-90c24.902344 0 45 20.097656 45 45zm0 0" fill="#c6e2e7"/><path d="m332 437c0 8.398438-6.597656 15-15 15s-15-6.601562-15-15c0-8.402344 6.597656-15 15-15s15 6.597656 15 15zm0 0" fill="#3e5959"/><path d="m332 437c0 8.398438-6.597656 15-15 15v-30c8.402344 0 15 6.597656 15 15zm0 0" fill="#384949"/><path d="m121 301v181h-30v-211c16.5 0 30 13.5 30 30zm0 0" fill="#a8d3d8"/><path d="m182 482v15c0 8.398438-6.597656 15-15 15h-152c-8.402344 0-15-6.601562-15-15v-15c0-16.5 13.5-30 30-30h122c16.5 0 30 13.5 30 30zm0 0" fill="#4a696f"/><path d="m182 482v15c0 8.398438-6.597656 15-15 15h-76v-60h61c16.5 0 30 13.5 30 30zm0 0" fill="#3e5959"/></svg>