<?xml version="1.0" encoding="iso-8859-1"?>
<!-- Generator: Adobe Illustrator 19.0.0, SVG Export Plug-In . SVG Version: 6.00 Build 0)  -->
<svg version="1.1" id="Capa_1" xmlns="http://www.w3.org/2000/svg" xmlns:xlink="http://www.w3.org/1999/xlink" x="0px" y="0px"
	 viewBox="0 0 472 472" style="enable-background:new 0 0 472 472;" xml:space="preserve">
<circle style="fill:#FDBD40;" cx="160" cy="223.988" r="88"/>
<path style="fill:#87CEE9;" d="M64,295.988c1.642,0,6.386-0.09,8,0c11.558-33.976,34.901-64,72-64c13.746-0.161,27.373,2.564,40,8
	c13.6-39.291,53.546-72,96-72c56.606,0,95.132,44.883,104,96h16c39.764,0,72,32.236,72,72s-32.236,72-72,72
	c-18.626-1.036-35.996-9.721-48-24c-13.842,13.385-53.37,24-71.619,24c-20.109,0-57.834-8.039-72.381-24
	c-15.278,15.831-36.491,24.536-58.486,24c-16.267-1.462-31.911-6.962-45.514-16c-11.837,7.306-24.042,16-40,16
	c-39.078,0-56-23.968-56-56S24.922,295.988,64,295.988z"/>
<path style="fill:#FFFFFF;" d="M333.633,278.926c-5.891-32.207-24.625-51.438-50.133-51.438v-16
	c33.352,0,58.594,24.738,65.867,64.562L333.633,278.926z"/>
<g>
	<path style="fill:#E9686A;" d="M58.344,133.642l11.313-11.313l16,16l-11.313,11.313L58.344,133.642z"/>
	<path style="fill:#E9686A;" d="M34.347,109.642L45.66,98.329l16,16l-11.313,11.313L34.347,109.642z"/>
	<path style="fill:#E9686A;" d="M234.348,138.334l16-16l11.313,11.313l-16,16L234.348,138.334z"/>
	<path style="fill:#E9686A;" d="M258.348,114.329l16-16l11.313,11.313l-16,16L258.348,114.329z"/>
	<path style="fill:#E9686A;" d="M152,95.988h16v16h-16V95.988z"/>
	<path style="fill:#E9686A;" d="M152,63.988h16v16h-16V63.988z"/>
	<path style="fill:#E9686A;" d="M32,207.988h16v16H32V207.988z"/>
	<path style="fill:#E9686A;" d="M0,207.988h16v16H0V207.988z"/>
</g>
<g>
</g>
<g>
</g>
<g>
</g>
<g>
</g>
<g>
</g>
<g>
</g>
<g>
</g>
<g>
</g>
<g>
</g>
<g>
</g>
<g>
</g>
<g>
</g>
<g>
</g>
<g>
</g>
<g>
</g>
</svg>
