<?xml version="1.0" encoding="iso-8859-1"?>
<!-- Generator: Adobe Illustrator 19.0.0, SVG Export Plug-In . SVG Version: 6.00 Build 0)  -->
<svg version="1.1" id="Layer_1" xmlns="http://www.w3.org/2000/svg" xmlns:xlink="http://www.w3.org/1999/xlink" x="0px" y="0px"
	 viewBox="0 0 512 512" style="enable-background:new 0 0 512 512;" xml:space="preserve">
<g>
	<path style="fill:#507C5C;" d="M176.274,342.765c-6.366,0-12.382-2.51-16.94-7.069l-40.712-40.711
		c-4.655-4.653-7.214-11.097-7.021-17.678c0.189-6.545,3.096-12.79,7.976-17.133c37.512-33.393,85.963-51.785,136.425-51.785
		c50.463,0,98.915,18.392,136.429,51.789c4.877,4.339,7.784,10.585,7.974,17.134c0.191,6.579-2.369,13.022-7.024,17.675
		l-40.709,40.711c-5.455,5.454-14.301,5.454-19.758,0c-5.455-5.455-5.455-14.301,0-19.758l37.704-37.703
		c-31.921-27.056-72.45-41.908-114.615-41.908c-42.168,0-82.696,14.85-114.615,41.907l35.162,35.162
		c22.482-17.836,50.549-27.616,79.453-27.616c7.716,0,13.97,6.256,13.97,13.97s-6.254,13.97-13.97,13.97
		c-23.565,0-46.402,8.301-64.306,23.376C187.355,340.752,181.879,342.765,176.274,342.765z"/>
	<path style="fill:#507C5C;" d="M256.002,446.939c-12.734,0-24.692-4.947-33.674-13.928c-5.455-5.455-5.455-14.301,0-19.758
		c5.455-5.454,14.301-5.454,19.758,0c3.704,3.705,8.646,5.745,13.917,5.745s10.212-2.04,13.913-5.742
		c3.72-3.72,5.768-8.663,5.768-13.92s-2.047-10.198-5.764-13.916s-8.66-5.766-13.916-5.766c-7.716,0-13.97-6.256-13.97-13.97
		c0-7.714,6.254-13.97,13.97-13.97c12.72,0,24.68,4.954,33.674,13.949c8.994,8.994,13.948,20.951,13.948,33.673
		c0,12.721-4.954,24.68-13.949,33.674C280.696,441.992,268.737,446.939,256.002,446.939z"/>
</g>
<path style="fill:#CFF09E;" d="M447.397,231.368c-2.499,0-4.898-0.949-6.756-2.673c-50.238-46.616-115.811-72.286-184.641-72.286
	s-134.404,25.672-184.642,72.285c-1.858,1.724-4.257,2.673-6.755,2.673c-2.654,0-5.168-1.052-7.079-2.964l-40.631-40.631
	c-1.954-1.954-2.964-4.45-2.923-7.217c0.043-2.786,1.144-5.272,3.184-7.186c64.77-60.833,149.593-94.336,238.844-94.336
	c89.252,0,174.076,33.503,238.845,94.337c2.04,1.915,3.14,4.401,3.184,7.188c0.042,2.765-0.968,5.261-2.921,7.214l-40.632,40.631
	C452.564,230.316,450.049,231.368,447.397,231.368z"/>
<path style="fill:#507C5C;" d="M447.397,245.338c-6.034,0-11.808-2.273-16.257-6.401c-47.646-44.21-109.845-68.558-175.139-68.558
	s-127.494,24.347-175.139,68.555c-4.451,4.13-10.223,6.403-16.257,6.403c-6.389,0-12.411-2.508-16.961-7.061L7.016,197.651
	c-4.623-4.62-7.114-10.77-7.013-17.313c0.103-6.562,2.797-12.653,7.587-17.151c67.372-63.277,155.592-98.124,248.409-98.124
	s181.038,34.847,248.409,98.124c4.79,4.5,7.485,10.591,7.589,17.153c0.101,6.542-2.389,12.691-7.014,17.313l-40.63,40.63
	C459.809,242.83,453.785,245.338,447.397,245.338z M450.143,218.455h0.014H450.143z M256.001,142.439
	c71.068,0,138.839,26.036,191.283,73.398l35.035-35.035c-61.783-56.652-141.989-87.802-226.318-87.802s-164.536,31.149-226.318,87.8
	l35.035,35.035C117.16,168.477,184.933,142.439,256.001,142.439z"/>
<g>
</g>
<g>
</g>
<g>
</g>
<g>
</g>
<g>
</g>
<g>
</g>
<g>
</g>
<g>
</g>
<g>
</g>
<g>
</g>
<g>
</g>
<g>
</g>
<g>
</g>
<g>
</g>
<g>
</g>
</svg>
