<svg height="512pt" viewBox="0 0 512.0158 512" width="512pt" xmlns="http://www.w3.org/2000/svg"><path d="m204.472656 255.714844 111.277344-192.851563c3.769531-6.417969 5.773438-13.71875 5.800781-21.164062.367188-11.96875-5.726562-23.210938-15.957031-29.4375-8.339844-4.621094-18.28125-5.371094-27.222656-2.050781-9.199219 3.425781-16.902344 9.984374-21.757813 18.519531l-91.5625 158.632812-11.433593-19.796875-80.128907-138.835937c-8.417969-16.179688-27.230469-23.988281-44.628906-18.519531-1.5.582031-2.953125 1.265624-4.351563 2.050781-10.230468 6.226562-16.324218 17.46875-15.957031 29.4375.027344 7.445312 2.03125 14.746093 5.800781 21.164062l111.273438 192.851563-111.273438 192.769531c-3.769531 6.417969-5.773437 13.71875-5.800781 21.164063-.367187 11.96875 5.726563 23.210937 15.957031 29.4375 1.371094.839843 2.832032 1.523437 4.351563 2.050781 17.398437 5.507812 36.238281-2.308594 44.628906-18.519531l80.128907-138.835938 11.433593-19.796875 91.5625 158.632813c4.855469 8.535156 12.558594 15.09375 21.757813 18.519531 8.925781 3.40625 18.90625 2.65625 27.222656-2.050781 10.230469-6.226563 16.324219-17.46875 15.957031-29.4375-.027343-7.445313-2.03125-14.746094-5.800781-21.164063zm0 0" fill="#e3e7f2"/><path d="m315.75 448.484375c3.769531 6.417969 5.773438 13.71875 5.800781 21.164063.367188 11.96875-5.726562 23.210937-15.957031 29.4375-8.316406 4.707031-18.296875 5.457031-27.222656 2.050781 1.523437-.527344 2.980468-1.210938 4.355468-2.050781 10.226563-6.226563 16.320313-17.46875 15.957032-29.4375-.03125-7.445313-2.035156-14.746094-5.804688-21.164063l-111.273437-192.769531 111.273437-192.851563c3.769532-6.417969 5.773438-13.71875 5.804688-21.164062.363281-11.96875-5.730469-23.210938-15.957032-29.4375-1.402343-.785157-2.855468-1.46875-4.355468-2.050781 8.941406-3.320313 18.882812-2.570313 27.222656 2.050781 10.230469 6.226562 16.324219 17.46875 15.957031 29.4375-.027343 7.445312-2.03125 14.746093-5.800781 21.164062l-111.277344 192.851563zm0 0" fill="#a4c2f7"/><path d="m311.480469 170.296875c11.785156 0 21.335937 9.550781 21.335937 21.335937v128c0 11.78125-9.550781 21.332032-21.335937 21.332032-11.78125 0-21.332031-9.550782-21.332031-21.332032v-128c0-11.785156 9.550781-21.335937 21.332031-21.335937zm0 0" fill="#e3e7f2"/><path d="m354.148438 178.832031c11.78125 0 21.332031 9.550781 21.332031 21.332031v110.933594c0 11.78125-9.550781 21.332032-21.332031 21.332032s-21.332032-9.550782-21.332032-21.332032v-110.933594c0-11.78125 9.550782-21.332031 21.332032-21.332031zm0 0" fill="#a4c2f7"/><path d="m396.816406 187.363281c11.78125 0 21.332032 9.550781 21.332032 21.335938v93.867187c0 11.78125-9.550782 21.332032-21.332032 21.332032s-21.335937-9.550782-21.335937-21.332032v-93.867187c0-11.785157 9.554687-21.335938 21.335937-21.335938zm0 0" fill="#e3e7f2"/><path d="m439.480469 195.898438c11.785156 0 21.335937 9.550781 21.335937 21.332031v76.800781c0 11.78125-9.550781 21.332031-21.335937 21.332031-11.78125 0-21.332031-9.550781-21.332031-21.332031v-76.800781c0-11.78125 9.550781-21.332031 21.332031-21.332031zm0 0" fill="#a4c2f7"/><path d="m503.480469 225.765625v59.730469c0 11.785156-9.550781 21.335937-21.332031 21.335937s-21.332032-9.550781-21.332032-21.335937v-59.730469c0-11.78125 9.550782-21.335937 21.332032-21.335937s21.332031 9.554687 21.332031 21.335937zm0 0" fill="#a4c2f7"/><path d="m477.882812 225.765625v59.730469c.011719 6.71875-3.152343 13.046875-8.535156 17.070312-5.378906-4.023437-8.542968-10.351562-8.53125-17.070312v-59.730469c-.011718-6.71875 3.152344-13.046875 8.53125-17.066406.824219.585937 1.59375 1.242187 2.304688 1.960937 4 4.007813 6.238281 9.441406 6.230468 15.105469zm0 0" fill="#e3e7f2"/><path d="m494.949219 362.296875c0 11.78125-9.550781 21.335937-21.332031 21.335937-11.785157 0-21.335938-9.554687-21.335938-21.335937s9.550781-21.332031 21.335938-21.332031c11.78125 0 21.332031 9.550781 21.332031 21.332031zm0 0" fill="#e3e7f2"/><path d="m494.949219 148.964844c0 11.78125-9.550781 21.332031-21.332031 21.332031-11.785157 0-21.335938-9.550781-21.335938-21.332031s9.550781-21.332032 21.335938-21.332032c11.78125 0 21.332031 9.550782 21.332031 21.332032zm0 0" fill="#e3e7f2"/><path d="m50.105469 499.085938c-10.226563-6.226563-16.320313-17.46875-15.957031-29.4375.03125-7.445313 2.03125-14.746094 5.804687-21.164063l111.273437-192.769531-111.273437-192.851563c-3.773437-6.417969-5.773437-13.71875-5.804687-21.164062-.363282-11.96875 5.730468-23.210938 15.957031-29.4375.992187-.53125 2.007812-1.007813 3.046875-1.433594-7.730469-3.265625-16.410156-3.488281-24.292969-.617187-1.5.582031-2.953125 1.265624-4.351563 2.050781-10.230468 6.226562-16.324218 17.46875-15.957031 29.4375.027344 7.445312 2.03125 14.746093 5.800781 21.164062l111.273438 192.851563-111.273438 192.769531c-3.769531 6.417969-5.773437 13.71875-5.800781 21.164063-.367187 11.96875 5.726563 23.210937 15.957031 29.4375 1.371094.839843 2.832032 1.523437 4.351563 2.050781 7.890625 2.910156 16.597656 2.695312 24.335937-.597657-1.070312-.394531-2.101562-.882812-3.089843-1.453124zm0 0" fill="#fff"/><path d="m21.742188 58.597656 55.441406 96.085938 55.832031 96.765625-14.777344 8.535156-55.835937-96.769531-55.441406-96.085938zm0 0" fill="#fff"/><g fill="#428dff"><path d="m49.578125 130.414062c1.109375-.132812 2.183594-.484374 3.15625-1.035156 3.007813-1.714844 4.679687-5.082031 4.230469-8.515625-.449219-3.433593-2.929688-6.253906-6.277344-7.140625l-1.621094-.257812c-.570312-.039063-1.144531-.003906-1.707031.101562-.542969.03125-1.078125.140625-1.589844.335938-.535156.195312-1.054687.429687-1.558593.699218-1.941407 1.160157-3.371094 3.003907-4.011719 5.171876-1.082031 4.550781 1.574219 9.15625 6.058593 10.496093 1.085938.253907 2.214844.304688 3.320313.144531zm0 0"/><path d="m214.332031 255.714844 108.789063-188.585938c4.527344-7.710937 6.929687-16.484375 6.964844-25.429687.390624-15.027344-7.339844-29.101563-20.234376-36.835938-22.164062-11.136719-49.160156-2.390625-60.585937 19.625l-84.214844 145.808594-84.183593-145.851563c-11.445313-22.023437-38.472657-30.746093-60.636719-19.574218-12.882813 7.734375-20.609375 21.804687-20.214844 36.828125.0351562 8.9375 2.429687 17.710937 6.945313 25.421875l17.066406 29.558594c1.515625 2.664062 4.339844 4.308593 7.402344 4.316406 3.058593.007812 5.890624-1.628906 7.417968-4.28125 1.523438-2.65625 1.507813-5.925782-.039062-8.566406l-17.066406-29.570313c-3.019532-5.113281-4.625-10.9375-4.660157-16.878906-.351562-8.910157 4.109375-17.328125 11.683594-22.039063 14-6.449218 30.585937-.523437 37.332031 13.335938l91.5625 158.636718c1.644532 2.472657 4.417969 3.957032 7.390625 3.957032 2.96875 0 5.746094-1.484375 7.390625-3.957032l91.554688-158.609374c6.71875-13.882813 23.316406-19.828126 37.324218-13.371094 7.582032 4.710937 12.046876 13.128906 11.699219 22.046875-.035156 5.945312-1.640625 11.777343-4.660156 16.898437l-111.273437 192.851563c-1.527344 2.640625-1.527344 5.894531 0 8.535156l111.289062 192.765625c3.011719 5.117188 4.613281 10.9375 4.644531 16.871094.355469 8.925781-4.117187 17.351562-11.707031 22.058594-5.984375 3.34375-13.125 3.910156-19.558594 1.554687-7.527344-2.65625-13.835937-7.953125-17.75-14.910156l-91.5625-158.609375c-1.644531-2.472656-4.421875-3.957032-7.390625-3.957032-2.972656 0-5.746093 1.484376-7.390625 3.957032l-91.554687 158.636718c-3.910157 6.960938-10.21875 12.265626-17.75 14.925782-6.4375 2.367187-13.589844 1.796875-19.574219-1.5625-7.597656-4.703125-12.070312-13.140625-11.699219-22.066406.03125-5.945313 1.640625-11.777344 4.660157-16.898438l111.273437-192.765625c1.480469-2.640625 1.433594-5.871094-.117187-8.464844l.117187-.070312-60.101563-104.191407c-1.511718-2.660156-4.335937-4.308593-7.398437-4.316406-3.0625-.007812-5.890625 1.628906-7.417969 4.285156-1.523437 2.652344-1.511718 5.921876.039063 8.566407l57.632812 99.882812-108.789062 188.542969c-4.527344 7.710938-6.9296878 16.484375-6.964844 25.429688-.410156 15.03125 7.3125 29.121093 20.207031 36.863281 10.222656 5.847656 22.488282 6.933593 33.578125 2.96875 11.46875-3.996094 21.09375-12.027344 27.078125-22.597657l84.171875-145.832031 84.179688 145.832031c5.996093 10.542969 15.617187 18.546876 27.070312 22.53125 4.457031 1.527344 9.136719 2.320313 13.847657 2.34375 6.925781.019532 13.730468-1.804687 19.722656-5.28125 12.882812-7.734374 20.609375-21.804687 20.214844-36.828124-.03125-8.941407-2.429688-17.714844-6.945313-25.429688zm0 0"/><path d="m482.148438 195.898438c-6.234376.011718-12.308594 1.992187-17.355469 5.65625-4.300781-7.058594-11.359375-11.996094-19.464844-13.617188s-16.519531.222656-23.203125 5.085938c-4.300781-7.058594-11.359375-11.996094-19.460938-13.617188-8.105468-1.621094-16.519531.222656-23.207031 5.082031-4.296875-7.058593-11.355469-11.996093-19.460937-13.617187-8.105469-1.621094-16.519532.222656-23.203125 5.085937-6.992188-11.363281-20.6875-16.695312-33.523438-13.046875-12.832031 3.644532-21.679687 15.378906-21.652343 28.722656v128c-.027344 13.339844 8.820312 25.074219 21.652343 28.722657 12.835938 3.644531 26.53125-1.683594 33.523438-13.046875 6.683593 4.859375 15.097656 6.703125 23.203125 5.082031 8.105468-1.621094 15.164062-6.558594 19.460937-13.617187 6.6875 4.863281 15.101563 6.707031 23.207031 5.085937 8.101563-1.621094 15.160157-6.558594 19.460938-13.617187 6.683594 4.859374 15.097656 6.703124 23.203125 5.082031 8.105469-1.621094 15.164063-6.558594 19.464844-13.617188 9.074219 6.570313 21.066406 7.492188 31.035156 2.382813 9.972656-5.113282 16.226563-15.390625 16.1875-26.59375v-59.730469c0-16.496094-13.371094-29.867187-29.867187-29.867187zm-157.867188 123.734374c0 7.066407-5.730469 12.796876-12.800781 12.796876-7.066407 0-12.796875-5.730469-12.796875-12.796876v-128c0-7.070312 5.730468-12.800781 12.796875-12.800781 7.070312 0 12.800781 5.730469 12.800781 12.800781zm42.667969-8.535156c0 7.070313-5.730469 12.800782-12.800781 12.800782-7.070313 0-12.800782-5.730469-12.800782-12.800782v-110.933594c0-7.070312 5.730469-12.800781 12.800782-12.800781 7.070312 0 12.800781 5.730469 12.800781 12.800781zm42.667969-8.53125c0 7.066406-5.730469 12.796875-12.800782 12.796875-7.070312 0-12.800781-5.730469-12.800781-12.796875v-93.867187c0-7.070313 5.730469-12.800781 12.800781-12.800781 7.070313 0 12.800782 5.730468 12.800782 12.800781zm42.664062-8.535156c0 7.070312-5.730469 12.800781-12.800781 12.800781-7.066407 0-12.796875-5.730469-12.796875-12.800781v-76.800781c0-7.070313 5.730468-12.800781 12.796875-12.800781 7.070312 0 12.800781 5.730468 12.800781 12.800781zm42.667969-8.535156c0 7.070312-5.730469 12.800781-12.800781 12.800781-7.070313 0-12.800782-5.730469-12.800782-12.800781v-59.730469c0-7.070313 5.730469-12.800781 12.800782-12.800781 7.070312 0 12.800781 5.730468 12.800781 12.800781zm0 0"/><path d="m473.617188 332.429688c-16.136719.042968-29.320313 12.886718-29.78125 29.015624l-104.277344 22.375c-4.273438.910157-7.167969 4.902344-6.707032 9.246094.460938 4.34375 4.128907 7.636719 8.496094 7.632813.605469 0 1.210938-.0625 1.800782-.1875l105.15625-22.5625c7.558593 12.214843 22.753906 17.304687 36.148437 12.113281 13.390625-5.195312 21.179687-19.199219 18.523437-33.320312-2.652343-14.117188-14.996093-24.335938-29.359374-24.3125zm0 42.667968c-7.070313 0-12.800782-5.730468-12.800782-12.800781 0-7.066406 5.730469-12.800781 12.800782-12.800781 7.066406 0 12.796874 5.734375 12.796874 12.800781 0 7.070313-5.730468 12.800781-12.796874 12.800781zm0 0"/><path d="m448.296875 133.3125-105.15625-22.558594c-2.980469-.640625-6.078125.355469-8.125 2.621094-2.042969 2.261719-2.726563 5.441406-1.789063 8.34375.933594 2.902344 3.347657 5.085938 6.332032 5.726562l104.277344 22.371094c.367187 14.878906 11.601562 27.234375 26.378906 29.011719s28.621094-7.5625 32.507812-21.929687c3.886719-14.367188-3.359375-29.410157-17.015625-35.324219-13.65625-5.917969-29.585937-.914063-37.410156 11.75zm38.117187 15.652344c0 7.070312-5.730468 12.800781-12.796874 12.800781-7.070313 0-12.800782-5.730469-12.800782-12.800781 0-7.070313 5.730469-12.800782 12.800782-12.800782 7.066406 0 12.796874 5.730469 12.796874 12.800782zm0 0"/></g></svg>