<?xml version="1.0" encoding="iso-8859-1"?>
<!-- Generator: Adobe Illustrator 19.0.0, SVG Export Plug-In . SVG Version: 6.00 Build 0)  -->
<svg version="1.1" id="Capa_1" xmlns="http://www.w3.org/2000/svg" xmlns:xlink="http://www.w3.org/1999/xlink" x="0px" y="0px"
	 viewBox="0 0 512 512" style="enable-background:new 0 0 512 512;" xml:space="preserve">
<path style="fill:#F97E19;" d="M19.693,7.859C12.96,7.859,7.5,13.317,7.5,20.052v472.613c0,6.734,5.459,12.193,12.193,12.193
	h472.613c6.734,0,12.193-5.459,12.193-12.193c0-14.571,0-483.316,0-472.613c0-6.734-5.459-12.193-12.193-12.193
	C477.735,7.859,8.991,7.859,19.693,7.859z"/>
<g>
	<path style="fill:#FFFFFF;" d="M99.8,160.041v192.633c0,1.703,1.38,3.083,3.083,3.083h43.533c1.703,0,3.083-1.38,3.083-3.083
		v-149.89c0-1.703,1.38-3.083,3.083-3.083h96.636c19.18,0,35.251,16.614,34.967,35.251c0,0-0.139,78.498,0,117.731
		c0.006,1.699,1.588,3.074,3.288,3.074h43.543c1.703,0,3.083-1.38,3.083-3.082l0.035-135.26c0-32.525-28.595-60.457-60.173-60.457
		H102.884C101.181,156.958,99.8,158.339,99.8,160.041z"/>
	<path style="fill:#FFFFFF;" d="M369.599,160.041v192.633c0,1.703,1.38,3.083,3.083,3.083h43.533c1.703,0,3.083-1.38,3.083-3.083
		V160.041c0-1.703-1.38-3.083-3.083-3.083h-43.533C370.98,156.958,369.599,158.339,369.599,160.041z"/>
	<path style="fill:#FFFFFF;" d="M192.101,238.142v114.533c0,1.703,1.38,3.083,3.083,3.083h43.533c1.703,0,3.083-1.38,3.083-3.083
		V238.142c0-1.703-1.38-3.083-3.083-3.083h-43.533C193.481,235.058,192.101,236.439,192.101,238.142z"/>
</g>
<path style="fill:#EA6D11;" d="M28.002,492.664V20.052c0-6.734,5.459-12.193,12.193-12.193H19.693
	C12.96,7.859,7.5,13.317,7.5,20.052v472.613c0,6.734,5.459,12.193,12.193,12.193h20.501
	C33.461,504.857,28.002,499.399,28.002,492.664z"/>
<g>
	<path style="fill:#D6D6D8;" d="M120.302,352.674V160.041c0-1.703,1.38-3.083,3.083-3.083h-20.501c-1.703,0-3.083,1.38-3.083,3.083
		v192.633c0,1.703,1.38,3.083,3.083,3.083h20.501C121.682,355.758,120.302,354.377,120.302,352.674z"/>
	<path style="fill:#D6D6D8;" d="M304.688,352.683V234.952c0.284-18.637-15.787-35.251-34.967-35.251H249.22
		c19.18,0,35.251,16.614,34.967,35.251v117.731c0.006,1.699,1.588,3.074,3.288,3.074h20.501
		C306.277,355.758,304.694,354.383,304.688,352.683z"/>
	<path style="fill:#D6D6D8;" d="M390.102,352.674V160.041c0-1.703,1.38-3.083,3.083-3.083h-20.501c-1.703,0-3.083,1.38-3.083,3.083
		v192.633c0,1.703,1.38,3.083,3.083,3.083h20.501C391.482,355.758,390.102,354.377,390.102,352.674z"/>
	<path style="fill:#D6D6D8;" d="M212.601,352.674V238.142c0-1.703,1.38-3.083,3.083-3.083h-20.501c-1.703,0-3.083,1.38-3.083,3.083
		v114.533c0,1.703,1.38,3.083,3.083,3.083h20.501C213.982,355.758,212.601,354.377,212.601,352.674z"/>
</g>
<path d="M276.688,355.434c0.019,4.129,3.583,7.467,7.712,7.467h49.699c4.142,0,7.499-3.356,7.5-7.498l0.036-138.345
	c0-36.201-31.623-67.957-67.673-67.957H99.8c-4.142,0-7.5,3.358-7.5,7.5v198.8c0,4.143,3.358,7.5,7.5,7.5h49.7
	c4.142,0,7.5-3.357,7.5-7.5V206.843h92.219c14.897,0,27.69,13.109,27.469,27.638c-0.001,0.073-0.001,0.146,0,0.22
	C277.252,274.708,276.512,315.325,276.688,355.434z M249.219,191.842H149.5c-4.142,0-7.5,3.357-7.5,7.5v148.558H107.3V164.101
	h166.662c28.06,0,52.672,24.746,52.672,52.954l-0.034,130.845h-34.912c-0.088-37.656,0.528-75.687,0-113.309
	C291.967,211.771,272.461,191.842,249.219,191.842z"/>
<path d="M419.299,362.901c4.143,0,7.5-3.357,7.5-7.5v-198.8c0-4.142-3.357-7.5-7.5-7.5h-49.7c-4.143,0-7.5,3.358-7.5,7.5v198.8
	c0,4.143,3.357,7.5,7.5,7.5H419.299z M377.1,164.101h34.699v183.799H377.1V164.101z"/>
<path d="M241.8,227.2h-49.7c-4.142,0-7.5,3.357-7.5,7.5V355.4c0,4.143,3.358,7.5,7.5,7.5h49.7c4.143,0,7.5-3.357,7.5-7.5V234.701
	C249.3,230.558,245.943,227.2,241.8,227.2z M234.299,347.901H199.6V242.201h34.699V347.901z"/>
<path d="M504.5,0.001H273.501c-4.143,0-7.5,3.358-7.5,7.5s3.357,7.5,7.5,7.5h223.498v223.498c0,4.143,3.357,7.5,7.5,7.5
	s7.5-3.357,7.5-7.5V7.501C512,3.359,508.642,0.001,504.5,0.001z"/>
<path d="M504.5,266.001c-4.143,0-7.5,3.357-7.5,7.5v223.498H15.001V15.001h223.498c4.142,0,7.5-3.358,7.5-7.5s-3.358-7.5-7.5-7.5
	H7.5c-4.142,0-7.5,3.358-7.5,7.5v496.998c0,4.143,3.358,7.5,7.5,7.5H504.5c4.143,0,7.5-3.357,7.5-7.5V273.501
	C512,269.359,508.642,266.001,504.5,266.001z"/>
<g>
</g>
<g>
</g>
<g>
</g>
<g>
</g>
<g>
</g>
<g>
</g>
<g>
</g>
<g>
</g>
<g>
</g>
<g>
</g>
<g>
</g>
<g>
</g>
<g>
</g>
<g>
</g>
<g>
</g>
</svg>
