<svg height="512pt" viewBox="-7 0 512 512" width="512pt" xmlns="http://www.w3.org/2000/svg"><path d="m305.59375 12.628906c-9.316406-5.152344-20.558594-5.4375-30.125-.765625-7.921875 3.644531-14.515625 9.667969-18.855469 17.234375l-91.5625 158.636719-14.253906-24.664063-77.3125-133.972656c-8.804687-17.292968-29.496094-24.824218-47.359375-17.234375-.578125.167969-1.125.425781-1.621094.765625-10.226562 6.226563-16.320312 17.472656-15.957031 29.441406.03125 7.441407 2.03125 14.746094 5.804687 21.160157l111.273438 192.855469 5.289062 9.128906v204.117187c-.015624 13.332031 7.757813 25.441407 19.882813 30.976563 4.460937 2.089844 9.328125 3.167968 14.253906 3.15625 18.847657 0 34.132813-15.28125 34.132813-34.132813v-204.117187l5.289062-9.128906 111.273438-192.855469c3.773437-6.414063 5.773437-13.71875 5.804687-21.160157.363281-11.96875-5.730469-23.214843-15.957031-29.441406zm0 0" fill="#e3e7f2"/><path d="m321.550781 42.070312c-.03125 7.441407-2.03125 14.746094-5.804687 21.160157l-111.273438 192.855469-5.289062 9.128906v204.117187c0 18.851563-15.285156 34.132813-34.132813 34.132813-4.925781.011718-9.792969-1.066406-14.253906-3.15625 12.128906-5.535156 19.902344-17.644532 19.882813-30.976563v-204.117187l5.292968-9.128906 111.273438-192.855469c3.769531-6.414063 5.773437-13.71875 5.804687-21.160157.363281-11.96875-5.730469-23.214843-15.960937-29.441406-.496094-.339844-1.042969-.597656-1.621094-.765625 9.566406-4.671875 20.808594-4.386719 30.125.765625 10.226562 6.226563 16.320312 17.472656 15.957031 29.441406zm0 0" fill="#a4c2f7"/><path d="m489.316406 392.535156c0 61.265625-38.230468 110.929688-85.335937 110.929688-4.242188.007812-8.472657-.421875-12.628907-1.277344h-.167968c-1.453125-.257812-2.816406-.597656-4.183594-.941406h-.167969c-5.925781-1.632813-11.628906-3.984375-16.984375-6.996094-30.121094-17.152344-51.199218-56.234375-51.199218-101.714844 0-45.484375 21.078124-84.566406 51.199218-101.632812 5.335938-3.078125 11.042969-5.457032 16.984375-7.082032h.167969c1.367188-.34375 2.730469-.683593 4.183594-.941406h.167968c4.15625-.855468 8.386719-1.285156 12.628907-1.277344 47.105469 0 85.335937 49.664063 85.335937 110.933594zm0 0" fill="#a4c2f7"/><path d="m463.714844 392.535156c0 55.550782-31.402344 101.542969-72.363282 109.652344h-.167968c-1.453125-.257812-2.816406-.597656-4.183594-.941406h-.167969c-5.925781-1.632813-11.628906-3.984375-16.984375-6.996094-30.121094-17.152344-51.199218-56.234375-51.199218-101.714844 0-45.484375 21.078124-84.566406 51.199218-101.632812 5.335938-3.078125 11.042969-5.457032 16.984375-7.082032h.167969c1.367188-.34375 2.730469-.683593 4.183594-.941406h.167968c40.960938 8.109375 72.363282 54.101563 72.363282 109.65625zm0 0" fill="#e3e7f2"/><path d="m387 501.246094c5.542969 1.472656 11.25 2.21875 16.980469 2.21875h-34.472657c-5.621093 0-11.214843-.746094-16.640624-2.21875h-.171876c-38.910156-10.410156-68.179687-55.125-68.179687-108.710938 0-53.589844 29.269531-98.304687 68.179687-108.714844h.171876c5.539062-1.472656 11.25-2.21875 16.980468-2.21875h34.132813c-5.730469 0-11.4375.746094-16.980469 2.21875h-.167969c-5.941406 1.625-11.648437 4.003907-16.984375 7.082032-30.121094 17.066406-51.199218 56.148437-51.199218 101.632812 0 45.480469 21.078124 84.5625 51.199218 101.714844 5.355469 3.011719 11.058594 5.363281 16.984375 6.996094zm0 0" fill="#e3e7f2"/><path d="m352.867188 501.246094c5.425781 1.472656 11.019531 2.21875 16.640624 2.21875h-33.792968c-47.101563 0-85.332032-49.664063-85.332032-110.929688 0-61.269531 38.230469-110.933594 85.332032-110.933594h34.132812c-5.730468 0-11.441406.746094-16.980468 2.21875h-.171876c-38.910156 10.410157-68.179687 55.125-68.179687 108.714844 0 53.585938 29.269531 98.300782 68.179687 108.710938zm0 0" fill="#e3e7f2"/><path d="m429.582031 392.535156c0-18.851562-9.550781-34.136718-21.332031-34.136718s-21.335938 15.285156-21.335938 34.136718c0 18.847656 9.554688 34.132813 21.335938 34.132813s21.332031-15.285157 21.332031-34.132813zm0 0" fill="#e3e7f2"/><path d="m176.398438 500.308594c-12.125-5.535156-19.898438-17.644532-19.882813-30.976563v-204.117187l-5.289063-9.128906-111.277343-192.855469c-3.769531-6.414063-5.773438-13.71875-5.800781-21.160157-.367188-11.96875 5.726562-23.214843 15.957031-29.441406.496093-.339844 1.042969-.597656 1.621093-.765625.476563-.242187 1-.34375 1.484376-.554687-8.683594-3.75-18.5625-3.546875-27.085938.554687-.578125.167969-1.125.425781-1.621094.765625-10.226562 6.226563-16.320312 17.472656-15.957031 29.441406.03125 7.441407 2.03125 14.746094 5.804687 21.160157l111.273438 192.855469 5.289062 9.128906v204.117187c-.015624 13.332031 7.757813 25.441407 19.882813 30.976563 4.460937 2.089844 9.328125 3.167968 14.253906 3.15625 4.460938.007812 8.878907-.859375 13.003907-2.558594-.539063-.246094-1.136719-.347656-1.65625-.597656zm0 0" fill="#fff"/><path d="m21.738281 58.964844 55.441407 96.085937 55.835937 96.769531-14.78125 8.53125-55.832031-96.765624-55.441406-96.085938zm0 0" fill="#fff"/><g fill="#428dff"><path d="m50.703125 114.089844-1.621094-.253906c-.570312-.042969-1.144531-.007813-1.707031.101562-.542969.027344-1.078125.140625-1.585938.332031-.539062.199219-1.058593.433594-1.5625.699219-1.941406 1.160156-3.371093 3.003906-4.011718 5.171875-1.082032 4.550781 1.574218 9.15625 6.058594 10.496094 1.089843.257812 2.21875.308593 3.328124.144531 1.109376-.132812 2.183594-.480469 3.15625-1.03125 3.007813-1.71875 4.675782-5.085938 4.226563-8.519531-.449219-3.433594-2.933594-6.253907-6.28125-7.140625zm0 0"/><path d="m323.121094 67.523438c4.527344-7.71875 6.929687-16.503907 6.960937-25.453126.390625-15.03125-7.339843-29.105468-20.230469-36.839843-22.164062-11.140625-49.167968-2.394531-60.585937 19.628906l-84.214844 145.808594-84.183593-145.851563c-11.441407-22.023437-38.46875-30.75-60.628907-19.578125-12.890625 7.734375-20.617187 21.804688-20.222656 36.832031.03125 8.941407 2.429687 17.710938 6.945313 25.429688l17.066406 29.523438c1.511718 2.664062 4.335937 4.308593 7.398437 4.316406 3.0625.007812 5.894531-1.628906 7.417969-4.285156 1.527344-2.652344 1.511719-5.921876-.035156-8.5625l-17.070313-29.570313c-3.011719-5.109375-4.617187-10.921875-4.65625-16.851563-.355469-8.914062 4.105469-17.332031 11.679688-22.042968 13.992187-6.417969 30.550781-.5 37.300781 13.339844l91.597656 158.632812c1.644532 2.472656 4.417969 3.960938 7.390625 3.960938 2.96875 0 5.742188-1.488282 7.386719-3.960938l91.597656-158.609375c6.730469-13.871094 23.316406-19.8125 37.324219-13.371094 7.566406 4.71875 12.019531 13.140625 11.65625 22.050781-.03125 5.945313-1.636719 11.773438-4.65625 16.894532l-116.558594 201.976562c-.753906 1.292969-1.152343 2.765625-1.152343 4.265625v204.125c0 14.140625-11.460938 25.601563-25.597657 25.601563-14.140625 0-25.601562-11.460938-25.601562-25.601563v-204.117187c0-1.496094-.398438-2.96875-1.152344-4.265625l-5.289063-9.140625-60.117187-104.183594c-1.515625-2.660156-4.339844-4.308594-7.402344-4.3125-3.0625-.007812-5.890625 1.625-7.417969 4.28125-1.523437 2.65625-1.507812 5.925781.039063 8.566406l60.125 104.191406 4.140625 7.152344v201.828125c0 23.566407 19.101562 42.667969 42.664062 42.667969 23.566407 0 42.667969-19.101562 42.667969-42.667969v-201.820312l4.140625-7.152344v-.074219zm0 0"/><path d="m403.980469 273.066406h-34.132813v-226.132812c0-16.496094 13.375-29.867188 29.867188-29.867188 16.496094 0 29.867187 13.371094 29.867187 29.867188v48.296875c-15.757812 5.363281-26.152343 20.402343-25.601562 37.035156-1.082031 19.996094 14.148437 37.132813 34.136719 38.402344 19.984374-1.269531 35.214843-18.40625 34.132812-38.402344.550781-16.632813-9.84375-31.671875-25.601562-37.035156v-48.296875c0-25.921875-21.011719-46.933594-46.933594-46.933594-25.917969 0-46.933594 21.011719-46.933594 46.933594v226.132812h-17.066406c-51.753906 0-93.867188 53.589844-93.867188 119.46875 0 65.875 42.113282 119.464844 93.867188 119.464844h68.265625c51.757812 0 93.867187-53.589844 93.867187-119.464844 0-65.878906-42.109375-119.46875-93.867187-119.46875zm51.203125-140.800781c1.003906 10.554687-6.550782 20-17.066406 21.335937-10.519532-1.335937-18.074219-10.78125-17.066407-21.335937-1.007812-10.550781 6.546875-19.996094 17.066407-21.332031 10.515624 1.335937 18.070312 10.78125 17.066406 21.332031zm-144.8125 269.039063c.164062 2.910156.417968 5.796874.742187 8.652343 2.898438 31.535157 17.515625 60.835938 40.960938 82.117188-34.363281-11.023438-59.023438-52.222657-59.023438-99.539063 0-47.320312 24.746094-88.601562 59.101563-99.578125-27.734375 25.566407-43.058594 61.871094-42.035156 99.578125 0 2.945313.082031 5.867188.253906 8.769532zm-51.457032-8.769532c0-48.421875 25.371094-89.003906 59.292969-99.613281-27.761719 25.578125-43.148437 61.878906-42.226562 99.613281-.921875 37.730469 14.464843 74.03125 42.226562 99.609375-33.921875-10.609375-59.292969-51.191406-59.292969-99.609375zm145.066407 102.398438c-4.992188 0-9.96875-.648438-14.796875-1.929688l-.417969-.09375c-1.636719-.453125-3.25-1.066406-4.863281-1.65625-.851563-.304687-1.707032-.535156-2.558594-.851562-2.5-1.035156-4.941406-2.214844-7.304688-3.53125-3.605468-2.050782-7.03125-4.398438-10.238281-7.023438-22.53125-18.550781-36.617187-51.378906-36.617187-87.3125-.003906-7.566406.625-15.113281 1.882812-22.574218 3.640625-27.175782 17.957032-51.78125 39.785156-68.375 1.707032-1.171876 3.441407-2.257813 5.203126-3.261719 2.339843-1.335938 4.761718-2.53125 7.246093-3.574219.851563-.351562 1.707031-.582031 2.507813-.851562 1.628906-.609376 3.253906-1.222657 4.925781-1.707032l.425781-.09375c4.835938-1.296875 9.816406-1.953125 14.820313-1.964844 42.351562 0 76.800781 45.933594 76.800781 102.402344 0 56.464844-34.449219 102.398438-76.800781 102.398438zm0 0"/><path d="m397.15625 327.492188c11.9375-2.871094 24.515625.574218 33.332031 9.121093 2.105469 4.21875 7.230469 5.929688 11.449219 3.824219s5.929688-7.234375 3.824219-11.453125c-6.316407-12.621094-30.609375-23.285156-52.53125-18.097656-18.261719 4.316406-48.980469 22.886719-48.980469 98.714843 0 4.710938 3.820312 8.53125 8.53125 8.53125 4.714844 0 8.535156-3.820312 8.535156-8.53125 0-47.488281 12.722656-76.648437 35.839844-82.109374zm0 0"/><path d="m425.085938 454.535156c-11.332032 6.699219-25.882813 6.179688-43.238282-1.535156-2.789062-1.238281-6.023437-.894531-8.488281.898438-2.464844 1.796874-3.785156 4.769531-3.464844 7.800781.324219 3.03125 2.238281 5.664062 5.023438 6.898437 10.152343 4.8125 21.195312 7.445313 32.425781 7.722656 9.304688.082032 18.449219-2.378906 26.453125-7.125 33.359375-19.753906 38.222656-73.667968 38.402344-75.945312.394531-4.699219-3.09375-8.828125-7.792969-9.222656-4.699219-.398438-8.828125 3.089844-9.222656 7.789062 0 .46875-4.269532 47.480469-30.097656 62.71875zm0 0"/><path d="m408.25 349.867188c-16.742188 0-29.867188 18.773437-29.867188 42.667968 0 23.890625 13.125 42.664063 29.867188 42.664063s29.867188-18.773438 29.867188-42.664063c0-23.894531-13.117188-42.667968-29.867188-42.667968zm0 68.265624c-6.042969 0-12.800781-10.949218-12.800781-25.597656 0-14.652344 6.757812-25.601562 12.800781-25.601562 6.039062 0 12.800781 10.949218 12.800781 25.601562 0 14.648438-6.761719 25.597656-12.800781 25.597656zm0 0"/></g></svg>