<svg height="503pt" viewBox="0 0 503 503.60784" width="503pt" xmlns="http://www.w3.org/2000/svg"><path d="m416.367188 134.296875-293.769532 293.769531h338.925782c18.542968 0 33.574218 15.03125 33.574218 33.574219 0 18.539063-15.03125 33.574219-33.574218 33.574219h-419.253907c-13.464843-.023438-25.617187-8.085938-30.867187-20.488282-5.246094-12.402343-2.578125-26.738281 6.78125-36.421874l-.421875-.417969 362.34375-362.347657h-337.835938c-18.539062 0-33.570312-15.03125-33.570312-33.570312 0-18.542969 15.03125-33.574219 33.570312-33.574219h419.253907c18.511718 0 33.527343 14.980469 33.574218 33.488281v.421876c-.066406 10.207031-4.796875 19.820312-12.84375 26.101562l-57.492187 57.496094-7.976563 7.972656v.085938zm0 0" fill="#a4c2f7"/><path d="m382.457031 134.296875-293.769531 293.769531h338.925781c18.542969 0 33.574219 15.03125 33.574219 33.574219 0 18.539063-15.03125 33.574219-33.574219 33.574219h-385.34375c-13.464843-.023438-25.617187-8.085938-30.867187-20.488282-5.246094-12.402343-2.578125-26.738281 6.78125-36.421874l-.421875-.417969 362.34375-362.347657h-337.835938c-18.539062 0-33.570312-15.03125-33.570312-33.570312 0-18.542969 15.03125-33.574219 33.570312-33.574219h385.34375c18.511719 0 33.527344 14.980469 33.574219 33.488281v.421876c-.0625 10.207031-4.796875 19.820312-12.839844 26.101562l-65.46875 65.46875v.085938zm0 0" fill="#e3e7f2"/><path d="m469.582031 323.148438c0 14.015624-14.773437 27.613281-30.554687 29.710937h-56.402344c-6.894531-.960937-13.378906-3.839844-18.71875-8.308594-6.945312-5.003906-11.289062-12.855469-11.832031-21.402343.605469-24.898438 17.792969-46.3125 41.964843-52.292969h33.574219c24.175781 5.980469 41.363281 27.394531 41.96875 52.292969zm0 0" fill="#a4c2f7"/><path d="m446.414062 480.441406c-9.40625 9.492188-22.222656 14.8125-35.585937 14.773438-4.246094-.015625-8.476563-.550782-12.589844-1.597656-8.726562-2.214844-16.675781-6.769532-23-13.175782-11.804687-12.429687-16.402343-30.054687-12.167969-46.667968l16.953126-73.527344c.601562-2.546875 1.472656-5.023438 2.601562-7.386719 2.652344-5.023437 6.59375-9.25 11.414062-12.253906h33.574219c1.03125.59375 2.011719 1.269531 2.9375 2.015625.757813.585937 1.429688 1.257812 2.183594 1.847656 2.535156 2.441406 4.660156 5.273438 6.292969 8.390625 1.128906 2.363281 2.003906 4.839844 2.605468 7.386719l16.953126 73.527344c4.234374 16.613281-.363282 34.238281-12.171876 46.667968zm0 0" fill="#a4c2f7"/><path d="m444.402344 323.148438c-.535156 8.484374-4.808594 16.292968-11.667969 21.320312-5.414063 4.460938-11.945313 7.363281-18.886719 8.390625h-31.222656c-6.894531-.960937-13.378906-3.839844-18.71875-8.308594-6.945312-5.003906-11.289062-12.855469-11.832031-21.402343.605469-24.898438 17.792969-46.3125 41.964843-52.292969h8.394532c24.175781 5.980469 41.359375 27.394531 41.96875 52.292969zm0 0" fill="#d4e1f4"/><path d="m421.234375 480.441406c-6.320313 6.40625-14.273437 10.960938-22.996094 13.175782-8.726562-2.214844-16.675781-6.769532-23-13.175782-11.804687-12.429687-16.402343-30.054687-12.167969-46.667968l16.953126-73.527344c.601562-2.546875 1.472656-5.023438 2.601562-7.386719-6.894531-.960937-13.378906-3.839844-18.71875-8.308594 1.472656-1.523437 3.136719-2.851562 4.953125-3.945312h33.574219c1.03125.59375 2.011718 1.269531 2.9375 2.015625 3.503906 2.789062 6.390625 6.277344 8.476562 10.238281 1.128906 2.363281 2 4.839844 2.601563 7.386719l16.957031 73.527344c4.230469 16.613281-.363281 34.238281-12.171875 46.667968zm0 0" fill="#d4e1f4"/><path d="m410.828125 251.804688c9.269531 0 16.785156 7.515624 16.785156 16.785156v92.328125c0 9.269531-7.515625 16.785156-16.785156 16.785156-9.273437 0-16.789063-7.515625-16.789063-16.785156v-92.328125c0-9.269532 7.515626-16.785156 16.789063-16.785156zm0 0" fill="#a4c2f7"/><path d="m427.613281 444.851562c0 9.273438-7.515625 16.789063-16.785156 16.789063-9.273437 0-16.789063-7.515625-16.789063-16.789063 0-9.269531 7.515626-16.785156 16.789063-16.785156 9.269531 0 16.785156 7.515625 16.785156 16.785156zm0 0" fill="#a4c2f7"/><g fill="#fff"><path d="m67.453125 8.394531h-25.183594c-18.539062 0-33.570312 15.03125-33.570312 33.574219 0 18.539062 15.03125 33.570312 33.570312 33.570312h25.183594c-18.542969 0-33.574219-15.03125-33.574219-33.570312 0-18.542969 15.03125-33.574219 33.574219-33.574219zm0 0"/><path d="m33.878906 461.640625c-.007812-8.71875 3.394532-17.09375 9.484375-23.335937l-.421875-.417969 23.753906-43.394531h-8.394531l-40.539062 43.394531.421875.417969c-6.089844 6.242187-9.496094 14.617187-9.484375 23.335937-.011719 8.90625 3.519531 17.453125 9.820312 23.75 6.296875 6.300781 14.84375 9.832031 23.75 9.824219h25.183594c-8.910156.007812-17.457031-3.523438-23.753906-9.824219-6.300781-6.296875-9.832031-14.84375-9.820313-23.75zm0 0"/><path d="m42.269531 486.820312h368.558594v16.785157h-368.558594zm0 0"/></g><path d="m109.417969 486.820312c-2.222657.03125-4.347657.902344-5.957031 2.433594l-1.007813 1.257813c-.320313.46875-.574219.976562-.757813 1.511719-.242187.476562-.410156.984374-.503906 1.511718-.089844.554688-.148437 1.117188-.167968 1.679688.035156 2.21875.902343 4.347656 2.4375 5.957031.800781.757813 1.742187 1.359375 2.769531 1.761719 3.128906 1.269531 6.710937.578125 9.148437-1.761719.757813-.800781 1.355469-1.742187 1.761719-2.769531.429687-1.007813.660156-2.09375.671875-3.1875.023438-2.234375-.855469-4.382813-2.433594-5.960938s-3.726562-2.457031-5.960937-2.433594zm0 0" fill="#428dff"/><path d="m503.492188 41.882812c-.046876-23.144531-18.824219-41.882812-41.96875-41.882812h-419.253907c-23.175781 0-41.964843 18.789062-41.964843 41.96875 0 23.175781 18.789062 41.964844 41.964843 41.964844h41.214844v16.789062h-16.789063c-4.632812 0-8.394531 3.757813-8.394531 8.390625 0 4.636719 3.761719 8.394531 8.394531 8.394531h16.789063v16.789063h-16.789063c-4.632812 0-8.394531 3.757813-8.394531 8.390625 0 4.636719 3.761719 8.394531 8.394531 8.394531h16.789063v16.785157h-16.789063c-4.632812 0-8.394531 3.757812-8.394531 8.394531s3.761719 8.394531 8.394531 8.394531h16.789063v16.785156h-16.789063c-4.632812 0-8.394531 3.757813-8.394531 8.394532 0 4.636718 3.761719 8.394531 8.394531 8.394531h16.789063v16.785156h-16.789063c-4.632812 0-8.394531 3.757813-8.394531 8.394531 0 4.636719 3.761719 8.394532 8.394531 8.394532h16.789063v16.785156h-16.789063c-4.632812 0-8.394531 3.757812-8.394531 8.394531s3.761719 8.394531 8.394531 8.394531h16.789063v16.785156h-16.789063c-4.632812 0-8.394531 3.757813-8.394531 8.394532 0 4.632812 3.761719 8.390625 8.394531 8.390625h16.789063v41.347656l-71.65625 71.65625c-.800781.800781-1.40625 1.773437-1.78125 2.84375-6.3125 7.515625-9.765625 17.027344-9.742187 26.84375-.015626 11.132813 4.398437 21.816406 12.273437 29.691406s18.558594 12.289063 29.691406 12.273438h33.574219c4.636719 0 8.394531-3.757813 8.394531-8.390625 0-4.636719-3.757812-8.394532-8.394531-8.394532h-33.574219c-6.664062.023438-13.0625-2.609374-17.777343-7.320312-4.730469-4.738281-7.390626-11.164062-7.402344-17.859375-.007813-6.535156 2.542968-12.8125 7.109375-17.484375.671875-.691406 1.203125-1.507812 1.5625-2.402344l360.28125-360.277344c2.398437-2.402343 3.117187-6.011718 1.816406-9.148437-1.296875-3.136719-4.359375-5.179687-7.753906-5.179687h-337.835938c-6.664062.023437-13.0625-2.609376-17.777343-7.320313-7.238282-7.191406-9.417969-18.042969-5.523438-27.472656 3.894531-9.433594 13.097656-15.582031 23.300781-15.570313h419.253907c6.71875.015625 13.15625 2.710938 17.882812 7.488282 4.726562 4.777343 7.355469 11.242187 7.296875 17.960937-.035156 7.652344-3.582031 14.859375-9.617187 19.558594-.273438.207031-.527344.433593-.765626.679687l-359.65625 359.660156c-2.402343 2.398438-3.121093 6.007813-1.820312 9.144532 1.296875 3.136718 4.359375 5.179687 7.753906 5.183594h231.523438c-3.128906 18.089843 2.492187 36.597656 15.160156 49.890624.15625.164063.34375.308594.511719.46875h-226.800781c-4.636719 0-8.394532 3.757813-8.394532 8.394532 0 4.632812 3.757813 8.390625 8.394532 8.390625h318.53125c22.761718.175781 41.496093-17.859375 42.179687-40.613281.683594-22.753907-16.929687-41.882813-39.660156-43.078126l-14.144531-61.320312c15.597656-5.148438 26.636718-19.085938 28.078124-35.445312-.636718-26.339844-17.492187-49.539063-42.347656-58.277344-1.378906-9.15625-7.683594-16.8125-16.40625-19.917969v-35.117187h16.785156c4.636719 0 8.394532-3.757813 8.394532-8.394532 0-4.632812-3.757813-8.390625-8.394532-8.390625h-16.785156v-16.789062h16.785156c4.636719 0 8.394532-3.757813 8.394532-8.394531 0-4.632813-3.757813-8.390626-8.394532-8.390626h-16.785156v-16.175781l.609375-.613281h16.175781c4.507813-.007812 8.191407-3.589844 8.332032-8.09375.136718-4.503906-3.324219-8.304688-7.820313-8.589844l51.324219-51.300781c9.941406-7.988281 15.699219-20.070313 15.648438-32.820313zm-403.222657 301.628907v-41.347657h16.789063c4.632812 0 8.390625-3.757812 8.390625-8.394531 0-4.632812-3.757813-8.390625-8.390625-8.390625h-16.789063v-16.789062h16.789063c4.632812 0 8.390625-3.757813 8.390625-8.394532 0-4.632812-3.757813-8.390624-8.390625-8.390624h-16.789063v-16.789063h16.789063c4.632812 0 8.390625-3.757813 8.390625-8.394531 0-4.632813-3.757813-8.390625-8.390625-8.390625h-16.789063v-16.789063h16.789063c4.632812 0 8.390625-3.757812 8.390625-8.390625 0-4.636719-3.757813-8.394531-8.390625-8.394531h-16.789063v-16.789062h16.789063c4.632812 0 8.390625-3.757813 8.390625-8.390626 0-4.636718-3.757813-8.394531-8.390625-8.394531h-16.789063v-16.785156h16.789063c4.632812 0 8.390625-3.757813 8.390625-8.394531 0-4.636719-3.757813-8.394532-8.390625-8.394532h-16.789063v-33.574218h259.574219zm302.164063-183.421875v16.171875h-16.164063zm-25.078125 25.078125c.242187 4.40625 3.878906 7.859375 8.292969 7.882812h16.785156v16.785157h-16.785156c-4.636719 0-8.394532 3.757812-8.394532 8.394531 0 4.632812 3.757813 8.390625 8.394532 8.390625h16.785156v18.332031c-8.722656 3.105469-15.03125 10.761719-16.410156 19.917969-24.851563 8.738281-41.710938 31.9375-42.34375 58.277344 1.445312 16.371093 12.5 30.304687 28.109374 35.445312l-14.082031 61.078125h-214.875zm41.867187 83.421875v92.328125c0 4.636719-3.761718 8.394531-8.394531 8.394531-4.636719 0-8.394531-3.757812-8.394531-8.394531v-92.328125c0-4.636719 3.757812-8.394532 8.394531-8.394532 4.632813 0 8.394531 3.757813 8.394531 8.394532zm-33.574218 67.71875c-2.539063 2.074218-4.8125 4.449218-6.773438 7.074218-9.570312-2.5625-16.761719-10.46875-18.410156-20.234374.265625-16.953126 9.984375-32.332032 25.183594-39.84375zm-4.476563 138.199218c-9.722656-10.40625-13.464844-25.050781-9.929687-38.847656l15.578124-67.539062c3.121094 10.660156 12.898438 17.984375 24.007813 17.984375 11.105469 0 20.882813-7.324219 24.003906-17.984375l15.585938 67.550781c4.535156 18.007813-3.566407 36.820313-19.765625 45.90625-16.199219 9.085937-36.472656 6.1875-49.480469-7.070313zm105.53125-13.085937c.074219 6.71875-2.550781 13.1875-7.28125 17.960937-4.730469 4.773438-11.179687 7.449219-17.898437 7.4375h-9.652344c.152344-.152343.328125-.285156.480468-.445312 12.488282-13.070312 18.160157-31.222656 15.332032-49.078125 11.136718 2.707031 18.984375 12.664063 19.019531 24.125zm-25.515625-138.273437c-1.65625 9.78125-8.875 17.691406-18.464844 20.234374-1.945312-2.636718-4.199218-5.027343-6.714844-7.125v-52.953124c15.195313 7.511718 24.917969 22.890624 25.179688 39.84375zm0 0" fill="#428dff"/><path d="m410.828125 419.671875c-13.90625 0-25.179687 11.273437-25.179687 25.179687s11.273437 25.179688 25.179687 25.179688 25.179687-11.273438 25.179687-25.179688-11.273437-25.179687-25.179687-25.179687zm0 33.574219c-4.636719 0-8.394531-3.757813-8.394531-8.394532 0-4.632812 3.757812-8.390624 8.394531-8.390624 4.632813 0 8.394531 3.757812 8.394531 8.390624 0 4.636719-3.761718 8.394532-8.394531 8.394532zm0 0" fill="#428dff"/></svg>